<svg xmlns="http://www.w3.org/2000/svg" xmlns:xlink="http://www.w3.org/1999/xlink" width="500" zoomAndPan="magnify" viewBox="0 0 375 187.499995" height="250" preserveAspectRatio="xMidYMid meet" version="1.0"><defs><clipPath id="94d71e5988"><path d="M 145 12.535156 L 302 12.535156 L 302 167 L 145 167 Z M 145 12.535156 " clip-rule="nonzero"/></clipPath><clipPath id="2b2ba52a32"><path d="M 313.851562 27.910156 L 286.046875 180.804688 L 132.382812 152.863281 L 160.183594 -0.0351562 Z M 313.851562 27.910156 " clip-rule="nonzero"/></clipPath><clipPath id="c5ae4be992"><path d="M 313.851562 27.910156 L 286.046875 180.804688 L 132.382812 152.863281 L 160.183594 -0.0351562 Z M 313.851562 27.910156 " clip-rule="nonzero"/></clipPath><clipPath id="2d76f43b4f"><path d="M 216 65 L 323.863281 65 L 323.863281 171.839844 L 216 171.839844 Z M 216 65 " clip-rule="nonzero"/></clipPath><clipPath id="9baf342ba3"><path d="M 340.363281 145.546875 L 242.859375 189.574219 L 198.511719 91.359375 L 296.015625 47.328125 Z M 340.363281 145.546875 " clip-rule="nonzero"/></clipPath><clipPath id="5d68b8da0d"><path d="M 340.363281 145.546875 L 242.859375 189.574219 L 198.511719 91.359375 L 296.015625 47.328125 Z M 340.363281 145.546875 " clip-rule="nonzero"/></clipPath><clipPath id="0c3764ed6e"><path d="M 228.929688 125.140625 L 278 125.140625 L 278 161 L 228.929688 161 Z M 228.929688 125.140625 " clip-rule="nonzero"/></clipPath><clipPath id="9b2c7d3d39"><path d="M 267 134 L 285.9375 134 L 285.9375 153 L 267 153 Z M 267 134 " clip-rule="nonzero"/></clipPath></defs><g clip-path="url(#94d71e5988)"><g clip-path="url(#2b2ba52a32)"><g clip-path="url(#c5ae4be992)"><path fill="#8634c6" d="M 271.042969 150.179688 C 262.53125 156.914062 252.632812 161.933594 242.125 164.675781 C 241.804688 164.820312 241.1875 165.003906 240.414062 165.210938 C 240.046875 165.320312 239.617188 165.417969 239.160156 165.542969 C 238.695312 165.664062 238.210938 165.75 237.726562 165.839844 C 237.242188 165.921875 236.753906 166.042969 236.242188 166.121094 C 235.757812 166.210938 235.265625 166.324219 234.789062 166.386719 C 233.855469 166.539062 232.976562 166.699219 232.308594 166.8125 C 233.449219 166.667969 234.554688 166.546875 235.640625 166.367188 C 236.726562 166.183594 237.792969 165.964844 238.820312 165.773438 C 239.859375 165.550781 240.898438 165.300781 241.902344 165.074219 L 242.667969 164.890625 L 243.414062 164.675781 C 243.90625 164.53125 244.402344 164.386719 244.894531 164.242188 C 247.773438 163.390625 250.597656 162.351562 253.484375 161.121094 C 249.125 163.050781 244.574219 164.566406 239.925781 165.652344 C 240.84375 165.4375 241.738281 165.191406 242.652344 164.976562 C 243.550781 164.699219 244.480469 164.429688 245.378906 164.152344 C 246.300781 163.914062 247.214844 163.550781 248.117188 163.246094 C 249.03125 162.917969 249.960938 162.617188 250.851562 162.222656 C 254.503906 160.8125 258.074219 159.03125 261.546875 157.027344 C 268.507812 152.996094 274.890625 147.691406 280.308594 141.558594 C 282.238281 139.308594 284.164062 137.257812 286.027344 134.726562 C 286.488281 134.109375 286.984375 133.46875 287.433594 132.789062 C 287.875 132.109375 288.332031 131.371094 288.824219 130.613281 C 289.3125 129.851562 289.722656 129.050781 290.171875 128.195312 C 290.617188 127.335938 291.078125 126.425781 291.488281 125.449219 C 289.019531 130.179688 286.039062 134.671875 282.617188 138.820312 C 279.1875 143.023438 275.308594 146.828125 271.042969 150.179688 Z M 254.136719 160.886719 C 254.421875 160.765625 254.746094 160.621094 255.035156 160.464844 C 254.746094 160.621094 254.460938 160.742188 254.136719 160.886719 Z M 213.070312 166.707031 C 213.585938 166.773438 214.136719 166.8125 214.648438 166.878906 C 214.105469 166.839844 213.53125 166.765625 212.980469 166.71875 C 212.691406 166.699219 212.433594 166.679688 212.152344 166.632812 C 211.894531 166.582031 211.605469 166.5625 211.351562 166.511719 C 210.296875 166.351562 209.242188 166.1875 208.28125 166.011719 C 209.363281 166.179688 210.414062 166.34375 211.46875 166.503906 C 211.726562 166.554688 212.007812 166.601562 212.269531 166.621094 C 212.558594 166.644531 212.820312 166.664062 213.070312 166.707031 Z M 294.921875 113.019531 C 297.863281 103.605469 299.027344 93.484375 298.066406 83.328125 C 298.613281 88.84375 298.589844 94.605469 297.90625 100.304688 C 297.21875 106.003906 295.792969 111.597656 293.769531 116.761719 C 294.203125 115.523438 294.546875 114.269531 294.921875 113.019531 Z M 280.480469 138.664062 C 283.683594 134.886719 286.578125 130.730469 289 126.253906 C 286.617188 130.679688 283.777344 134.875 280.542969 138.648438 C 277.304688 142.453125 273.734375 145.839844 269.992188 148.699219 C 273.710938 145.808594 277.25 142.4375 280.480469 138.664062 Z M 254.46875 27.082031 C 246.164062 22.878906 236.871094 20.195312 227.070312 19.378906 C 227.390625 19.378906 227.734375 19.441406 228.050781 19.46875 C 228.367188 19.496094 228.714844 19.53125 229.027344 19.558594 C 229.691406 19.621094 230.351562 19.683594 231.035156 19.777344 C 231.695312 19.867188 232.375 19.992188 233.058594 20.085938 C 233.398438 20.148438 233.746094 20.179688 234.082031 20.246094 C 234.425781 20.308594 234.769531 20.339844 235.105469 20.429688 C 236.457031 20.707031 237.703125 20.785156 238.363281 20.875 C 241.84375 21.832031 245.234375 22.976562 249.15625 24.59375 C 249.757812 24.820312 251.066406 25.351562 252.273438 25.804688 C 252.960938 26.21875 253.699219 26.652344 254.46875 27.082031 Z M 299.820312 93.628906 C 299.839844 93.367188 299.832031 93.101562 299.847656 92.84375 C 299.816406 93.480469 299.820312 94.09375 299.765625 94.730469 C 299.777344 94.351562 299.785156 93.972656 299.820312 93.628906 Z M 291.699219 55.566406 C 291.71875 55.601562 291.742188 55.664062 291.761719 55.695312 C 291.742188 55.664062 291.71875 55.601562 291.699219 55.566406 Z M 291.050781 54.308594 C 290.765625 53.789062 290.476562 53.269531 290.167969 52.714844 C 290.457031 53.234375 290.769531 53.761719 291.050781 54.308594 Z M 204.96875 165.730469 C 204.378906 165.597656 203.796875 165.402344 203.183594 165.230469 C 202.574219 165.066406 201.933594 164.863281 201.300781 164.660156 C 200.992188 164.574219 200.65625 164.484375 200.328125 164.363281 C 200 164.242188 199.699219 164.128906 199.367188 164.011719 C 198.710938 163.777344 198.050781 163.539062 197.382812 163.328125 L 196.890625 163.152344 C 196.726562 163.09375 196.5625 163.035156 196.398438 162.945312 C 196.078125 162.800781 195.75 162.683594 195.421875 162.535156 C 194.769531 162.269531 194.085938 162 193.429688 161.734375 C 192.785156 161.441406 192.132812 161.148438 191.457031 160.847656 C 190.808594 160.554688 190.160156 160.261719 189.511719 159.941406 C 188.898438 159.625 188.289062 159.277344 187.671875 158.960938 C 187.058594 158.644531 186.472656 158.328125 185.890625 157.992188 C 185.308594 157.652344 184.75 157.316406 184.226562 156.988281 C 183.703125 156.65625 183.144531 156.347656 182.679688 156.003906 C 181.6875 155.324219 180.777344 154.722656 179.980469 154.109375 C 180.777344 154.546875 181.605469 154.988281 182.433594 155.429688 C 182.097656 155.164062 181.535156 154.742188 180.828125 154.261719 C 180.648438 154.140625 180.464844 154.019531 180.285156 153.871094 C 180.109375 153.722656 179.898438 153.59375 179.71875 153.445312 C 179.335938 153.140625 178.921875 152.832031 178.484375 152.519531 C 178.074219 152.207031 177.632812 151.894531 177.199219 151.554688 C 176.785156 151.214844 176.378906 150.878906 175.972656 150.539062 C 175.183594 149.898438 174.445312 149.296875 173.871094 148.75 C 174.15625 148.949219 174.40625 149.175781 174.71875 149.40625 C 174.996094 149.628906 175.304688 149.863281 175.585938 150.089844 C 176.175781 150.550781 176.757812 151.0625 177.371094 151.554688 C 176.175781 150.550781 176.175781 150.550781 175.007812 149.574219 C 176.171875 150.429688 177.441406 151.480469 178.878906 152.445312 C 179.242188 152.683594 179.605469 152.957031 179.972656 153.195312 C 180.152344 153.320312 180.332031 153.441406 180.511719 153.589844 C 180.695312 153.710938 180.90625 153.835938 181.089844 153.957031 C 181.851562 154.445312 182.640625 154.941406 183.425781 155.4375 C 186.621094 157.332031 190.074219 159.101562 193.226562 160.4375 C 193.605469 160.625 194.019531 160.757812 194.398438 160.917969 C 194.78125 161.070312 195.167969 161.203125 195.550781 161.355469 C 195.9375 161.484375 196.289062 161.636719 196.648438 161.761719 C 197.003906 161.882812 197.328125 162.03125 197.691406 162.128906 C 199.046875 162.550781 200.234375 162.941406 201.210938 163.207031 C 203.148438 163.675781 204.144531 163.828125 203.675781 163.507812 C 202.703125 162.894531 197.222656 161.339844 190.734375 158.226562 C 187.507812 156.644531 184.007812 154.664062 180.695312 152.425781 C 179.867188 151.835938 179.0625 151.277344 178.230469 150.6875 C 177.433594 150.074219 176.667969 149.46875 175.902344 148.855469 C 175.691406 148.703125 175.519531 148.554688 175.3125 148.402344 C 175.132812 148.25 174.933594 148.066406 174.753906 147.917969 C 174.375 147.589844 174.019531 147.289062 173.671875 146.960938 C 173.3125 146.660156 172.964844 146.335938 172.609375 146.035156 C 172.261719 145.710938 171.9375 145.386719 171.613281 145.066406 C 171.917969 145.328125 172.195312 145.578125 172.5 145.839844 C 172.800781 146.097656 173.109375 146.332031 173.414062 146.589844 C 174.03125 147.082031 174.667969 147.578125 175.304688 148.105469 C 175.945312 148.605469 176.621094 149.078125 177.292969 149.582031 C 177.628906 149.816406 177.960938 150.082031 178.300781 150.316406 C 178.636719 150.558594 178.972656 150.792969 179.335938 151.03125 C 180.039062 151.511719 180.71875 151.960938 181.421875 152.441406 C 182.132812 152.886719 182.875 153.316406 183.582031 153.765625 C 183.953125 153.980469 184.292969 154.21875 184.660156 154.433594 C 185.03125 154.644531 185.40625 154.859375 185.78125 155.042969 L 186.898438 155.65625 C 187.269531 155.875 187.636719 156.085938 188.015625 156.273438 L 190.324219 157.421875 L 190.886719 157.699219 L 191.484375 157.957031 L 192.648438 158.460938 C 194.214844 159.183594 195.8125 159.738281 197.398438 160.347656 C 200.601562 161.429688 203.789062 162.390625 206.960938 162.964844 C 206.238281 162.773438 205.566406 162.59375 204.953125 162.425781 C 204.347656 162.226562 203.742188 162.027344 203.105469 161.796875 C 202.777344 161.675781 202.472656 161.59375 202.113281 161.46875 C 201.757812 161.34375 201.394531 161.25 201.011719 161.089844 C 200.242188 160.808594 199.363281 160.5 198.339844 160.167969 C 198.007812 160.078125 197.679688 159.933594 197.378906 159.820312 L 194.511719 158.683594 L 192.644531 157.847656 L 191.703125 157.410156 C 191.375 157.265625 191.078125 157.121094 190.78125 156.980469 C 188.347656 155.746094 185.917969 154.453125 183.609375 152.980469 C 178.949219 150.113281 174.976562 147.167969 171.628906 143.546875 C 171.277344 143.21875 170.925781 142.890625 170.609375 142.539062 C 169.914062 141.855469 169.234375 141.269531 168.539062 140.585938 C 168.335938 140.402344 168.167969 140.195312 168.027344 140.023438 C 167.851562 139.84375 167.714844 139.644531 167.5625 139.5 C 167.273438 139.152344 167.007812 138.84375 166.773438 138.535156 C 166.539062 138.230469 166.292969 137.953125 166.074219 137.703125 C 165.863281 137.433594 165.648438 137.160156 165.464844 136.890625 C 165.03125 136.347656 164.605469 135.800781 164.082031 135.152344 C 163.816406 134.835938 163.558594 134.472656 163.253906 134.058594 C 162.949219 133.652344 162.613281 133.242188 162.261719 132.769531 C 162.269531 132.714844 162.398438 132.824219 162.59375 133.035156 C 162.351562 132.753906 162.121094 132.421875 161.835938 132.046875 C 161.578125 131.679688 161.332031 131.28125 161.054688 130.878906 C 160.773438 130.480469 160.527344 130.082031 160.246094 129.679688 C 160.105469 129.480469 159.992188 129.3125 159.851562 129.109375 C 159.742188 128.914062 159.597656 128.746094 159.480469 128.578125 C 159.5 128.464844 159.519531 128.351562 159.402344 128.035156 C 154.078125 119.019531 150.585938 108.78125 149.566406 98.121094 C 149.507812 97.320312 149.414062 96.542969 149.355469 95.742188 C 149.324219 94.945312 149.289062 94.175781 149.253906 93.382812 C 149.238281 92.996094 149.226562 92.585938 149.207031 92.203125 C 149.21875 91.824219 149.207031 91.410156 149.214844 91.03125 C 149.214844 90.242188 149.234375 89.488281 149.230469 88.695312 C 149.265625 88.027344 149.300781 87.359375 149.332031 86.691406 C 149.367188 86.027344 149.371094 85.355469 149.4375 84.664062 C 149.503906 83.976562 149.566406 83.3125 149.664062 82.625 C 149.726562 81.9375 149.796875 81.246094 149.917969 80.566406 C 150.015625 79.878906 150.078125 79.222656 150.121094 78.644531 C 150.171875 78.066406 150.167969 77.597656 150.226562 77.257812 C 150.441406 76.390625 150.636719 75.488281 150.859375 74.59375 C 150.902344 74.363281 150.972656 74.140625 151.011719 73.917969 C 151.082031 73.695312 151.152344 73.472656 151.21875 73.25 C 151.359375 72.808594 151.46875 72.359375 151.613281 71.886719 C 151.753906 71.449219 151.871094 70.96875 152.011719 70.496094 C 152.160156 70.027344 152.328125 69.589844 152.5 69.09375 C 152.675781 68.628906 152.820312 68.160156 152.996094 67.660156 C 153.070312 67.414062 153.148438 67.160156 153.25 66.917969 C 153.351562 66.671875 153.457031 66.429688 153.53125 66.179688 C 153.617188 65.871094 153.792969 65.378906 153.984375 64.796875 C 154.171875 64.25 154.382812 63.582031 154.617188 62.953125 C 155.003906 62.261719 155.371094 61.511719 155.785156 60.707031 C 155.898438 60.40625 156.074219 60.085938 156.214844 59.792969 L 156.667969 58.90625 C 156.949219 58.316406 157.265625 57.726562 157.554688 57.109375 C 157.890625 56.527344 158.203125 55.9375 158.539062 55.382812 L 159.015625 54.503906 L 159.273438 54.082031 L 159.527344 53.660156 C 160.898438 51.394531 162.355469 49.199219 163.992188 47.125 L 163.964844 47.121094 C 164.347656 46.605469 164.769531 46.070312 165.1875 45.527344 C 165.605469 44.992188 166.082031 44.460938 166.535156 43.929688 C 167.433594 42.835938 168.46875 41.792969 169.492188 40.691406 C 170.003906 40.144531 170.554688 39.660156 171.097656 39.109375 L 171.910156 38.324219 C 172.195312 38.050781 172.449219 37.804688 172.722656 37.5625 C 173.863281 36.601562 174.960938 35.570312 176.144531 34.671875 C 176.726562 34.226562 177.273438 33.769531 177.855469 33.316406 C 178.429688 32.894531 179.003906 32.472656 179.574219 32.078125 C 180.386719 31.464844 181.21875 30.914062 182.019531 30.386719 L 183.34375 29.542969 C 183.808594 29.246094 184.289062 29.015625 184.75 28.71875 L 186.183594 27.925781 L 186.898438 27.527344 L 187.636719 27.164062 C 187.300781 27.25 187.1875 27.230469 187.105469 27.183594 C 186.9375 27.300781 186.746094 27.382812 186.550781 27.492188 C 186.355469 27.601562 186.164062 27.714844 185.960938 27.855469 C 185.632812 28.058594 185.277344 28.253906 184.945312 28.457031 C 186.167969 27.6875 187.257812 27.003906 188.175781 26.472656 C 188.621094 26.261719 189.097656 26.054688 189.574219 25.847656 C 190.078125 25.648438 190.582031 25.449219 191.085938 25.246094 C 191.597656 25.046875 192.132812 24.820312 192.667969 24.597656 C 193.203125 24.402344 193.773438 24.183594 194.335938 23.964844 C 197.09375 22.796875 199.980469 21.914062 202.851562 21.089844 L 206.15625 20.285156 L 207.273438 20.082031 C 208.003906 19.949219 208.765625 19.792969 209.488281 19.664062 C 210.246094 19.539062 210.988281 19.46875 211.742188 19.34375 C 212.234375 19.226562 211.796875 19.203125 211.75 19.140625 C 214.382812 18.828125 217.066406 18.730469 219.761719 18.691406 C 224.585938 18.574219 229.457031 18.964844 234.273438 19.839844 C 234.851562 19.886719 235.417969 19.988281 235.984375 20.089844 C 236.550781 20.195312 237.125 20.269531 237.691406 20.371094 C 237.992188 20.484375 238.351562 20.582031 238.738281 20.710938 C 239.125 20.839844 239.542969 20.972656 240.011719 21.117188 L 241.351562 21.476562 C 241.800781 21.589844 242.25 21.699219 242.65625 21.859375 C 243.542969 22.140625 244.398438 22.441406 245.285156 22.71875 C 245.589844 22.804688 245.890625 22.917969 246.214844 23.0625 C 246.546875 23.183594 246.875 23.300781 247.199219 23.445312 C 247.558594 23.574219 247.910156 23.722656 248.269531 23.847656 C 248.65625 23.976562 249.035156 24.132812 249.417969 24.289062 C 250.203125 24.636719 251.015625 24.992188 251.855469 25.351562 C 252.296875 25.515625 252.722656 25.742188 253.148438 25.964844 C 253.578125 26.1875 254.039062 26.390625 254.496094 26.621094 C 258.121094 28.421875 262.074219 30.808594 265.835938 33.628906 C 266.441406 34 266.910156 34.320312 267.167969 34.515625 C 267.707031 34.933594 268.210938 35.375 268.71875 35.789062 C 269.222656 36.234375 269.742188 36.621094 270.210938 37.085938 C 270.6875 37.523438 271.164062 37.960938 271.640625 38.398438 C 272.117188 38.835938 272.5625 39.269531 273.007812 39.730469 C 273.40625 40.125 273.769531 40.511719 274.144531 40.875 C 274.515625 41.261719 274.917969 41.628906 275.257812 42.015625 C 275.960938 42.816406 276.667969 43.585938 277.355469 44.324219 C 277.996094 45.117188 278.644531 45.90625 279.273438 46.632812 C 279.445312 46.8125 279.585938 47.011719 279.726562 47.214844 C 279.863281 47.414062 280.007812 47.589844 280.148438 47.789062 C 280.429688 48.164062 280.714844 48.539062 281 48.910156 C 281.566406 49.628906 282.042969 50.386719 282.53125 51.09375 C 282.765625 51.425781 282.992188 51.789062 283.222656 52.125 C 283.335938 52.292969 283.457031 52.457031 283.570312 52.625 C 283.6875 52.792969 283.773438 52.953125 283.863281 53.117188 C 284.648438 54.429688 285.40625 55.566406 285.929688 56.566406 C 286.589844 57.742188 286.664062 57.664062 286.390625 56.917969 C 286.253906 56.539062 286.03125 56 285.769531 55.339844 C 285.476562 54.699219 285.109375 53.960938 284.71875 53.214844 C 284.527344 52.828125 284.335938 52.441406 284.144531 52.054688 C 283.917969 51.664062 283.722656 51.308594 283.523438 50.949219 C 283.097656 50.230469 282.730469 49.519531 282.398438 48.933594 C 281.699219 47.78125 281.28125 47.027344 281.503906 47.246094 C 283.734375 49.464844 286.285156 52.976562 288.800781 57.820312 C 290.023438 60.269531 291.3125 62.988281 292.417969 66.089844 C 293.023438 67.601562 293.511719 69.273438 294.078125 70.957031 C 294.554688 72.679688 295.082031 74.445312 295.503906 76.335938 C 295.972656 78.410156 295.847656 77.660156 295.644531 76.363281 C 295.523438 75.726562 295.40625 74.941406 295.316406 74.3125 C 295.195312 73.675781 295.105469 73.222656 295.113281 73.164062 C 295.230469 73.476562 295.34375 73.820312 295.511719 74.203125 C 295.644531 74.578125 295.742188 75.003906 295.867188 75.4375 C 296.148438 76.804688 296.457031 78.152344 296.648438 79.53125 L 296.835938 80.734375 C 296.914062 81.128906 296.984375 81.550781 297 81.933594 L 297.265625 84.355469 C 297.222656 83.933594 297.1875 83.492188 297.144531 83.074219 C 296.882812 80.511719 296.457031 78 295.933594 75.738281 C 296.039062 76.113281 296.140625 76.511719 296.246094 76.910156 C 296.386719 77.433594 296.523438 77.957031 296.628906 78.5 C 296.734375 79.050781 296.867188 79.628906 296.972656 80.171875 L 297.136719 81.023438 L 297.234375 81.449219 L 297.304688 81.875 C 297.476562 83.015625 297.65625 84.132812 297.820312 85.160156 C 297.425781 79.4375 296.378906 73.773438 294.679688 68.285156 L 294.371094 67.261719 C 294.257812 66.921875 294.144531 66.574219 294.03125 66.234375 L 293.320312 64.203125 C 293.089844 63.515625 292.796875 62.878906 292.507812 62.210938 L 291.542969 60.453125 L 290.609375 58.503906 C 290.289062 57.855469 290 57.1875 289.640625 56.570312 C 288.964844 55.304688 288.320312 54.015625 287.546875 52.792969 L 286.449219 50.953125 L 285.253906 49.15625 C 284.480469 47.9375 283.601562 46.808594 282.761719 45.65625 C 282.542969 45.386719 282.335938 45.085938 282.121094 44.8125 L 281.453125 43.988281 L 280.09375 42.308594 C 279.636719 41.753906 279.144531 41.230469 278.65625 40.699219 L 277.925781 39.894531 C 277.683594 39.613281 277.4375 39.367188 277.1875 39.113281 C 273.203125 34.964844 268.78125 31.265625 263.96875 28.109375 C 267.578125 30.492188 270.882812 33.226562 273.921875 36.152344 C 276.929688 39.070312 279.667969 42.199219 282.066406 45.445312 C 279.796875 42.484375 277.292969 39.664062 274.636719 37.042969 C 271.949219 34.445312 269.054688 32.015625 266.007812 29.796875 L 263.695312 28.171875 C 263.304688 27.898438 262.910156 27.652344 262.515625 27.402344 L 261.308594 26.65625 C 260.914062 26.410156 260.519531 26.164062 260.097656 25.910156 L 257.601562 24.519531 L 256.988281 24.175781 L 256.34375 23.851562 C 255.484375 23.433594 254.652344 23.019531 253.792969 22.597656 C 252.925781 22.207031 252.054688 21.84375 251.191406 21.453125 C 250.757812 21.257812 250.328125 21.058594 249.886719 20.890625 L 248.546875 20.382812 L 247.203125 19.878906 C 246.984375 19.808594 246.765625 19.714844 246.546875 19.640625 L 245.855469 19.429688 L 242.945312 18.515625 L 240.011719 17.753906 L 239.285156 17.5625 C 239.027344 17.511719 238.777344 17.46875 238.554688 17.398438 L 237.085938 17.101562 L 235.585938 16.800781 C 235.078125 16.707031 234.589844 16.648438 234.082031 16.558594 L 232.570312 16.339844 C 232.058594 16.277344 231.574219 16.1875 231.058594 16.121094 L 228.042969 15.808594 C 227.78125 15.792969 227.550781 15.78125 227.289062 15.757812 L 226.539062 15.710938 L 225.027344 15.640625 L 224.277344 15.59375 L 223.898438 15.582031 L 223.519531 15.574219 L 222 15.558594 C 213.90625 15.492188 205.875 16.839844 198.210938 19.253906 C 198.835938 19.011719 199.554688 18.765625 200.277344 18.515625 C 201.019531 18.269531 201.773438 17.996094 202.597656 17.796875 C 202.261719 17.882812 201.921875 17.96875 201.582031 18.082031 L 200.558594 18.390625 L 198.515625 19.011719 C 197.835938 19.210938 197.171875 19.472656 196.515625 19.703125 C 195.859375 19.9375 195.175781 20.164062 194.511719 20.425781 L 192.550781 21.238281 C 191.890625 21.5 191.226562 21.757812 190.613281 22.085938 C 189.328125 22.703125 188.027344 23.253906 186.792969 23.9375 C 186.039062 24.359375 185.292969 24.777344 184.539062 25.222656 L 182.359375 26.582031 C 182.859375 26.238281 184.117188 25.441406 185.011719 24.871094 C 177.359375 29.128906 170.445312 34.632812 164.703125 41.109375 C 158.9375 47.554688 154.453125 54.992188 151.285156 62.757812 C 151.777344 61.5 152.007812 60.871094 152.199219 60.289062 C 152.039062 60.699219 151.84375 61.128906 151.679688 61.539062 C 151.519531 61.953125 151.320312 62.382812 151.15625 62.820312 C 150.738281 63.976562 150.296875 65.125 149.910156 66.285156 C 149.550781 67.445312 149.195312 68.609375 148.84375 69.75 C 149.167969 68.605469 149.523438 67.441406 149.882812 66.277344 C 150.269531 65.121094 150.710938 63.96875 151.121094 62.847656 C 151.265625 62.375 151.496094 61.917969 151.667969 61.453125 C 151.871094 60.992188 152.042969 60.523438 152.242188 60.0625 C 152.324219 59.785156 152.4375 59.484375 152.585938 59.128906 C 152.742188 58.777344 152.964844 58.351562 153.269531 57.789062 C 155.226562 53.636719 157.445312 49.945312 159.34375 47.421875 C 160.214844 46.175781 161.179688 45.035156 162.09375 43.882812 C 162.550781 43.296875 163.058594 42.742188 163.511719 42.179688 C 163.996094 41.625 164.476562 41.070312 164.960938 40.511719 C 165.464844 39.988281 165.96875 39.46875 166.449219 38.910156 C 166.953125 38.390625 167.433594 37.859375 167.957031 37.367188 C 168.988281 36.359375 169.996094 35.339844 171.070312 34.425781 C 175.296875 30.65625 179.769531 27.460938 184.40625 24.996094 C 186.570312 23.867188 186.058594 24.242188 184.984375 24.867188 C 185.5625 24.5625 186.183594 24.234375 186.765625 23.929688 L 188.066406 23.203125 L 189.414062 22.539062 C 190.3125 22.117188 191.1875 21.632812 192.136719 21.25 C 193.054688 20.859375 193.984375 20.445312 194.921875 20.089844 C 195.867188 19.734375 196.835938 19.410156 197.773438 19.058594 C 202.101562 17.648438 206.527344 16.636719 210.96875 16.039062 C 211.390625 15.972656 211.839844 15.90625 212.261719 15.835938 C 212.683594 15.769531 213.132812 15.730469 213.574219 15.695312 C 213.152344 15.761719 212.714844 15.773438 212.261719 15.835938 C 223.710938 14.523438 235.265625 15.835938 245.914062 19.40625 C 246.71875 19.644531 247.484375 19.957031 248.277344 20.25 L 249.460938 20.667969 C 249.847656 20.800781 250.253906 20.960938 250.636719 21.117188 C 252.1875 21.777344 253.742188 22.386719 255.242188 23.152344 C 258.292969 24.585938 261.199219 26.285156 264.003906 28.082031 L 263.535156 27.765625 L 263.0625 27.472656 L 262.089844 26.859375 C 261.433594 26.445312 260.804688 26.039062 260.113281 25.652344 C 259.453125 25.265625 258.757812 24.90625 258.097656 24.519531 L 257.085938 23.960938 L 256.039062 23.445312 L 253.972656 22.425781 C 253.269531 22.09375 252.558594 21.820312 251.855469 21.484375 L 250.800781 21.03125 L 250.257812 20.785156 L 249.714844 20.566406 L 247.546875 19.765625 C 246.835938 19.488281 246.09375 19.238281 245.339844 19.011719 L 243.132812 18.289062 C 242.375 18.09375 241.652344 17.902344 240.902344 17.679688 C 240.148438 17.484375 239.425781 17.265625 238.664062 17.125 C 237.902344 16.960938 237.167969 16.796875 236.410156 16.628906 C 236.042969 16.5625 235.652344 16.460938 235.28125 16.394531 L 234.144531 16.214844 C 233.378906 16.078125 232.640625 15.972656 231.875 15.832031 C 231.101562 15.722656 230.355469 15.644531 229.609375 15.570312 C 237.722656 16.167969 246.507812 18.40625 254.710938 22.210938 C 249.4375 19.667969 243.808594 17.796875 238.035156 16.542969 C 237.476562 16.410156 236.941406 16.285156 236.402344 16.1875 C 236.121094 16.136719 235.867188 16.058594 235.585938 16.011719 C 235.304688 15.957031 235.046875 15.914062 234.765625 15.859375 C 233.6875 15.664062 232.605469 15.5 231.585938 15.3125 C 230.554688 15.183594 229.554688 15.058594 228.644531 14.921875 C 227.730469 14.789062 226.859375 14.746094 226.089844 14.632812 C 231.875 15.015625 236.632812 15.878906 241.070312 16.917969 C 231.460938 14.410156 221.207031 13.65625 211.039062 15 C 210.535156 15.054688 210.050781 15.140625 209.539062 15.195312 C 209.296875 15.238281 209.03125 15.25 208.792969 15.296875 C 208.546875 15.335938 208.308594 15.382812 208.0625 15.425781 C 208.308594 15.382812 208.546875 15.335938 208.792969 15.296875 L 209.539062 15.195312 C 210.019531 15.136719 210.535156 15.054688 211.007812 14.996094 C 216.5625 14.246094 222.339844 14.011719 228.109375 14.472656 C 233.878906 14.9375 239.582031 16.09375 244.878906 17.875 L 243.929688 17.613281 C 243.621094 17.527344 243.285156 17.4375 242.980469 17.355469 C 242.335938 17.207031 241.6875 17.0625 241.046875 16.886719 C 243.230469 17.429688 245.351562 18.140625 247.480469 18.847656 C 248.523438 19.242188 249.5625 19.636719 250.601562 20.027344 C 251.632812 20.476562 252.632812 20.925781 253.671875 21.347656 C 257.722656 23.195312 261.597656 25.394531 265.242188 27.871094 C 268.890625 30.347656 272.304688 33.136719 275.464844 36.199219 C 278.59375 39.257812 281.476562 42.585938 284.082031 46.105469 C 283.765625 45.609375 283.414062 45.105469 283.070312 44.605469 C 282.71875 44.101562 282.316406 43.585938 281.910156 43.074219 C 281.507812 42.5625 281.109375 42.023438 280.671875 41.503906 C 280.214844 40.980469 279.78125 40.464844 279.289062 39.933594 C 277.421875 37.8125 275.261719 35.722656 272.996094 33.699219 C 268.394531 29.703125 263.175781 26.207031 258.515625 23.515625 C 267.011719 27.957031 274.832031 34.207031 281.203125 41.835938 C 287.605469 49.4375 292.554688 58.417969 295.589844 67.984375 C 298.648438 77.554688 299.730469 87.703125 298.902344 97.5625 C 298.5 102.488281 297.621094 107.335938 296.351562 112.050781 C 295.0625 116.734375 293.332031 121.277344 291.234375 125.546875 L 292.355469 123.265625 C 292.726562 122.511719 293.046875 121.71875 293.390625 120.933594 C 294.113281 119.398438 294.664062 117.804688 295.273438 116.21875 C 296.382812 113.019531 297.351562 109.773438 298.015625 106.441406 C 298.769531 103.125 299.203125 99.75 299.53125 96.355469 C 299.59375 95.519531 299.636719 94.648438 299.699219 93.8125 C 299.71875 93.375 299.769531 92.945312 299.757812 92.535156 L 299.785156 91.253906 C 299.792969 90.402344 299.835938 89.53125 299.8125 88.683594 C 299.792969 87.828125 299.746094 86.96875 299.726562 86.121094 C 299.753906 86.765625 299.773438 87.445312 299.796875 88.121094 C 299.820312 88.476562 299.851562 88.804688 299.84375 89.152344 C 299.839844 89.503906 299.863281 89.859375 299.859375 90.210938 C 299.871094 90.941406 299.859375 91.648438 299.871094 92.378906 C 299.886719 92.46875 299.863281 92.582031 299.878906 92.671875 C 299.96875 88.621094 299.78125 84.667969 299.246094 80.707031 C 299.070312 79.5625 298.898438 78.414062 298.726562 77.273438 C 298.503906 76.238281 298.3125 75.207031 298.089844 74.171875 C 298.914062 77.835938 299.503906 81.515625 299.792969 85.253906 C 300.277344 91.425781 300.027344 97.644531 299.125 103.71875 C 299.019531 104.632812 298.84375 105.449219 298.703125 106.214844 C 298.570312 106.953125 298.449219 107.632812 298.339844 108.195312 C 298.101562 109.355469 297.914062 110.226562 297.804688 110.824219 C 297.585938 112.039062 297.636719 112.226562 297.863281 111.800781 C 298.085938 111.367188 298.464844 110.265625 298.882812 108.941406 C 299.089844 108.273438 299.257812 107.515625 299.421875 106.757812 C 299.589844 105.996094 299.792969 105.210938 299.898438 104.472656 C 300.179688 102.59375 300.523438 100.722656 300.664062 98.816406 C 300.71875 98.359375 300.75 97.867188 300.800781 97.40625 C 300.816406 97.175781 300.855469 96.945312 300.867188 96.714844 L 300.910156 96.019531 C 300.960938 95.097656 301.015625 94.140625 301.066406 93.210938 C 301.089844 92.277344 301.085938 91.339844 301.078125 90.402344 C 301.078125 89.933594 301.074219 89.464844 301.070312 89 C 301.070312 88.527344 301.035156 88.082031 301 87.609375 C 300.964844 86.695312 300.933594 85.753906 300.863281 84.835938 C 300.769531 83.90625 300.699219 82.988281 300.601562 82.09375 C 300.179688 78.445312 299.582031 74.824219 298.640625 71.320312 L 298.320312 70 C 298.195312 69.570312 298.070312 69.132812 297.941406 68.703125 C 297.691406 67.835938 297.4375 66.96875 297.15625 66.101562 C 296.527344 64.410156 295.992188 62.699219 295.265625 61.042969 C 289.835938 47.765625 280.824219 36.175781 269.207031 27.804688 C 268.871094 27.5625 268.535156 27.296875 268.171875 27.058594 L 267.125 26.371094 C 266.417969 25.917969 265.714844 25.441406 265.007812 24.988281 C 264.292969 24.566406 263.550781 24.136719 262.839844 23.714844 C 262.46875 23.503906 262.121094 23.292969 261.753906 23.082031 L 260.628906 22.496094 L 258.390625 21.300781 L 256.105469 20.328125 L 254.976562 19.796875 L 253.800781 19.324219 L 251.460938 18.34375 C 245.175781 15.910156 238.566406 14.269531 231.871094 13.433594 C 229.976562 13.234375 227.890625 12.941406 225.746094 12.84375 C 225.222656 12.808594 224.675781 12.765625 224.121094 12.753906 C 223.566406 12.742188 223.039062 12.734375 222.515625 12.726562 C 221.992188 12.71875 221.4375 12.703125 220.90625 12.726562 C 220.640625 12.738281 220.378906 12.71875 220.117188 12.730469 C 219.851562 12.738281 219.582031 12.75 219.320312 12.757812 C 218.285156 12.808594 217.253906 12.851562 216.285156 12.878906 C 215.300781 12.964844 214.375 13.0625 213.515625 13.140625 C 213.066406 13.171875 212.652344 13.21875 212.261719 13.261719 C 211.867188 13.335938 211.480469 13.382812 211.117188 13.433594 C 210.398438 13.539062 209.761719 13.65625 209.191406 13.730469 C 203.40625 14.8125 197.691406 16.613281 192.160156 19.03125 C 189.367188 20.222656 186.710938 21.640625 184.039062 23.144531 C 183.382812 23.523438 182.71875 23.960938 182.066406 24.335938 C 181.40625 24.746094 180.753906 25.121094 180.109375 25.589844 C 178.835938 26.472656 177.542969 27.320312 176.316406 28.265625 C 175.707031 28.738281 175.066406 29.179688 174.449219 29.683594 C 173.859375 30.191406 173.242188 30.691406 172.65625 31.171875 C 172.351562 31.40625 172.035156 31.675781 171.761719 31.914062 L 170.882812 32.71875 C 170.289062 33.257812 169.726562 33.769531 169.132812 34.304688 C 166.882812 36.53125 164.660156 38.789062 162.671875 41.328125 C 161.632812 42.542969 160.6875 43.863281 159.726562 45.148438 C 159.492188 45.457031 159.257812 45.796875 159.019531 46.132812 L 157.65625 48.167969 L 157.300781 48.660156 L 156.972656 49.1875 C 156.554688 49.871094 156.132812 50.582031 155.714844 51.269531 L 155.386719 51.796875 C 155.292969 51.984375 155.207031 52.144531 155.085938 52.324219 L 154.503906 53.421875 L 153.925781 54.515625 C 153.710938 54.886719 153.53125 55.234375 153.34375 55.609375 C 152.972656 56.363281 152.636719 57.089844 152.265625 57.84375 C 149.714844 63.175781 147.820312 68.949219 146.617188 74.902344 C 146.484375 75.636719 146.285156 76.394531 146.179688 77.132812 C 146.074219 77.878906 145.964844 78.648438 145.832031 79.382812 L 145.65625 80.523438 C 145.585938 80.894531 145.578125 81.269531 145.535156 81.667969 C 145.457031 82.417969 145.375 83.195312 145.320312 83.972656 L 145.273438 84.550781 C 145.265625 84.753906 145.261719 84.925781 145.253906 85.132812 L 145.191406 86.289062 C 145.171875 87.050781 145.113281 87.828125 145.09375 88.589844 L 145.113281 90.902344 L 145.109375 92.042969 C 145.097656 92.417969 145.148438 92.808594 145.164062 93.191406 L 145.300781 95.503906 L 145.339844 96.09375 L 145.410156 96.660156 L 145.523438 97.824219 C 145.617188 98.601562 145.652344 99.371094 145.777344 100.121094 L 146.125 102.414062 L 146.292969 103.554688 L 146.53125 104.683594 L 147 106.933594 C 147.179688 107.695312 147.367188 108.433594 147.558594 109.167969 C 147.746094 109.90625 147.929688 110.667969 148.179688 111.390625 C 148.644531 112.847656 149.078125 114.335938 149.605469 115.777344 C 149.882812 116.496094 150.105469 117.214844 150.410156 117.941406 C 150.695312 118.636719 151 119.367188 151.285156 120.0625 L 151.738281 121.109375 L 152.226562 122.136719 C 152.535156 122.835938 152.878906 123.515625 153.195312 124.183594 C 153.542969 124.863281 153.917969 125.542969 154.265625 126.195312 C 154.644531 126.847656 154.957031 127.546875 155.367188 128.179688 C 158.425781 133.417969 161.996094 138.253906 166.007812 142.582031 C 170.027344 146.882812 174.464844 150.648438 179.089844 153.855469 C 183.714844 157.070312 188.589844 159.710938 193.484375 161.769531 C 198.371094 163.863281 203.300781 165.402344 208.105469 166.507812 C 207.203125 166.3125 206.140625 166.035156 204.96875 165.730469 Z M 256.585938 20.914062 C 257.480469 21.308594 258.316406 21.695312 259.117188 22.132812 C 259.914062 22.566406 260.65625 23 261.375 23.390625 C 262.089844 23.8125 262.761719 24.289062 263.421875 24.699219 C 266.058594 26.441406 268.21875 28.238281 270.605469 30.078125 C 273.832031 32.621094 276.898438 35.40625 279.683594 38.425781 C 280.363281 39.195312 281.042969 39.964844 281.753906 40.707031 C 282.402344 41.496094 283.046875 42.289062 283.695312 43.078125 C 284.039062 43.460938 284.34375 43.867188 284.613281 44.300781 L 285.535156 45.519531 C 285.84375 45.925781 286.148438 46.332031 286.421875 46.765625 C 286.691406 47.195312 286.972656 47.597656 287.273438 48.035156 C 287.824219 48.863281 288.40625 49.699219 288.917969 50.582031 C 289.433594 51.4375 289.949219 52.296875 290.464844 53.179688 C 290.949219 54.058594 291.402344 54.925781 291.886719 55.804688 C 292.136719 56.234375 292.339844 56.707031 292.554688 57.128906 C 292.765625 57.574219 292.976562 58.027344 293.1875 58.472656 C 293.398438 58.921875 293.617188 59.339844 293.824219 59.816406 C 294.007812 60.257812 294.21875 60.707031 294.398438 61.179688 C 294.753906 62.09375 295.179688 62.960938 295.488281 63.867188 C 295.820312 64.773438 296.148438 65.683594 296.457031 66.558594 C 296.734375 67.457031 297.035156 68.390625 297.308594 69.289062 C 295.914062 64.585938 294.074219 60.039062 291.816406 55.707031 C 293.308594 58.613281 294.519531 61.46875 295.597656 64.382812 C 295.769531 64.882812 295.941406 65.382812 296.121094 65.855469 L 296.394531 66.605469 L 296.609375 67.347656 C 296.894531 68.367188 297.210938 69.359375 297.515625 70.410156 C 297.765625 71.453125 298.011719 72.519531 298.285156 73.59375 C 298.527344 74.660156 298.707031 75.777344 298.910156 76.898438 C 298.742188 76.222656 298.546875 75.371094 298.335938 74.421875 C 298.25 73.9375 298.101562 73.472656 297.984375 72.980469 C 297.871094 72.492188 297.722656 71.996094 297.609375 71.507812 C 297.464844 71.015625 297.375 70.558594 297.222656 70.09375 C 297.070312 69.65625 296.941406 69.222656 296.804688 68.84375 C 296.558594 68.101562 296.324219 67.472656 296.179688 67.152344 C 296.511719 68.207031 296.84375 69.265625 297.117188 70.339844 C 296.789062 69.253906 296.457031 68.171875 296.109375 67.050781 C 296.128906 67.085938 296.125 67.113281 296.148438 67.144531 C 292.710938 56.746094 287.070312 47.058594 279.769531 38.910156 C 276.117188 34.851562 272.082031 31.132812 267.71875 27.941406 C 263.324219 24.738281 258.644531 21.988281 253.753906 19.753906 C 254.777344 20.082031 255.691406 20.515625 256.585938 20.914062 Z M 297.90625 73.585938 C 297.664062 72.660156 297.425781 71.710938 297.191406 70.761719 C 297.429688 71.683594 297.667969 72.632812 297.90625 73.585938 Z M 291.699219 55.566406 C 291.480469 55.148438 291.265625 54.726562 291.019531 54.304688 C 291.265625 54.726562 291.480469 55.148438 291.699219 55.566406 Z M 288.441406 63.171875 C 288.8125 64.203125 289.257812 65.277344 289.601562 66.453125 L 289.191406 65.328125 L 288.75 64.222656 C 288.441406 63.492188 288.136719 62.765625 287.828125 62.03125 C 287.148438 60.621094 286.511719 59.160156 285.738281 57.761719 C 284.289062 54.953125 282.582031 52.273438 280.746094 49.65625 L 279.339844 47.726562 C 279.109375 47.394531 278.835938 47.113281 278.597656 46.804688 L 277.859375 45.882812 L 277.121094 44.957031 C 276.882812 44.648438 276.585938 44.359375 276.320312 44.050781 C 275.785156 43.453125 275.246094 42.859375 274.714844 42.265625 C 274.144531 41.691406 273.605469 41.128906 273.035156 40.554688 C 272.761719 40.273438 272.464844 39.984375 272.191406 39.699219 L 271.316406 38.898438 C 270.710938 38.347656 270.140625 37.804688 269.539062 37.253906 C 268.925781 36.734375 268.292969 36.210938 267.683594 35.6875 L 267.691406 35.660156 C 271.722656 38.910156 276.167969 43.4375 279.648438 48.109375 C 280.070312 48.683594 280.519531 49.289062 280.917969 49.832031 C 281.128906 50.105469 281.339844 50.40625 281.519531 50.703125 C 281.699219 51 281.914062 51.269531 282.09375 51.566406 C 282.460938 52.132812 282.859375 52.675781 283.222656 53.234375 C 283.5625 53.796875 283.902344 54.324219 284.21875 54.851562 C 284.375 55.113281 284.535156 55.378906 284.695312 55.609375 C 284.761719 55.742188 284.851562 55.875 284.921875 55.972656 C 284.984375 56.101562 285.050781 56.234375 285.144531 56.367188 C 285.4375 56.859375 285.695312 57.34375 285.964844 57.804688 C 286.234375 58.261719 286.476562 58.6875 286.726562 59.085938 C 286.945312 59.503906 287.167969 59.863281 287.367188 60.222656 C 287.667969 61.160156 288.078125 62.109375 288.441406 63.171875 Z M 273.207031 145.1875 C 275.949219 142.671875 278.523438 139.949219 280.890625 137.070312 L 282.605469 134.867188 C 282.90625 134.511719 283.152344 134.117188 283.425781 133.726562 L 284.25 132.59375 C 284.523438 132.203125 284.792969 131.839844 285.042969 131.445312 L 285.785156 130.265625 L 286.527344 129.082031 L 286.902344 128.476562 L 287.246094 127.867188 C 287.714844 127.042969 288.15625 126.21875 288.625 125.425781 C 289.039062 124.589844 289.488281 123.738281 289.902344 122.90625 C 290.34375 122.078125 290.707031 121.207031 291.101562 120.34375 C 291.492188 119.480469 291.882812 118.613281 292.1875 117.734375 C 292.035156 118.113281 291.898438 118.527344 291.742188 118.910156 L 291.242188 120.046875 C 290.898438 120.804688 290.613281 121.574219 290.242188 122.328125 C 289.507812 123.796875 288.816406 125.34375 287.96875 126.769531 C 286.414062 129.703125 284.558594 132.5 282.605469 135.1875 C 280.023438 138.613281 277.140625 141.746094 274.078125 144.582031 C 271.019531 147.421875 267.753906 149.902344 264.40625 152.074219 C 267.507812 149.976562 270.445312 147.667969 273.207031 145.1875 Z M 293.734375 83.800781 C 293.789062 84.457031 293.847656 85.105469 293.875 85.757812 C 293.90625 86.40625 293.898438 87.078125 293.925781 87.753906 C 293.972656 89.085938 293.910156 90.417969 293.875 91.726562 C 293.882812 90.382812 293.917969 89.070312 293.839844 87.742188 C 293.8125 87.089844 293.785156 86.417969 293.757812 85.765625 C 293.699219 85.109375 293.644531 84.457031 293.585938 83.800781 C 293.648438 84.28125 293.695312 83.851562 293.734375 83.800781 Z M 291.421875 109.394531 C 291.308594 109.699219 291.164062 110.023438 291.03125 110.410156 C 290.902344 110.796875 290.714844 111.203125 290.574219 111.644531 L 290.816406 110.957031 L 290.9375 110.597656 L 291.035156 110.234375 C 291.152344 109.757812 291.296875 109.285156 291.40625 108.839844 C 291.519531 108.363281 291.667969 107.890625 291.777344 107.445312 C 291.847656 107.21875 291.894531 106.96875 291.9375 106.742188 L 292.089844 106.035156 C 291.945312 107.179688 291.65625 108.269531 291.421875 109.394531 Z M 271.765625 142 C 271.550781 142.222656 271.304688 142.441406 271.089844 142.667969 C 270.875 142.890625 270.605469 143.074219 270.394531 143.273438 C 270.984375 142.765625 271.523438 142.21875 272.089844 141.679688 C 272.371094 141.40625 272.65625 141.136719 272.914062 140.859375 C 273.195312 140.589844 273.476562 140.320312 273.738281 140.015625 L 275.339844 138.285156 L 275.738281 137.863281 L 276.113281 137.402344 C 276.375 137.097656 276.601562 136.816406 276.863281 136.515625 C 276.441406 137.082031 276.117188 137.550781 275.898438 137.800781 C 275.457031 138.304688 274.988281 138.777344 274.519531 139.25 C 274.300781 139.503906 274.085938 139.726562 273.832031 139.972656 C 273.613281 140.226562 273.398438 140.449219 273.152344 140.667969 C 272.6875 141.113281 272.230469 141.554688 271.765625 142 Z M 271.765625 142 " fill-opacity="1" fill-rule="nonzero"/></g></g></g><g clip-path="url(#2d76f43b4f)"><g clip-path="url(#9baf342ba3)"><g clip-path="url(#5d68b8da0d)"><path fill="#b2217a" d="M 254.464844 169.066406 C 247.328125 166.878906 240.621094 163.238281 234.96875 158.363281 C 234.761719 158.242188 234.421875 157.960938 233.996094 157.605469 C 233.792969 157.4375 233.570312 157.234375 233.320312 157.023438 C 233.074219 156.808594 232.835938 156.570312 232.59375 156.328125 C 232.359375 156.089844 232.101562 155.855469 231.855469 155.601562 C 231.613281 155.359375 231.359375 155.128906 231.136719 154.878906 C 230.6875 154.414062 230.25 153.976562 229.929688 153.644531 C 230.453125 154.234375 230.957031 154.8125 231.484375 155.355469 C 232.007812 155.898438 232.550781 156.417969 233.058594 156.921875 C 233.589844 157.421875 234.136719 157.914062 234.65625 158.394531 L 235.058594 158.757812 L 235.472656 159.09375 C 235.746094 159.3125 236.023438 159.539062 236.296875 159.761719 C 237.902344 161.058594 239.589844 162.25 241.417969 163.402344 C 238.621094 161.6875 235.992188 159.703125 233.558594 157.5 C 234.039062 157.933594 234.527344 158.347656 235.007812 158.78125 C 235.515625 159.183594 236.027344 159.601562 236.535156 160 C 237.03125 160.429688 237.59375 160.808594 238.117188 161.203125 C 238.664062 161.582031 239.195312 161.996094 239.765625 162.34375 C 241.988281 163.863281 244.394531 165.1875 246.878906 166.367188 C 251.882812 168.734375 257.375 170.269531 262.957031 170.941406 C 264.984375 171.15625 266.898438 171.445312 269.058594 171.511719 C 269.589844 171.53125 270.148438 171.566406 270.703125 171.550781 C 271.261719 171.535156 271.859375 171.507812 272.476562 171.488281 C 273.101562 171.46875 273.714844 171.386719 274.375 171.304688 C 275.03125 171.226562 275.726562 171.128906 276.445312 170.980469 C 272.800781 171.429688 269.09375 171.496094 265.414062 171.183594 C 261.691406 170.886719 258.027344 170.171875 254.464844 169.066406 Z M 241.800781 163.683594 C 241.984375 163.796875 242.191406 163.921875 242.390625 164.027344 C 242.191406 163.921875 242.011719 163.808594 241.800781 163.683594 Z M 222.476562 142.71875 C 222.636719 143.035156 222.828125 143.363281 222.996094 143.679688 C 222.804688 143.355469 222.621094 143 222.433594 142.675781 C 222.332031 142.5 222.242188 142.34375 222.160156 142.167969 C 222.089844 142.003906 221.988281 141.832031 221.914062 141.671875 C 221.59375 141.011719 221.273438 140.351562 221 139.738281 C 221.324219 140.414062 221.644531 141.074219 221.960938 141.734375 C 222.039062 141.894531 222.121094 142.078125 222.210938 142.230469 C 222.308594 142.402344 222.402344 142.558594 222.476562 142.71875 Z M 284.8125 168.066406 C 291.289062 166.058594 297.472656 162.761719 302.84375 158.253906 C 299.9375 160.71875 296.667969 162.953125 293.175781 164.792969 C 289.683594 166.632812 285.960938 168.007812 282.246094 168.878906 C 283.117188 168.640625 283.960938 168.34375 284.8125 168.066406 Z M 264.664062 169.914062 C 268.054688 170.25 271.535156 170.261719 275.015625 169.890625 C 271.578125 170.261719 268.097656 170.296875 264.695312 169.941406 C 261.285156 169.59375 257.96875 168.898438 254.890625 167.894531 C 257.980469 168.867188 261.269531 169.554688 264.664062 169.914062 Z M 317.648438 111.625 C 316.78125 105.28125 314.675781 98.976562 311.308594 93.109375 C 311.433594 93.292969 311.53125 93.507812 311.636719 93.699219 C 311.746094 93.890625 311.863281 94.097656 311.972656 94.289062 C 312.195312 94.6875 312.417969 95.085938 312.628906 95.511719 C 312.835938 95.917969 313.03125 96.351562 313.246094 96.777344 C 313.34375 96.996094 313.460938 97.203125 313.558594 97.417969 C 313.65625 97.632812 313.769531 97.84375 313.851562 98.070312 C 314.222656 98.945312 314.664062 99.675781 314.871094 100.082031 C 315.6875 102.429688 316.367188 104.796875 316.980469 107.648438 C 317.085938 108.074219 317.300781 109.023438 317.511719 109.878906 C 317.542969 110.433594 317.59375 111.019531 317.648438 111.625 Z M 297.699219 163.273438 C 297.855469 163.179688 298 163.066406 298.15625 162.980469 C 297.785156 163.210938 297.433594 163.453125 297.054688 163.671875 C 297.273438 163.527344 297.492188 163.386719 297.699219 163.273438 Z M 316.066406 143.8125 C 316.054688 143.839844 316.027344 143.875 316.019531 143.898438 C 316.027344 143.875 316.054688 143.839844 316.066406 143.8125 Z M 316.527344 142.953125 C 316.710938 142.589844 316.886719 142.222656 317.082031 141.832031 C 316.902344 142.199219 316.726562 142.582031 316.527344 142.953125 Z M 219.863281 137.753906 C 219.710938 137.363281 219.589844 136.960938 219.449219 136.550781 C 219.304688 136.132812 219.171875 135.695312 219.039062 135.257812 C 218.96875 135.046875 218.886719 134.824219 218.828125 134.59375 C 218.765625 134.355469 218.710938 134.144531 218.648438 133.910156 C 218.527344 133.445312 218.402344 132.984375 218.261719 132.523438 L 218.167969 132.171875 C 218.140625 132.058594 218.105469 131.941406 218.09375 131.816406 C 218.050781 131.574219 217.988281 131.34375 217.945312 131.101562 C 217.839844 130.628906 217.726562 130.136719 217.621094 129.664062 C 217.53125 129.179688 217.449219 128.699219 217.351562 128.199219 C 217.265625 127.714844 217.175781 127.234375 217.105469 126.742188 C 217.046875 126.273438 217.003906 125.792969 216.941406 125.320312 C 216.882812 124.847656 216.828125 124.398438 216.792969 123.933594 C 216.761719 123.46875 216.730469 123.027344 216.710938 122.597656 C 216.695312 122.175781 216.652344 121.742188 216.667969 121.34375 C 216.664062 120.515625 216.644531 119.765625 216.683594 119.074219 C 216.75 119.695312 216.820312 120.335938 216.890625 120.976562 C 216.910156 120.6875 216.929688 120.199219 216.925781 119.613281 C 216.925781 119.464844 216.921875 119.3125 216.9375 119.152344 C 216.953125 118.996094 216.941406 118.824219 216.957031 118.664062 C 216.980469 118.332031 216.992188 117.976562 217 117.605469 C 217.011719 117.25 217.019531 116.878906 217.039062 116.5 C 217.074219 116.140625 217.105469 115.777344 217.136719 115.414062 C 217.191406 114.714844 217.246094 114.0625 217.328125 113.523438 C 217.328125 113.765625 217.300781 113.992188 217.289062 114.261719 C 217.273438 114.503906 217.261719 114.773438 217.246094 115.019531 C 217.214844 115.535156 217.148438 116.0625 217.109375 116.597656 C 217.214844 115.535156 217.214844 115.535156 217.308594 114.488281 C 217.277344 115.480469 217.179688 116.613281 217.195312 117.800781 C 217.199219 118.101562 217.1875 118.410156 217.195312 118.710938 C 217.195312 118.859375 217.199219 119.015625 217.183594 119.175781 C 217.1875 119.324219 217.199219 119.492188 217.203125 119.640625 C 217.21875 120.265625 217.25 120.902344 217.277344 121.542969 C 217.453125 124.089844 217.796875 126.734375 218.273438 129.042969 C 218.316406 129.324219 218.402344 129.613281 218.464844 129.890625 C 218.519531 130.167969 218.601562 130.4375 218.660156 130.714844 C 218.738281 130.980469 218.789062 131.242188 218.859375 131.492188 C 218.929688 131.742188 218.972656 131.984375 219.0625 132.226562 C 219.351562 133.160156 219.59375 133.984375 219.828125 134.640625 C 220.316406 135.917969 220.621094 136.542969 220.617188 136.152344 C 220.585938 135.363281 219.324219 131.652344 218.550781 126.769531 C 218.1875 124.324219 217.941406 121.570312 217.914062 118.820312 C 217.925781 118.121094 217.925781 117.445312 217.9375 116.746094 C 217.972656 116.058594 218.015625 115.386719 218.0625 114.714844 C 218.070312 114.539062 218.082031 114.378906 218.089844 114.203125 C 218.105469 114.046875 218.132812 113.859375 218.148438 113.699219 C 218.183594 113.355469 218.214844 113.035156 218.265625 112.710938 C 218.292969 112.394531 218.34375 112.070312 218.375 111.75 C 218.417969 111.425781 218.476562 111.117188 218.535156 110.808594 C 218.503906 111.082031 218.46875 111.335938 218.441406 111.613281 C 218.410156 111.886719 218.402344 112.148438 218.375 112.421875 C 218.335938 112.964844 218.300781 113.519531 218.253906 114.085938 C 218.222656 114.644531 218.21875 115.207031 218.195312 115.78125 C 218.191406 116.066406 218.171875 116.359375 218.171875 116.640625 C 218.167969 116.925781 218.167969 117.210938 218.171875 117.511719 C 218.175781 118.097656 218.1875 118.652344 218.191406 119.238281 C 218.210938 119.816406 218.261719 120.402344 218.28125 120.980469 C 218.304688 121.273438 218.304688 121.558594 218.332031 121.851562 C 218.351562 122.144531 218.375 122.4375 218.417969 122.722656 L 218.507812 123.589844 C 218.535156 123.886719 218.554688 124.179688 218.597656 124.464844 L 218.847656 126.21875 L 218.910156 126.648438 L 218.996094 127.085938 L 219.167969 127.941406 C 219.371094 129.109375 219.679688 130.234375 219.953125 131.367188 C 220.589844 133.597656 221.296875 135.78125 222.207031 137.796875 C 222.03125 137.3125 221.871094 136.867188 221.730469 136.453125 C 221.605469 136.027344 221.476562 135.609375 221.363281 135.164062 C 221.304688 134.929688 221.230469 134.722656 221.160156 134.472656 C 221.09375 134.21875 221.003906 133.980469 220.945312 133.703125 C 220.808594 133.152344 220.636719 132.535156 220.425781 131.828125 C 220.34375 131.605469 220.296875 131.363281 220.246094 131.148438 L 220.085938 130.460938 L 219.769531 129.082031 L 219.515625 127.699219 L 219.390625 126.996094 C 219.347656 126.753906 219.316406 126.53125 219.277344 126.308594 C 219.023438 124.445312 218.804688 122.566406 218.738281 120.6875 C 218.542969 116.933594 218.65625 113.53125 219.398438 110.222656 C 219.449219 109.898438 219.496094 109.570312 219.570312 109.253906 C 219.683594 108.59375 219.753906 107.976562 219.867188 107.316406 C 219.890625 107.132812 219.945312 106.957031 219.984375 106.808594 C 220.019531 106.644531 220.078125 106.484375 220.105469 106.34375 C 220.183594 106.046875 220.257812 105.773438 220.339844 105.519531 C 220.421875 105.265625 220.480469 105.019531 220.535156 104.800781 C 220.609375 104.574219 220.675781 104.34375 220.753906 104.136719 C 220.898438 103.683594 221.039062 103.226562 221.207031 102.671875 C 221.273438 102.402344 221.386719 102.117188 221.496094 101.78125 C 221.609375 101.449219 221.710938 101.097656 221.839844 100.710938 C 221.875 100.695312 221.859375 100.816406 221.820312 101.003906 C 221.882812 100.761719 221.984375 100.496094 222.082031 100.191406 C 222.191406 99.902344 222.316406 99.605469 222.433594 99.292969 C 222.554688 98.980469 222.683594 98.683594 222.800781 98.371094 C 222.859375 98.210938 222.910156 98.082031 222.96875 97.921875 C 223.035156 97.785156 223.078125 97.636719 223.125 97.503906 C 223.199219 97.472656 223.273438 97.4375 223.402344 97.25 C 226.425781 90.714844 230.851562 84.742188 236.488281 80.003906 C 236.917969 79.65625 237.324219 79.296875 237.75 78.953125 C 238.191406 78.628906 238.609375 78.304688 239.050781 77.976562 C 239.261719 77.816406 239.488281 77.648438 239.699219 77.488281 C 239.914062 77.347656 240.144531 77.179688 240.363281 77.039062 C 240.808594 76.726562 241.246094 76.441406 241.691406 76.132812 C 242.082031 75.890625 242.472656 75.648438 242.863281 75.40625 C 243.253906 75.167969 243.636719 74.90625 244.050781 74.675781 C 244.46875 74.441406 244.871094 74.21875 245.292969 74.007812 C 245.710938 73.773438 246.125 73.542969 246.5625 73.347656 C 246.984375 73.132812 247.382812 72.910156 247.730469 72.714844 C 248.074219 72.515625 248.335938 72.328125 248.554688 72.230469 C 249.128906 72.015625 249.714844 71.769531 250.308594 71.546875 C 250.453125 71.480469 250.605469 71.433594 250.75 71.367188 C 250.902344 71.324219 251.054688 71.273438 251.207031 71.230469 C 251.511719 71.132812 251.808594 71.023438 252.128906 70.921875 C 252.433594 70.828125 252.75 70.703125 253.074219 70.601562 C 253.398438 70.5 253.710938 70.421875 254.0625 70.332031 C 254.390625 70.246094 254.710938 70.144531 255.0625 70.050781 C 255.234375 69.996094 255.402344 69.941406 255.582031 69.902344 C 255.761719 69.867188 255.941406 69.828125 256.109375 69.773438 C 256.320312 69.703125 256.664062 69.609375 257.070312 69.492188 C 257.453125 69.382812 257.914062 69.238281 258.359375 69.125 C 258.902344 69.078125 259.472656 68.992188 260.089844 68.910156 C 260.300781 68.859375 260.550781 68.832031 260.773438 68.796875 L 261.453125 68.707031 C 261.894531 68.636719 262.351562 68.585938 262.8125 68.503906 C 263.277344 68.472656 263.730469 68.417969 264.175781 68.390625 L 264.859375 68.320312 L 265.199219 68.296875 L 265.535156 68.277344 C 267.355469 68.171875 269.164062 68.136719 270.976562 68.25 L 270.96875 68.234375 C 271.410156 68.25 271.878906 68.28125 272.347656 68.304688 C 272.816406 68.332031 273.300781 68.398438 273.777344 68.441406 C 274.746094 68.523438 275.742188 68.707031 276.765625 68.855469 C 277.277344 68.925781 277.765625 69.054688 278.285156 69.140625 L 279.050781 69.296875 C 279.316406 69.355469 279.550781 69.398438 279.800781 69.460938 C 280.789062 69.726562 281.796875 69.949219 282.769531 70.269531 C 283.253906 70.417969 283.722656 70.554688 284.203125 70.703125 C 284.667969 70.867188 285.132812 71.027344 285.574219 71.195312 C 286.242188 71.417969 286.875 71.671875 287.484375 71.917969 L 288.484375 72.335938 C 288.828125 72.484375 289.148438 72.664062 289.5 72.8125 L 291.011719 73.5625 L 291.503906 73.839844 C 291.324219 73.683594 291.292969 73.609375 291.285156 73.546875 C 291.15625 73.5 291.03125 73.421875 290.894531 73.351562 C 290.757812 73.289062 290.617188 73.21875 290.460938 73.160156 C 290.214844 73.050781 289.964844 72.929688 289.71875 72.820312 C 290.632812 73.210938 291.449219 73.5625 292.105469 73.871094 C 292.398438 74.042969 292.703125 74.230469 293.003906 74.421875 C 293.320312 74.628906 293.628906 74.835938 293.9375 75.042969 C 294.25 75.25 294.585938 75.46875 294.925781 75.683594 C 295.242188 75.910156 295.589844 76.140625 295.933594 76.378906 C 297.671875 77.484375 299.292969 78.769531 300.878906 80.074219 L 302.046875 81.113281 L 302.628906 81.632812 L 303.183594 82.1875 C 303.539062 82.542969 303.921875 82.914062 304.28125 83.277344 C 304.644531 83.652344 304.976562 84.046875 305.339844 84.421875 C 305.601562 84.65625 305.441406 84.402344 305.464844 84.351562 C 306.667969 85.714844 307.769531 87.195312 308.84375 88.710938 C 310.792969 91.390625 312.476562 94.304688 313.863281 97.371094 C 314.058594 97.714844 314.222656 98.074219 314.386719 98.433594 C 314.550781 98.796875 314.730469 99.148438 314.890625 99.507812 C 314.945312 99.722656 315.035156 99.96875 315.109375 100.238281 C 315.1875 100.503906 315.273438 100.789062 315.378906 101.117188 L 315.695312 102.015625 C 315.8125 102.3125 315.921875 102.609375 315.988281 102.902344 C 316.175781 103.511719 316.339844 104.113281 316.53125 104.722656 C 316.601562 104.925781 316.652344 105.140625 316.699219 105.382812 C 316.757812 105.617188 316.820312 105.851562 316.863281 106.089844 C 316.933594 106.34375 316.984375 106.601562 317.054688 106.851562 C 317.132812 107.117188 317.195312 107.394531 317.253906 107.675781 C 317.363281 108.253906 317.480469 108.851562 317.609375 109.46875 C 317.6875 109.78125 317.726562 110.113281 317.765625 110.441406 C 317.804688 110.769531 317.871094 111.109375 317.921875 111.457031 C 318.316406 114.210938 318.511719 117.378906 318.382812 120.609375 C 318.40625 121.097656 318.410156 121.488281 318.402344 121.707031 C 318.375 122.179688 318.320312 122.636719 318.285156 123.085938 C 318.230469 123.546875 318.214844 123.988281 318.132812 124.4375 C 318.070312 124.875 318.011719 125.320312 317.949219 125.757812 C 317.886719 126.199219 317.816406 126.621094 317.730469 127.050781 C 317.660156 127.429688 317.585938 127.792969 317.527344 128.140625 C 317.449219 128.503906 317.402344 128.875 317.316406 129.214844 C 317.136719 129.929688 316.976562 130.628906 316.828125 131.308594 C 316.632812 131.976562 316.4375 132.652344 316.269531 133.296875 C 316.234375 133.460938 316.175781 133.617188 316.117188 133.777344 C 316.058594 133.933594 316.015625 134.082031 315.957031 134.238281 C 315.855469 134.542969 315.753906 134.847656 315.65625 135.160156 C 315.472656 135.761719 315.230469 136.324219 315.019531 136.878906 C 314.921875 137.140625 314.800781 137.40625 314.703125 137.671875 C 314.65625 137.800781 314.605469 137.933594 314.558594 138.0625 C 314.503906 138.195312 314.449219 138.304688 314.390625 138.421875 C 313.957031 139.378906 313.609375 140.25 313.25 140.9375 C 312.839844 141.773438 312.910156 141.785156 313.230469 141.332031 C 313.390625 141.109375 313.605469 140.777344 313.878906 140.367188 C 314.125 139.953125 314.402344 139.457031 314.671875 138.945312 C 314.8125 138.683594 314.957031 138.425781 315.101562 138.164062 C 315.238281 137.886719 315.363281 137.636719 315.484375 137.382812 C 315.730469 136.863281 315.984375 136.375 316.1875 135.960938 C 316.566406 135.113281 316.828125 134.585938 316.796875 134.796875 C 316.410156 136.921875 315.421875 139.738281 313.660156 143.054688 C 312.753906 144.699219 311.714844 146.492188 310.394531 148.328125 C 309.769531 149.261719 309.019531 150.1875 308.285156 151.167969 C 307.496094 152.109375 306.703125 153.097656 305.796875 154.074219 C 304.808594 155.152344 305.1875 154.789062 305.835938 154.164062 C 306.15625 153.847656 306.550781 153.472656 306.871094 153.175781 C 307.183594 152.863281 307.40625 152.632812 307.445312 152.617188 C 307.308594 152.804688 307.160156 153 307.007812 153.246094 C 306.851562 153.46875 306.648438 153.691406 306.453125 153.933594 C 305.785156 154.625 305.144531 155.324219 304.4375 155.972656 L 303.832031 156.546875 C 303.636719 156.742188 303.425781 156.945312 303.214844 157.109375 L 301.949219 158.199219 C 302.167969 158.015625 302.410156 157.820312 302.628906 157.632812 C 303.976562 156.484375 305.226562 155.265625 306.304688 154.082031 C 306.132812 154.292969 305.953125 154.507812 305.765625 154.71875 C 305.523438 155.003906 305.28125 155.285156 305.011719 155.558594 C 304.746094 155.832031 304.46875 156.128906 304.199219 156.402344 L 303.785156 156.828125 L 303.582031 157.050781 L 303.367188 157.257812 C 302.792969 157.800781 302.230469 158.339844 301.714844 158.832031 C 304.796875 156.375 307.589844 153.566406 310.035156 150.46875 L 310.492188 149.890625 C 310.640625 149.695312 310.792969 149.496094 310.941406 149.296875 L 311.8125 148.101562 C 312.109375 147.707031 312.359375 147.292969 312.621094 146.863281 L 313.238281 145.632812 L 313.980469 144.34375 C 314.21875 143.90625 314.484375 143.484375 314.695312 143.039062 C 315.148438 142.164062 315.625 141.296875 316.015625 140.382812 L 316.628906 139.042969 L 317.175781 137.664062 C 317.566406 136.75 317.859375 135.8125 318.183594 134.886719 C 318.25 134.660156 318.339844 134.421875 318.414062 134.195312 L 318.617188 133.496094 L 319.035156 132.066406 C 319.171875 131.589844 319.28125 131.113281 319.386719 130.628906 L 319.558594 129.898438 C 319.621094 129.652344 319.667969 129.414062 319.710938 129.175781 C 320.5 125.300781 320.871094 121.355469 320.777344 117.402344 C 320.835938 120.371094 320.578125 123.3125 320.109375 126.175781 C 319.636719 129.015625 318.933594 131.785156 318.03125 134.410156 C 318.820312 131.96875 319.441406 129.453125 319.886719 126.925781 C 320.304688 124.386719 320.550781 121.800781 320.617188 119.210938 L 320.628906 117.269531 C 320.632812 116.941406 320.621094 116.625 320.605469 116.300781 L 320.558594 115.328125 C 320.546875 115.007812 320.527344 114.6875 320.507812 114.351562 L 320.414062 113.371094 L 320.320312 112.394531 L 320.277344 111.914062 L 320.207031 111.421875 C 320.109375 110.769531 320.019531 110.140625 319.917969 109.488281 C 319.804688 108.847656 319.671875 108.210938 319.550781 107.570312 C 319.496094 107.25 319.4375 106.925781 319.363281 106.613281 L 319.125 105.660156 L 318.886719 104.699219 C 318.839844 104.546875 318.8125 104.386719 318.761719 104.234375 L 318.613281 103.757812 L 317.996094 101.757812 L 317.28125 99.796875 L 317.109375 99.3125 C 317.03125 99.152344 316.957031 98.988281 316.914062 98.835938 L 316.507812 97.890625 L 316.089844 96.925781 C 315.945312 96.601562 315.789062 96.304688 315.644531 95.976562 L 315.175781 95.039062 C 315.007812 94.722656 314.871094 94.414062 314.707031 94.09375 L 313.707031 92.269531 C 313.613281 92.113281 313.53125 91.976562 313.445312 91.820312 L 313.175781 91.378906 L 312.625 90.496094 L 312.363281 90.050781 L 312.21875 89.832031 L 312.078125 89.617188 L 311.492188 88.75 C 308.367188 84.148438 304.46875 80.128906 300.109375 76.730469 C 300.488281 76.992188 300.914062 77.300781 301.332031 77.609375 C 301.761719 77.941406 302.210938 78.257812 302.648438 78.648438 C 302.464844 78.488281 302.285156 78.332031 302.089844 78.183594 L 301.515625 77.722656 L 300.363281 76.8125 C 299.984375 76.503906 299.578125 76.230469 299.191406 75.953125 C 298.804688 75.671875 298.410156 75.371094 298.003906 75.097656 L 296.777344 74.304688 C 296.367188 74.03125 295.964844 73.757812 295.539062 73.539062 C 294.6875 73.050781 293.867188 72.53125 293 72.097656 C 292.472656 71.839844 291.941406 71.578125 291.390625 71.328125 L 289.773438 70.625 C 290.167969 70.773438 291.105469 71.171875 291.777344 71.457031 C 286.378906 68.789062 280.566406 67.027344 274.65625 66.308594 C 268.761719 65.558594 262.800781 65.925781 257.167969 67.164062 C 258.070312 66.953125 258.523438 66.839844 258.925781 66.722656 C 258.628906 66.792969 258.308594 66.847656 258.015625 66.917969 C 257.71875 66.984375 257.394531 67.042969 257.082031 67.117188 C 256.269531 67.332031 255.445312 67.53125 254.640625 67.769531 C 253.839844 68.019531 253.039062 68.269531 252.261719 68.511719 C 253.03125 68.25 253.832031 68 254.628906 67.746094 C 255.4375 67.515625 256.261719 67.316406 257.058594 67.109375 C 257.378906 67.007812 257.726562 66.957031 258.058594 66.871094 C 258.398438 66.808594 258.730469 66.722656 259.066406 66.65625 C 259.257812 66.59375 259.472656 66.539062 259.730469 66.488281 C 259.992188 66.4375 260.320312 66.398438 260.757812 66.351562 C 263.867188 65.835938 266.824219 65.652344 268.992188 65.738281 C 270.039062 65.742188 271.0625 65.84375 272.070312 65.914062 C 272.582031 65.941406 273.09375 66.015625 273.589844 66.050781 C 274.09375 66.109375 274.59375 66.160156 275.097656 66.21875 C 275.589844 66.300781 276.082031 66.382812 276.585938 66.4375 C 277.078125 66.519531 277.5625 66.582031 278.046875 66.691406 C 279.023438 66.878906 279.988281 67.046875 280.929688 67.300781 C 284.710938 68.21875 288.265625 69.5 291.46875 71.160156 C 292.953125 71.945312 292.542969 71.804688 291.769531 71.441406 C 292.167969 71.648438 292.59375 71.871094 292.992188 72.082031 L 293.914062 72.535156 L 294.816406 73.039062 C 295.40625 73.378906 296.023438 73.691406 296.609375 74.074219 C 297.1875 74.445312 297.785156 74.804688 298.355469 75.199219 C 298.921875 75.59375 299.480469 76.015625 300.050781 76.410156 C 302.539062 78.304688 304.835938 80.417969 306.90625 82.695312 C 307.113281 82.90625 307.328125 83.136719 307.53125 83.347656 C 307.734375 83.5625 307.929688 83.800781 308.125 84.035156 C 307.921875 83.824219 307.742188 83.582031 307.53125 83.347656 C 312.742188 89.316406 316.515625 96.363281 318.648438 103.789062 C 318.828125 104.332031 318.949219 104.890625 319.097656 105.449219 L 319.320312 106.285156 C 319.398438 106.554688 319.46875 106.851562 319.527344 107.125 C 319.757812 108.261719 320.019531 109.378906 320.171875 110.527344 C 320.554688 112.808594 320.722656 115.117188 320.804688 117.410156 L 320.800781 117.019531 L 320.78125 116.640625 L 320.75 115.847656 C 320.726562 115.3125 320.710938 114.800781 320.664062 114.261719 C 320.621094 113.734375 320.554688 113.199219 320.511719 112.675781 L 320.433594 111.886719 L 320.316406 111.09375 L 320.085938 109.523438 C 320 108.996094 319.882812 108.484375 319.796875 107.960938 L 319.636719 107.183594 L 319.566406 106.78125 L 319.476562 106.390625 L 319.085938 104.847656 C 318.960938 104.339844 318.816406 103.820312 318.648438 103.308594 L 318.199219 101.773438 C 318.011719 101.269531 317.835938 100.785156 317.667969 100.273438 C 317.488281 99.773438 317.328125 99.277344 317.109375 98.789062 C 316.910156 98.296875 316.714844 97.816406 316.511719 97.324219 C 316.40625 97.089844 316.3125 96.828125 316.207031 96.59375 L 315.859375 95.878906 C 315.640625 95.394531 315.40625 94.933594 315.1875 94.445312 C 314.953125 93.964844 314.703125 93.515625 314.457031 93.058594 C 317.289062 97.886719 319.445312 103.730469 320.5 109.855469 C 319.878906 105.882812 318.738281 101.964844 317.195312 98.207031 C 317.050781 97.839844 316.914062 97.488281 316.757812 97.144531 C 316.675781 96.96875 316.621094 96.796875 316.539062 96.617188 C 316.457031 96.433594 316.382812 96.269531 316.304688 96.09375 C 315.992188 95.40625 315.664062 94.730469 315.371094 94.078125 C 315.042969 93.445312 314.71875 92.832031 314.445312 92.261719 C 314.164062 91.691406 313.847656 91.183594 313.609375 90.703125 C 315.65625 94.128906 317.023438 97.15625 318.164062 100.074219 C 315.832031 93.65625 312.257812 87.558594 307.527344 82.332031 C 307.296875 82.0625 307.058594 81.824219 306.832031 81.558594 C 306.710938 81.4375 306.601562 81.292969 306.480469 81.171875 C 306.363281 81.050781 306.246094 80.933594 306.121094 80.8125 C 306.246094 80.933594 306.363281 81.050781 306.480469 81.171875 L 306.832031 81.558594 C 307.050781 81.808594 307.296875 82.0625 307.515625 82.3125 C 310.109375 85.164062 312.5 88.339844 314.488281 91.785156 C 316.476562 95.230469 318.050781 98.90625 319.113281 102.601562 L 318.890625 101.960938 C 318.816406 101.753906 318.738281 101.53125 318.664062 101.324219 C 318.496094 100.898438 318.328125 100.476562 318.179688 100.046875 C 318.722656 101.492188 319.148438 102.972656 319.578125 104.449219 C 319.765625 105.195312 319.945312 105.9375 320.128906 106.679688 C 320.277344 107.441406 320.414062 108.179688 320.582031 108.933594 C 321.117188 111.945312 321.386719 114.996094 321.40625 118.027344 C 321.433594 121.058594 321.1875 124.078125 320.6875 127.066406 C 320.179688 130.03125 319.417969 132.957031 318.445312 135.808594 C 318.605469 135.433594 318.75 135.039062 318.898438 134.644531 C 319.046875 134.253906 319.179688 133.824219 319.3125 133.398438 C 319.441406 132.964844 319.59375 132.53125 319.71875 132.082031 C 319.832031 131.621094 319.960938 131.171875 320.066406 130.6875 C 320.539062 128.800781 320.878906 126.757812 321.136719 124.6875 C 321.601562 120.523438 321.542969 116.210938 321.246094 112.519531 C 322.050781 119.0625 321.566406 125.929688 319.734375 132.511719 C 317.933594 139.101562 314.789062 145.40625 310.558594 150.859375 C 306.339844 156.328125 301.019531 160.90625 295.117188 164.285156 C 292.171875 165.984375 289.085938 167.375 285.925781 168.503906 C 282.769531 169.601562 279.523438 170.394531 276.285156 170.878906 L 278.011719 170.617188 C 278.585938 170.53125 279.15625 170.40625 279.738281 170.296875 C 280.890625 170.101562 282.007812 169.792969 283.144531 169.519531 C 285.382812 168.898438 287.601562 168.175781 289.746094 167.253906 C 291.914062 166.382812 293.996094 165.3125 296.042969 164.171875 C 296.542969 163.882812 297.050781 163.5625 297.546875 163.273438 C 297.804688 163.113281 298.066406 162.976562 298.292969 162.808594 L 299.03125 162.320312 C 299.511719 161.996094 300.023438 161.675781 300.496094 161.335938 C 300.972656 160.988281 301.4375 160.628906 301.914062 160.28125 C 301.554688 160.550781 301.179688 160.832031 300.804688 161.109375 C 300.617188 161.257812 300.441406 161.402344 300.242188 161.535156 C 300.042969 161.667969 299.851562 161.824219 299.648438 161.957031 C 299.238281 162.25 298.839844 162.519531 298.425781 162.8125 C 298.382812 162.851562 298.308594 162.886719 298.265625 162.929688 C 300.589844 161.402344 302.757812 159.75 304.789062 157.898438 C 305.371094 157.355469 305.949219 156.808594 306.527344 156.261719 C 307.027344 155.734375 307.535156 155.222656 308.035156 154.695312 C 306.285156 156.59375 304.433594 158.363281 302.429688 159.984375 C 299.121094 162.667969 295.507812 164.957031 291.71875 166.816406 C 291.160156 167.113281 290.628906 167.332031 290.140625 167.550781 C 289.675781 167.765625 289.238281 167.960938 288.878906 168.125 C 288.132812 168.4375 287.5625 168.671875 287.183594 168.84375 C 286.410156 169.195312 286.328125 169.300781 286.65625 169.257812 C 286.984375 169.21875 287.753906 169 288.667969 168.71875 C 289.125 168.574219 289.621094 168.371094 290.117188 168.171875 C 290.613281 167.96875 291.132812 167.777344 291.59375 167.546875 C 292.769531 166.972656 293.960938 166.4375 295.097656 165.773438 C 295.375 165.621094 295.664062 165.449219 295.945312 165.300781 C 296.082031 165.214844 296.226562 165.152344 296.359375 165.070312 L 296.773438 164.820312 C 297.316406 164.488281 297.878906 164.144531 298.421875 163.8125 C 298.960938 163.460938 299.488281 163.09375 300.015625 162.722656 C 300.28125 162.539062 300.546875 162.355469 300.8125 162.167969 C 301.074219 161.988281 301.3125 161.792969 301.566406 161.585938 C 302.070312 161.210938 302.59375 160.824219 303.085938 160.425781 C 303.574219 160.007812 304.0625 159.613281 304.53125 159.207031 C 306.429688 157.542969 308.246094 155.792969 309.863281 153.886719 L 310.488281 153.195312 C 310.683594 152.957031 310.878906 152.71875 311.074219 152.476562 C 311.460938 151.992188 311.851562 151.511719 312.234375 151.015625 C 312.953125 149.996094 313.707031 149.027344 314.359375 147.96875 C 319.757812 139.714844 322.792969 130.085938 322.992188 120.242188 C 322.996094 119.960938 323.019531 119.667969 323.015625 119.367188 L 322.992188 118.507812 C 322.972656 117.929688 322.96875 117.34375 322.945312 116.765625 C 322.90625 116.199219 322.859375 115.609375 322.820312 115.046875 C 322.792969 114.75 322.78125 114.476562 322.757812 114.183594 L 322.648438 113.316406 L 322.453125 111.585938 L 322.109375 109.914062 L 321.964844 109.066406 L 321.777344 108.21875 L 321.417969 106.507812 C 320.339844 102.003906 318.6875 97.621094 316.546875 93.503906 C 315.921875 92.355469 315.269531 91.0625 314.488281 89.808594 C 314.304688 89.5 314.113281 89.175781 313.902344 88.855469 C 313.695312 88.539062 313.496094 88.238281 313.292969 87.9375 C 313.09375 87.636719 312.882812 87.320312 312.667969 87.027344 C 312.558594 86.878906 312.464844 86.726562 312.355469 86.578125 C 312.246094 86.433594 312.136719 86.285156 312.027344 86.140625 C 311.597656 85.574219 311.171875 85.007812 310.769531 84.472656 C 310.339844 83.949219 309.925781 83.464844 309.546875 83.003906 C 309.351562 82.769531 309.164062 82.542969 308.984375 82.34375 C 308.789062 82.148438 308.613281 81.949219 308.445312 81.761719 C 308.101562 81.398438 307.785156 81.085938 307.527344 80.789062 C 304.648438 77.9375 301.40625 75.410156 297.875 73.222656 C 296.109375 72.109375 294.269531 71.15625 292.375 70.234375 C 291.902344 70.007812 291.398438 69.800781 290.929688 69.582031 C 290.441406 69.367188 289.972656 69.140625 289.453125 68.964844 C 288.460938 68.589844 287.476562 68.1875 286.460938 67.863281 C 285.953125 67.703125 285.457031 67.511719 284.933594 67.359375 C 284.410156 67.222656 283.886719 67.066406 283.386719 66.925781 C 283.132812 66.84375 282.863281 66.769531 282.617188 66.710938 L 281.816406 66.527344 C 281.285156 66.402344 280.773438 66.285156 280.238281 66.152344 C 278.097656 65.75 275.957031 65.375 273.742188 65.242188 C 272.648438 65.128906 271.535156 65.113281 270.429688 65.066406 C 270.164062 65.054688 269.878906 65.054688 269.59375 65.050781 L 267.910156 65.074219 L 267.496094 65.066406 L 267.070312 65.082031 C 266.519531 65.117188 265.949219 65.15625 265.402344 65.1875 L 264.972656 65.207031 C 264.832031 65.226562 264.707031 65.238281 264.554688 65.242188 L 263.707031 65.34375 L 262.863281 65.441406 C 262.570312 65.464844 262.304688 65.5 262.019531 65.542969 C 261.449219 65.625 260.90625 65.71875 260.332031 65.804688 C 256.324219 66.441406 252.316406 67.621094 248.476562 69.269531 C 248.003906 69.480469 247.5 69.664062 247.042969 69.894531 C 246.582031 70.121094 246.101562 70.363281 245.632812 70.574219 L 244.917969 70.914062 C 244.6875 71.023438 244.464844 71.164062 244.222656 71.296875 C 243.769531 71.546875 243.300781 71.800781 242.835938 72.074219 L 242.488281 72.273438 C 242.371094 72.347656 242.273438 72.417969 242.15625 72.488281 L 241.472656 72.910156 C 241.039062 73.195312 240.574219 73.464844 240.140625 73.75 L 238.832031 74.664062 L 238.1875 75.109375 C 237.972656 75.25 237.769531 75.425781 237.554688 75.589844 L 236.304688 76.566406 L 235.984375 76.816406 L 235.6875 77.082031 L 235.078125 77.597656 C 234.671875 77.957031 234.253906 78.273438 233.875 78.640625 L 232.714844 79.730469 L 232.132812 80.273438 L 231.589844 80.84375 L 230.5 81.992188 C 230.136719 82.394531 229.796875 82.785156 229.449219 83.179688 C 229.109375 83.574219 228.746094 83.976562 228.4375 84.398438 C 227.792969 85.234375 227.125 86.054688 226.511719 86.917969 C 226.210938 87.359375 225.894531 87.761719 225.601562 88.21875 C 225.316406 88.652344 225.023438 89.109375 224.746094 89.539062 L 224.328125 90.207031 L 223.9375 90.882812 C 223.664062 91.332031 223.414062 91.792969 223.15625 92.234375 C 222.910156 92.695312 222.671875 93.171875 222.4375 93.625 C 222.214844 94.09375 221.941406 94.542969 221.746094 95.023438 C 219.972656 98.796875 218.632812 102.707031 217.75 106.667969 C 216.886719 110.621094 216.488281 114.597656 216.476562 118.46875 C 216.46875 122.34375 216.875 126.132812 217.617188 129.707031 C 218.347656 133.289062 219.398438 136.679688 220.648438 139.828125 C 220.40625 139.242188 220.148438 138.535156 219.863281 137.753906 Z M 321.964844 110.414062 C 322.089844 111.070312 322.199219 111.699219 322.261719 112.320312 C 322.328125 112.941406 322.375 113.527344 322.433594 114.089844 C 322.472656 114.660156 322.46875 115.226562 322.488281 115.757812 C 322.539062 117.929688 322.363281 119.851562 322.257812 121.921875 C 322.074219 124.742188 321.695312 127.566406 321.074219 130.324219 C 320.902344 131.007812 320.734375 131.6875 320.59375 132.382812 C 320.398438 133.058594 320.203125 133.734375 320.007812 134.40625 C 319.921875 134.75 319.8125 135.082031 319.675781 135.40625 L 319.34375 136.402344 C 319.234375 136.734375 319.121094 137.066406 318.988281 137.386719 C 318.847656 137.710938 318.730469 138.027344 318.601562 138.367188 C 318.347656 139.003906 318.101562 139.65625 317.800781 140.292969 C 317.519531 140.917969 317.234375 141.542969 316.9375 142.183594 C 316.628906 142.796875 316.3125 143.394531 316.007812 144.011719 C 315.859375 144.316406 315.671875 144.617188 315.519531 144.90625 C 315.347656 145.199219 315.175781 145.496094 315.003906 145.789062 C 314.835938 146.082031 314.679688 146.371094 314.488281 146.671875 C 314.308594 146.949219 314.140625 147.246094 313.945312 147.53125 C 313.566406 148.089844 313.246094 148.671875 312.851562 149.195312 C 312.464844 149.738281 312.082031 150.28125 311.707031 150.796875 C 311.304688 151.304688 310.894531 151.839844 310.492188 152.347656 C 312.605469 149.71875 314.464844 146.90625 316.035156 143.9375 C 314.972656 145.914062 313.828125 147.710938 312.601562 149.460938 C 312.386719 149.753906 312.171875 150.042969 311.972656 150.328125 L 311.652344 150.78125 L 311.316406 151.191406 C 310.851562 151.75 310.414062 152.3125 309.9375 152.898438 C 309.445312 153.449219 308.9375 154.003906 308.4375 154.574219 C 307.929688 155.132812 307.367188 155.667969 306.8125 156.222656 C 307.128906 155.863281 307.535156 155.417969 307.988281 154.929688 C 308.230469 154.695312 308.433594 154.425781 308.664062 154.167969 C 308.894531 153.914062 309.121094 153.640625 309.351562 153.378906 C 309.574219 153.109375 309.800781 152.875 310.003906 152.609375 C 310.191406 152.351562 310.386719 152.109375 310.546875 151.886719 C 310.875 151.457031 311.136719 151.078125 311.257812 150.871094 C 310.792969 151.472656 310.324219 152.074219 309.824219 152.648438 C 310.308594 152.039062 310.796875 151.425781 311.289062 150.792969 C 311.28125 150.816406 311.257812 150.824219 311.25 150.851562 C 315.792969 144.847656 319.074219 137.871094 320.832031 130.558594 C 321.703125 126.910156 322.234375 123.171875 322.335938 119.453125 C 322.429688 115.722656 322.160156 111.996094 321.515625 108.355469 C 321.730469 109.0625 321.84375 109.75 321.964844 110.414062 Z M 308.292969 154.359375 C 308.722656 153.859375 309.167969 153.355469 309.613281 152.851562 C 309.183594 153.347656 308.742188 153.851562 308.292969 154.359375 Z M 316.066406 143.8125 C 316.21875 143.523438 316.371094 143.242188 316.519531 142.933594 C 316.371094 143.242188 316.21875 143.523438 316.066406 143.8125 Z M 310.492188 144.941406 C 310.050781 145.550781 309.617188 146.226562 309.085938 146.875 L 309.5625 146.207031 L 310.019531 145.523438 C 310.3125 145.066406 310.605469 144.605469 310.898438 144.148438 C 311.429688 143.210938 312.007812 142.28125 312.496094 141.296875 C 313.519531 139.378906 314.371094 137.367188 315.136719 135.304688 L 315.671875 133.757812 C 315.773438 133.496094 315.828125 133.230469 315.910156 132.976562 L 316.378906 131.421875 C 316.457031 131.167969 316.507812 130.882812 316.578125 130.613281 C 316.707031 130.078125 316.832031 129.542969 316.960938 129.003906 C 317.0625 128.460938 317.171875 127.933594 317.269531 127.390625 C 317.328125 127.125 317.371094 126.84375 317.429688 126.582031 L 317.539062 125.765625 C 317.617188 125.214844 317.699219 124.675781 317.773438 124.121094 C 317.832031 123.574219 317.882812 123.007812 317.9375 122.460938 L 317.953125 122.453125 C 317.691406 126.007812 316.863281 130.285156 315.582031 134.082031 C 315.421875 134.542969 315.253906 135.035156 315.101562 135.472656 C 315.03125 135.699219 314.941406 135.933594 314.84375 136.15625 C 314.75 136.371094 314.675781 136.597656 314.578125 136.8125 C 314.402344 137.246094 314.253906 137.679688 314.078125 138.105469 C 313.890625 138.519531 313.722656 138.917969 313.550781 139.300781 C 313.464844 139.488281 313.375 139.679688 313.304688 139.867188 C 313.261719 139.953125 313.21875 140.058594 313.191406 140.136719 C 313.144531 140.222656 313.09375 140.3125 313.054688 140.414062 C 312.890625 140.769531 312.714844 141.109375 312.5625 141.441406 C 312.40625 141.773438 312.265625 142.078125 312.132812 142.375 C 311.984375 142.660156 311.867188 142.925781 311.738281 143.179688 C 311.328125 143.710938 310.949219 144.316406 310.492188 144.941406 Z M 258.132812 168.34375 C 260.628906 168.914062 263.171875 169.304688 265.726562 169.519531 L 267.640625 169.632812 C 267.964844 169.660156 268.28125 169.648438 268.609375 169.652344 L 269.574219 169.671875 C 269.898438 169.675781 270.210938 169.691406 270.53125 169.671875 L 272.449219 169.59375 L 272.9375 169.566406 L 273.417969 169.523438 C 274.0625 169.46875 274.707031 169.398438 275.335938 169.351562 C 275.96875 169.257812 276.625 169.179688 277.261719 169.09375 C 277.898438 169.019531 278.535156 168.882812 279.175781 168.765625 C 279.820312 168.648438 280.460938 168.535156 281.082031 168.363281 C 280.804688 168.425781 280.519531 168.511719 280.242188 168.570312 L 279.402344 168.730469 C 278.839844 168.832031 278.292969 168.96875 277.726562 169.054688 C 276.597656 169.214844 275.460938 169.425781 274.320312 169.507812 C 272.050781 169.769531 269.746094 169.8125 267.464844 169.757812 C 264.515625 169.632812 261.617188 169.226562 258.816406 168.601562 C 256.011719 167.976562 253.335938 167.097656 250.800781 166.050781 C 253.199219 166.988281 255.652344 167.75 258.132812 168.34375 Z M 300.882812 155.988281 C 300.539062 156.277344 300.1875 156.566406 299.835938 156.832031 C 299.476562 157.101562 299.09375 157.363281 298.71875 157.636719 C 297.992188 158.1875 297.207031 158.671875 296.453125 159.164062 C 297.21875 158.644531 297.976562 158.152344 298.695312 157.585938 C 299.054688 157.316406 299.425781 157.039062 299.78125 156.769531 C 300.132812 156.484375 300.476562 156.195312 300.828125 155.90625 C 300.578125 156.125 300.84375 155.988281 300.882812 155.988281 Z M 285.496094 164.675781 C 285.28125 164.726562 285.042969 164.773438 284.773438 164.851562 C 284.503906 164.925781 284.199219 164.980469 283.894531 165.074219 L 284.378906 164.9375 L 284.632812 164.871094 L 284.875 164.785156 C 285.1875 164.664062 285.507812 164.5625 285.804688 164.445312 C 286.125 164.328125 286.445312 164.222656 286.742188 164.113281 C 286.894531 164.066406 287.058594 163.992188 287.203125 163.925781 L 287.660156 163.742188 C 286.957031 164.105469 286.230469 164.367188 285.496094 164.675781 Z M 259.378906 166.28125 C 259.164062 166.25 258.945312 166.195312 258.734375 166.160156 C 258.523438 166.125 258.316406 166.046875 258.121094 166.003906 C 258.636719 166.140625 259.15625 166.226562 259.6875 166.339844 C 259.945312 166.394531 260.210938 166.449219 260.46875 166.484375 C 260.730469 166.542969 260.996094 166.59375 261.269531 166.621094 L 262.871094 166.855469 L 263.269531 166.914062 L 263.671875 166.949219 C 263.949219 166.976562 264.191406 166.996094 264.46875 167.027344 C 263.980469 167.003906 263.589844 167.007812 263.363281 166.980469 C 262.902344 166.929688 262.457031 166.847656 262.003906 166.769531 C 261.777344 166.742188 261.566406 166.707031 261.328125 166.664062 C 261.097656 166.636719 260.886719 166.597656 260.667969 166.546875 C 260.238281 166.460938 259.808594 166.371094 259.378906 166.28125 Z M 259.378906 166.28125 " fill-opacity="1" fill-rule="nonzero"/></g></g></g><path fill="#ffffff" d="M 249.542969 152.015625 C 249.046875 152.015625 248.644531 152.421875 248.644531 152.914062 C 248.644531 153.40625 249.046875 153.8125 249.542969 153.8125 L 256.710938 153.8125 C 257.203125 153.8125 257.605469 153.40625 257.605469 152.914062 C 257.605469 152.421875 257.203125 152.015625 256.710938 152.015625 Z M 249.542969 152.015625 " fill-opacity="1" fill-rule="nonzero"/><path fill="#ffffff" d="M 237.042969 152.644531 C 237.042969 152.855469 236.964844 153.035156 236.820312 153.183594 C 236.667969 153.332031 236.492188 153.40625 236.285156 153.40625 C 236.070312 153.40625 235.894531 153.332031 235.742188 153.183594 C 235.597656 153.035156 235.519531 152.855469 235.519531 152.644531 C 235.519531 152.433594 235.597656 152.253906 235.742188 152.105469 C 235.894531 151.957031 236.070312 151.882812 236.285156 151.882812 C 236.492188 151.882812 236.667969 151.957031 236.820312 152.105469 C 236.964844 152.253906 237.042969 152.433594 237.042969 152.644531 Z M 237.042969 152.644531 " fill-opacity="1" fill-rule="nonzero"/><path fill="#ffffff" d="M 234.042969 152.644531 C 234.042969 152.855469 233.96875 153.035156 233.820312 153.183594 C 233.667969 153.332031 233.488281 153.40625 233.28125 153.40625 C 233.070312 153.40625 232.890625 153.332031 232.742188 153.183594 C 232.59375 153.035156 232.515625 152.855469 232.515625 152.644531 C 232.515625 152.433594 232.59375 152.253906 232.742188 152.105469 C 232.890625 151.957031 233.070312 151.882812 233.28125 151.882812 C 233.488281 151.882812 233.667969 151.957031 233.820312 152.105469 C 233.96875 152.253906 234.042969 152.433594 234.042969 152.644531 Z M 234.042969 152.644531 " fill-opacity="1" fill-rule="nonzero"/><path fill="#ffffff" d="M 248.957031 132.261719 C 248.6875 131.859375 248.105469 131.726562 247.703125 131.996094 L 239.644531 137.367188 C 239.371094 137.550781 239.234375 137.820312 239.234375 138.132812 C 239.234375 138.445312 239.371094 138.714844 239.644531 138.890625 C 239.644531 138.890625 247.703125 144.269531 247.703125 144.269531 C 248.105469 144.539062 248.6875 144.449219 248.957031 143.996094 C 249.226562 143.59375 249.136719 143.011719 248.6875 142.742188 L 241.746094 138.132812 L 248.6875 133.515625 C 249.089844 133.246094 249.226562 132.664062 248.957031 132.261719 Z M 248.957031 132.261719 " fill-opacity="1" fill-rule="nonzero"/><path fill="#ffffff" d="M 257.289062 143.996094 C 257.558594 144.402344 258.140625 144.539062 258.542969 144.269531 L 266.609375 138.890625 C 266.878906 138.714844 267.011719 138.445312 267.011719 138.132812 C 267.011719 137.820312 266.878906 137.550781 266.609375 137.367188 L 258.542969 131.996094 C 258.140625 131.726562 257.558594 131.816406 257.289062 132.261719 C 257.023438 132.664062 257.113281 133.246094 257.558594 133.515625 L 264.503906 138.132812 L 257.558594 142.742188 C 257.15625 143.011719 257.023438 143.59375 257.289062 143.996094 Z M 257.289062 143.996094 " fill-opacity="1" fill-rule="nonzero"/><path fill="#ffffff" d="M 254.066406 131.1875 L 250.480469 144.628906 C 250.347656 145.121094 250.660156 145.613281 251.109375 145.699219 C 251.199219 145.699219 251.242188 145.746094 251.332031 145.746094 C 251.734375 145.746094 252.09375 145.476562 252.183594 145.074219 L 255.769531 131.636719 C 255.902344 131.144531 255.585938 130.648438 255.140625 130.558594 C 254.691406 130.425781 254.199219 130.691406 254.066406 131.1875 Z M 254.066406 131.1875 " fill-opacity="1" fill-rule="nonzero"/><g clip-path="url(#0c3764ed6e)"><path fill="#ffffff" d="M 249.542969 159.183594 L 246.855469 159.183594 C 246.363281 159.183594 245.957031 159.585938 245.957031 160.078125 C 245.957031 160.574219 246.363281 160.976562 246.855469 160.976562 L 259.398438 160.976562 C 259.890625 160.976562 260.292969 160.574219 260.292969 160.078125 C 260.292969 159.585938 259.890625 159.183594 259.398438 159.183594 L 256.710938 159.183594 L 256.710938 156.496094 L 274.625 156.496094 C 275.792969 156.496094 276.777344 155.734375 277.136719 154.707031 L 276.195312 154.707031 C 275.792969 154.707031 275.433594 154.660156 275.074219 154.527344 C 274.9375 154.617188 274.757812 154.707031 274.582031 154.707031 L 231.621094 154.707031 C 231.128906 154.707031 230.726562 154.304688 230.726562 153.8125 L 230.726562 151.121094 L 268.621094 151.121094 L 268.488281 150.988281 C 268.039062 150.539062 267.683594 149.957031 267.503906 149.328125 L 230.726562 149.328125 L 230.726562 127.828125 C 230.726562 127.332031 231.128906 126.929688 231.621094 126.929688 L 274.625 126.929688 C 275.117188 126.929688 275.523438 127.332031 275.523438 127.828125 L 275.523438 132.398438 C 275.746094 132.351562 275.972656 132.308594 276.238281 132.308594 L 277.3125 132.308594 L 277.3125 127.828125 C 277.3125 126.347656 276.105469 125.140625 274.625 125.140625 L 231.621094 125.140625 C 230.144531 125.140625 228.933594 126.347656 228.933594 127.828125 L 228.933594 153.8125 C 228.933594 155.289062 230.144531 156.496094 231.621094 156.496094 L 249.542969 156.496094 Z M 251.332031 156.496094 L 254.914062 156.496094 L 254.914062 159.183594 L 251.332031 159.183594 Z M 251.332031 156.496094 " fill-opacity="1" fill-rule="nonzero"/></g><g clip-path="url(#9b2c7d3d39)"><path fill="#ffffff" d="M 284.523438 140.683594 C 284.4375 140.457031 284.347656 140.277344 284.257812 140.054688 C 284.839844 139.207031 284.75 138.042969 283.988281 137.277344 L 283.09375 136.382812 C 282.691406 135.980469 282.109375 135.757812 281.523438 135.757812 C 281.074219 135.757812 280.671875 135.890625 280.316406 136.113281 C 280.136719 136.023438 279.914062 135.933594 279.6875 135.847656 C 279.464844 134.816406 278.570312 134.097656 277.539062 134.097656 L 276.285156 134.097656 C 275.207031 134.097656 274.3125 134.863281 274.132812 135.847656 C 273.910156 135.933594 273.730469 136.023438 273.507812 136.113281 C 273.148438 135.890625 272.746094 135.757812 272.300781 135.757812 C 271.714844 135.757812 271.132812 135.980469 270.730469 136.382812 L 269.835938 137.277344 C 269.074219 138.042969 268.984375 139.207031 269.566406 140.054688 C 269.476562 140.234375 269.386719 140.457031 269.296875 140.683594 C 268.265625 140.910156 267.546875 141.804688 267.546875 142.832031 L 267.546875 144.089844 C 267.546875 145.164062 268.308594 146.058594 269.296875 146.238281 C 269.386719 146.460938 269.476562 146.640625 269.566406 146.863281 C 269.34375 147.222656 269.207031 147.628906 269.207031 148.078125 C 269.207031 148.65625 269.429688 149.238281 269.835938 149.640625 L 270.730469 150.539062 C 271.132812 150.945312 271.714844 151.167969 272.300781 151.167969 C 272.746094 151.167969 273.148438 151.03125 273.507812 150.808594 C 273.6875 150.898438 273.910156 150.988281 274.132812 151.078125 C 274.355469 152.105469 275.25 152.824219 276.285156 152.824219 L 277.539062 152.824219 C 278.617188 152.824219 279.511719 152.0625 279.6875 151.078125 C 279.914062 150.988281 280.09375 150.898438 280.316406 150.808594 C 280.671875 151.03125 281.074219 151.167969 281.523438 151.167969 C 282.109375 151.167969 282.691406 150.945312 283.09375 150.539062 L 283.988281 149.640625 C 284.390625 149.238281 284.613281 148.65625 284.613281 148.078125 C 284.613281 147.628906 284.480469 147.222656 284.257812 146.863281 C 284.347656 146.683594 284.4375 146.460938 284.523438 146.238281 C 285.558594 146.015625 286.273438 145.121094 286.273438 144.089844 L 286.273438 142.832031 C 286.273438 141.804688 285.511719 140.910156 284.523438 140.683594 Z M 284.480469 144.136719 C 284.480469 144.359375 284.300781 144.539062 284.078125 144.539062 L 283.136719 144.539062 C 282.960938 145.523438 282.601562 146.371094 282.066406 147.132812 L 282.734375 147.808594 C 282.914062 147.988281 282.914062 148.253906 282.734375 148.390625 L 281.839844 149.285156 C 281.746094 149.375 281.65625 149.417969 281.523438 149.417969 C 281.390625 149.417969 281.300781 149.375 281.210938 149.285156 L 280.539062 148.613281 C 279.777344 149.148438 278.882812 149.550781 277.941406 149.6875 L 277.941406 150.628906 C 277.941406 150.855469 277.761719 151.03125 277.539062 151.03125 L 276.285156 151.03125 C 276.0625 151.03125 275.882812 150.855469 275.882812 150.628906 L 275.882812 149.777344 C 274.894531 149.597656 274.042969 149.238281 273.285156 148.703125 L 272.523438 149.328125 C 272.433594 149.417969 272.34375 149.464844 272.210938 149.464844 C 272.074219 149.464844 272.027344 149.417969 271.9375 149.328125 L 271.042969 148.433594 C 270.863281 148.253906 270.863281 147.988281 271.042969 147.851562 L 271.714844 147.175781 C 271.175781 146.417969 270.773438 145.523438 270.640625 144.582031 L 269.699219 144.582031 C 269.476562 144.582031 269.296875 144.402344 269.296875 144.179688 L 269.296875 142.921875 C 269.296875 142.699219 269.476562 142.519531 269.699219 142.519531 L 270.59375 142.519531 C 270.773438 141.535156 271.132812 140.683594 271.667969 139.921875 L 271.042969 139.160156 C 270.863281 138.980469 270.863281 138.714844 271.042969 138.578125 L 271.9375 137.683594 C 272.027344 137.59375 272.121094 137.550781 272.253906 137.550781 C 272.386719 137.550781 272.476562 137.59375 272.566406 137.683594 L 273.238281 138.355469 C 274 137.820312 274.894531 137.410156 275.835938 137.277344 L 275.835938 136.339844 C 275.835938 136.113281 276.015625 135.933594 276.238281 135.933594 L 277.492188 135.933594 C 277.714844 135.933594 277.894531 136.113281 277.894531 136.339844 L 277.894531 137.234375 C 278.882812 137.410156 279.734375 137.773438 280.496094 138.3125 L 281.164062 137.640625 C 281.253906 137.550781 281.34375 137.503906 281.480469 137.503906 C 281.613281 137.503906 281.703125 137.550781 281.792969 137.640625 L 282.691406 138.535156 C 282.871094 138.714844 282.871094 138.980469 282.691406 139.117188 L 282.019531 139.789062 C 282.558594 140.546875 282.960938 141.445312 283.09375 142.386719 L 284.03125 142.386719 C 284.257812 142.386719 284.4375 142.566406 284.4375 142.789062 L 284.4375 144.136719 Z M 284.480469 144.136719 " fill-opacity="1" fill-rule="nonzero"/></g><path fill="#ffffff" d="M 276.867188 139.921875 C 274.894531 139.921875 273.285156 141.535156 273.285156 143.503906 C 273.285156 145.476562 274.894531 147.085938 276.867188 147.085938 C 278.839844 147.085938 280.449219 145.476562 280.449219 143.503906 C 280.449219 141.535156 278.839844 139.921875 276.867188 139.921875 Z M 276.867188 145.296875 C 275.882812 145.296875 275.074219 144.492188 275.074219 143.503906 C 275.074219 142.519531 275.882812 141.714844 276.867188 141.714844 C 277.851562 141.714844 278.660156 142.519531 278.660156 143.503906 C 278.660156 144.492188 277.851562 145.296875 276.867188 145.296875 Z M 276.867188 145.296875 " fill-opacity="1" fill-rule="nonzero"/><path fill="#ffffff" d="M 104.3125 63.125 L 104.3125 117.414062 L 91.101562 117.414062 L 91.101562 84.859375 L 78.949219 117.414062 L 68.277344 117.414062 L 56.058594 84.777344 L 56.058594 117.414062 L 42.847656 117.414062 L 42.847656 63.125 L 58.464844 63.125 L 73.695312 100.707031 L 88.773438 63.125 Z M 104.3125 63.125 " fill-opacity="1" fill-rule="nonzero"/><path fill="#ffffff" d="M 111.195312 95.757812 C 111.195312 91.324219 112.027344 87.4375 113.699219 84.09375 C 115.378906 80.742188 117.660156 78.167969 120.550781 76.367188 C 123.433594 74.554688 126.652344 73.648438 130.210938 73.648438 C 133.257812 73.648438 135.925781 74.269531 138.21875 75.503906 C 140.515625 76.742188 142.285156 78.363281 143.519531 80.367188 L 143.519531 74.269531 L 156.746094 74.269531 L 156.746094 117.414062 L 143.519531 117.414062 L 143.519531 111.3125 C 142.226562 113.320312 140.433594 114.941406 138.136719 116.175781 C 135.847656 117.414062 133.183594 118.03125 130.148438 118.03125 C 126.632812 118.03125 123.433594 117.121094 120.550781 115.296875 C 117.660156 113.46875 115.378906 110.863281 113.699219 107.488281 C 112.027344 104.105469 111.195312 100.195312 111.195312 95.757812 Z M 143.519531 95.839844 C 143.519531 92.546875 142.601562 89.941406 140.769531 88.03125 C 138.9375 86.125 136.707031 85.167969 134.085938 85.167969 C 131.457031 85.167969 129.226562 86.113281 127.398438 88 C 125.5625 89.878906 124.648438 92.464844 124.648438 95.757812 C 124.648438 99.058594 125.5625 101.675781 127.398438 103.617188 C 129.226562 105.550781 131.457031 106.511719 134.085938 106.511719 C 136.707031 106.511719 138.9375 105.5625 140.769531 103.648438 C 142.601562 101.742188 143.519531 99.140625 143.519531 95.839844 Z M 143.519531 95.839844 " fill-opacity="1" fill-rule="nonzero"/><path fill="#ffffff" d="M 179.542969 81.457031 C 181.089844 79.082031 183.027344 77.210938 185.351562 75.847656 C 187.667969 74.480469 190.246094 73.796875 193.078125 73.796875 L 193.078125 87.804688 L 189.449219 87.804688 C 186.152344 87.804688 183.675781 88.515625 182.015625 89.933594 C 180.363281 91.347656 179.542969 93.832031 179.542969 97.386719 L 179.542969 117.414062 L 166.332031 117.414062 L 166.332031 74.269531 L 179.542969 74.269531 Z M 179.542969 81.457031 " fill-opacity="1" fill-rule="nonzero"/><path fill="#ffffff" d="M 223.472656 106.203125 L 223.472656 117.414062 L 216.738281 117.414062 C 211.941406 117.414062 208.203125 116.242188 205.527344 113.898438 C 202.847656 111.546875 201.507812 107.71875 201.507812 102.414062 L 201.507812 85.25 L 196.253906 85.25 L 196.253906 74.269531 L 201.507812 74.269531 L 201.507812 63.742188 L 214.734375 63.742188 L 214.734375 74.269531 L 223.390625 74.269531 L 223.390625 85.25 L 214.734375 85.25 L 214.734375 102.558594 C 214.734375 103.851562 215.046875 104.785156 215.664062 105.359375 C 216.28125 105.921875 217.308594 106.203125 218.753906 106.203125 Z M 223.472656 106.203125 " fill-opacity="1" fill-rule="nonzero"/><path fill="#ffffff" d="M 228.183594 95.757812 C 228.183594 91.324219 229.019531 87.4375 230.6875 84.09375 C 232.371094 80.742188 234.652344 78.167969 237.539062 76.367188 C 240.421875 74.554688 243.644531 73.648438 247.203125 73.648438 C 250.25 73.648438 252.917969 74.269531 255.207031 75.503906 C 257.503906 76.742188 259.273438 78.363281 260.511719 80.367188 L 260.511719 74.269531 L 273.738281 74.269531 L 273.738281 117.414062 L 260.511719 117.414062 L 260.511719 111.3125 C 259.21875 113.320312 257.421875 114.941406 255.125 116.175781 C 252.835938 117.414062 250.171875 118.03125 247.136719 118.03125 C 243.625 118.03125 240.421875 117.121094 237.539062 115.296875 C 234.652344 113.46875 232.371094 110.863281 230.6875 107.488281 C 229.019531 104.105469 228.183594 100.195312 228.183594 95.757812 Z M 260.511719 95.839844 C 260.511719 92.546875 259.589844 89.941406 257.761719 88.03125 C 255.925781 86.125 253.699219 85.167969 251.074219 85.167969 C 248.445312 85.167969 246.21875 86.113281 244.386719 88 C 242.554688 89.878906 241.636719 92.464844 241.636719 95.757812 C 241.636719 99.058594 242.554688 101.675781 244.386719 103.617188 C 246.21875 105.550781 248.445312 106.511719 251.074219 106.511719 C 253.699219 106.511719 255.925781 105.5625 257.761719 103.648438 C 259.589844 101.742188 260.511719 99.140625 260.511719 95.839844 Z M 260.511719 95.839844 " fill-opacity="1" fill-rule="nonzero"/></svg>