<svg xmlns="http://www.w3.org/2000/svg" xmlns:xlink="http://www.w3.org/1999/xlink" width="500" zoomAndPan="magnify" viewBox="0 0 375 374.999991" height="500" preserveAspectRatio="xMidYMid meet" version="1.0"><defs><g/><clipPath id="0b4e62a4d2"><path d="M 140 87 L 291 87 L 291 236 L 140 236 Z M 140 87 " clip-rule="nonzero"/></clipPath><clipPath id="3cd47b23b7"><path d="M 302.382812 101.765625 L 275.679688 248.609375 L 128.101562 221.773438 L 154.800781 74.929688 Z M 302.382812 101.765625 " clip-rule="nonzero"/></clipPath><clipPath id="51ae41bb84"><path d="M 302.382812 101.765625 L 275.679688 248.609375 L 128.101562 221.773438 L 154.800781 74.929688 Z M 302.382812 101.765625 " clip-rule="nonzero"/></clipPath><clipPath id="b447026e47"><path d="M 208 137 L 312 137 L 312 240 L 208 240 Z M 208 137 " clip-rule="nonzero"/></clipPath><clipPath id="bc51387f9a"><path d="M 327.847656 214.746094 L 234.203125 257.03125 L 191.609375 162.703125 L 285.253906 120.417969 Z M 327.847656 214.746094 " clip-rule="nonzero"/></clipPath><clipPath id="faceebc424"><path d="M 327.847656 214.746094 L 234.203125 257.03125 L 191.609375 162.703125 L 285.253906 120.417969 Z M 327.847656 214.746094 " clip-rule="nonzero"/></clipPath><clipPath id="eb1358070b"><path d="M 220.824219 195.148438 L 268 195.148438 L 268 229.648438 L 220.824219 229.648438 Z M 220.824219 195.148438 " clip-rule="nonzero"/></clipPath><clipPath id="40397243e4"><path d="M 257 203 L 275.574219 203 L 275.574219 222 L 257 222 Z M 257 203 " clip-rule="nonzero"/></clipPath></defs><g clip-path="url(#0b4e62a4d2)"><g clip-path="url(#3cd47b23b7)"><g clip-path="url(#51ae41bb84)"><path fill="#8634c6" d="M 261.269531 219.195312 C 253.09375 225.664062 243.589844 230.484375 233.496094 233.117188 C 233.191406 233.257812 232.597656 233.433594 231.855469 233.632812 C 231.5 233.738281 231.089844 233.832031 230.648438 233.949219 C 230.203125 234.066406 229.738281 234.148438 229.273438 234.234375 C 228.808594 234.316406 228.339844 234.429688 227.847656 234.507812 C 227.382812 234.59375 226.910156 234.703125 226.453125 234.761719 C 225.554688 234.90625 224.710938 235.0625 224.070312 235.171875 C 225.164062 235.03125 226.226562 234.914062 227.269531 234.742188 C 228.3125 234.566406 229.335938 234.355469 230.324219 234.171875 C 231.320312 233.957031 232.320312 233.71875 233.285156 233.5 L 234.019531 233.324219 L 234.734375 233.117188 C 235.207031 232.980469 235.683594 232.839844 236.15625 232.703125 C 238.921875 231.882812 241.632812 230.886719 244.40625 229.703125 C 240.21875 231.558594 235.847656 233.011719 231.386719 234.054688 C 232.265625 233.851562 233.125 233.613281 234.003906 233.40625 C 234.867188 233.140625 235.757812 232.882812 236.621094 232.617188 C 237.507812 232.386719 238.386719 232.039062 239.253906 231.746094 C 240.128906 231.429688 241.023438 231.140625 241.878906 230.761719 C 245.386719 229.40625 248.816406 227.695312 252.148438 225.773438 C 258.835938 221.902344 264.964844 216.804688 270.167969 210.917969 C 272.023438 208.753906 273.871094 206.785156 275.660156 204.355469 C 276.105469 203.761719 276.582031 203.148438 277.011719 202.492188 C 277.4375 201.839844 277.875 201.132812 278.347656 200.402344 C 278.816406 199.671875 279.210938 198.902344 279.640625 198.082031 C 280.070312 197.257812 280.511719 196.382812 280.90625 195.445312 C 278.535156 199.988281 275.671875 204.300781 272.386719 208.285156 C 269.09375 212.324219 265.367188 215.976562 261.269531 219.195312 Z M 245.035156 229.480469 C 245.308594 229.363281 245.617188 229.222656 245.894531 229.074219 C 245.617188 229.222656 245.34375 229.339844 245.035156 229.480469 Z M 205.59375 235.070312 C 206.089844 235.132812 206.617188 235.171875 207.109375 235.234375 C 206.585938 235.195312 206.035156 235.125 205.507812 235.082031 C 205.230469 235.0625 204.980469 235.042969 204.710938 234.996094 C 204.464844 234.949219 204.1875 234.929688 203.941406 234.882812 C 202.929688 234.726562 201.917969 234.570312 200.992188 234.402344 C 202.03125 234.5625 203.042969 234.71875 204.054688 234.875 C 204.300781 234.921875 204.574219 234.96875 204.824219 234.988281 C 205.101562 235.007812 205.351562 235.027344 205.59375 235.070312 Z M 284.203125 183.507812 C 287.027344 174.464844 288.148438 164.746094 287.222656 154.992188 C 287.75 160.289062 287.726562 165.820312 287.070312 171.296875 C 286.410156 176.769531 285.039062 182.140625 283.097656 187.101562 C 283.511719 185.910156 283.84375 184.707031 284.203125 183.507812 Z M 270.335938 208.136719 C 273.410156 204.507812 276.191406 200.515625 278.515625 196.21875 C 276.226562 200.46875 273.5 204.496094 270.394531 208.121094 C 267.285156 211.773438 263.855469 215.027344 260.261719 217.773438 C 263.832031 214.996094 267.230469 211.761719 270.335938 208.136719 Z M 245.351562 100.972656 C 237.375 96.933594 228.453125 94.359375 219.039062 93.574219 C 219.347656 93.574219 219.675781 93.632812 219.980469 93.660156 C 220.285156 93.6875 220.617188 93.71875 220.917969 93.746094 C 221.554688 93.804688 222.191406 93.867188 222.847656 93.957031 C 223.480469 94.042969 224.132812 94.164062 224.789062 94.253906 C 225.117188 94.3125 225.449219 94.34375 225.773438 94.40625 C 226.101562 94.464844 226.433594 94.496094 226.753906 94.582031 C 228.054688 94.847656 229.25 94.925781 229.882812 95.011719 C 233.226562 95.929688 236.484375 97.027344 240.25 98.582031 C 240.828125 98.800781 242.085938 99.308594 243.242188 99.746094 C 243.902344 100.144531 244.613281 100.558594 245.351562 100.972656 Z M 288.910156 164.882812 C 288.925781 164.632812 288.917969 164.378906 288.933594 164.128906 C 288.90625 164.742188 288.910156 165.332031 288.855469 165.941406 C 288.867188 165.578125 288.875 165.214844 288.910156 164.882812 Z M 281.109375 128.328125 C 281.128906 128.363281 281.148438 128.421875 281.167969 128.453125 C 281.148438 128.421875 281.128906 128.363281 281.109375 128.328125 Z M 280.484375 127.121094 C 280.210938 126.621094 279.933594 126.121094 279.636719 125.589844 C 279.914062 126.089844 280.214844 126.59375 280.484375 127.121094 Z M 197.8125 234.132812 C 197.246094 234.003906 196.6875 233.816406 196.097656 233.652344 C 195.511719 233.492188 194.898438 233.296875 194.289062 233.101562 C 193.992188 233.019531 193.671875 232.933594 193.355469 232.816406 C 193.039062 232.703125 192.75 232.59375 192.433594 232.480469 C 191.800781 232.253906 191.167969 232.027344 190.527344 231.824219 L 190.054688 231.65625 C 189.894531 231.597656 189.738281 231.542969 189.582031 231.457031 C 189.273438 231.316406 188.957031 231.203125 188.644531 231.0625 C 188.015625 230.808594 187.359375 230.546875 186.730469 230.292969 C 186.109375 230.011719 185.484375 229.730469 184.835938 229.441406 C 184.210938 229.160156 183.589844 228.878906 182.96875 228.570312 C 182.378906 228.265625 181.792969 227.933594 181.199219 227.628906 C 180.609375 227.324219 180.046875 227.023438 179.488281 226.699219 C 178.929688 226.371094 178.394531 226.050781 177.890625 225.734375 C 177.386719 225.417969 176.851562 225.121094 176.40625 224.789062 C 175.453125 224.136719 174.578125 223.558594 173.8125 222.96875 C 174.578125 223.390625 175.375 223.8125 176.167969 224.238281 C 175.847656 223.984375 175.304688 223.578125 174.628906 223.117188 C 174.453125 223 174.277344 222.882812 174.105469 222.742188 C 173.9375 222.597656 173.734375 222.476562 173.5625 222.332031 C 173.195312 222.039062 172.796875 221.742188 172.375 221.441406 C 171.980469 221.144531 171.558594 220.84375 171.140625 220.515625 C 170.746094 220.191406 170.355469 219.867188 169.964844 219.542969 C 169.207031 218.925781 168.496094 218.347656 167.945312 217.824219 C 168.21875 218.015625 168.460938 218.230469 168.757812 218.453125 C 169.027344 218.667969 169.324219 218.890625 169.59375 219.109375 C 170.160156 219.550781 170.71875 220.042969 171.308594 220.515625 C 170.160156 219.550781 170.160156 219.550781 169.039062 218.613281 C 170.15625 219.4375 171.375 220.445312 172.753906 221.371094 C 173.105469 221.601562 173.453125 221.863281 173.804688 222.09375 C 173.976562 222.210938 174.152344 222.328125 174.324219 222.472656 C 174.5 222.585938 174.703125 222.707031 174.878906 222.824219 C 175.609375 223.292969 176.367188 223.769531 177.121094 224.246094 C 180.191406 226.066406 183.507812 227.765625 186.535156 229.046875 C 186.898438 229.226562 187.296875 229.355469 187.660156 229.507812 C 188.027344 229.65625 188.398438 229.78125 188.765625 229.929688 C 189.136719 230.054688 189.476562 230.199219 189.820312 230.320312 C 190.164062 230.4375 190.472656 230.578125 190.824219 230.671875 C 192.125 231.078125 193.265625 231.453125 194.203125 231.707031 C 196.0625 232.15625 197.019531 232.304688 196.570312 231.996094 C 195.636719 231.40625 190.371094 229.914062 184.140625 226.925781 C 181.042969 225.40625 177.679688 223.503906 174.5 221.351562 C 173.703125 220.785156 172.929688 220.25 172.132812 219.683594 C 171.367188 219.09375 170.632812 218.511719 169.894531 217.925781 C 169.695312 217.777344 169.527344 217.636719 169.328125 217.488281 C 169.15625 217.34375 168.964844 217.167969 168.792969 217.023438 C 168.429688 216.707031 168.089844 216.417969 167.753906 216.105469 C 167.410156 215.816406 167.074219 215.503906 166.734375 215.214844 C 166.398438 214.902344 166.089844 214.59375 165.777344 214.285156 C 166.070312 214.535156 166.335938 214.777344 166.628906 215.027344 C 166.917969 215.277344 167.214844 215.5 167.507812 215.75 C 168.097656 216.222656 168.710938 216.699219 169.324219 217.203125 C 169.9375 217.683594 170.585938 218.136719 171.230469 218.621094 C 171.554688 218.847656 171.875 219.101562 172.199219 219.328125 C 172.523438 219.558594 172.84375 219.785156 173.195312 220.015625 C 173.871094 220.476562 174.523438 220.90625 175.199219 221.367188 C 175.878906 221.796875 176.59375 222.207031 177.273438 222.640625 C 177.628906 222.847656 177.953125 223.074219 178.308594 223.28125 C 178.664062 223.484375 179.023438 223.691406 179.382812 223.867188 L 180.457031 224.457031 C 180.8125 224.664062 181.167969 224.867188 181.53125 225.046875 L 183.746094 226.152344 L 184.289062 226.417969 L 184.863281 226.664062 L 185.980469 227.148438 C 187.484375 227.84375 189.019531 228.375 190.542969 228.960938 C 193.617188 230 196.679688 230.921875 199.726562 231.476562 C 199.03125 231.292969 198.386719 231.117188 197.796875 230.957031 C 197.214844 230.765625 196.632812 230.574219 196.023438 230.351562 C 195.707031 230.238281 195.414062 230.15625 195.070312 230.039062 C 194.726562 229.917969 194.378906 229.828125 194.011719 229.675781 C 193.273438 229.402344 192.429688 229.109375 191.445312 228.789062 C 191.125 228.703125 190.8125 228.5625 190.523438 228.453125 L 187.769531 227.363281 L 185.976562 226.558594 L 185.070312 226.140625 C 184.757812 226 184.472656 225.863281 184.1875 225.726562 C 181.847656 224.542969 179.515625 223.300781 177.296875 221.886719 C 172.824219 219.132812 169.007812 216.304688 165.792969 212.824219 C 165.453125 212.511719 165.117188 212.195312 164.8125 211.859375 C 164.144531 211.203125 163.492188 210.636719 162.824219 209.980469 C 162.628906 209.804688 162.46875 209.605469 162.332031 209.441406 C 162.164062 209.269531 162.03125 209.078125 161.886719 208.9375 C 161.609375 208.605469 161.355469 208.308594 161.128906 208.011719 C 160.902344 207.71875 160.667969 207.453125 160.457031 207.214844 C 160.253906 206.953125 160.046875 206.691406 159.871094 206.433594 C 159.457031 205.910156 159.046875 205.386719 158.542969 204.761719 C 158.289062 204.460938 158.042969 204.109375 157.75 203.714844 C 157.457031 203.324219 157.132812 202.929688 156.796875 202.476562 C 156.804688 202.421875 156.925781 202.527344 157.113281 202.730469 C 156.882812 202.460938 156.660156 202.140625 156.386719 201.78125 C 156.140625 201.429688 155.902344 201.046875 155.636719 200.660156 C 155.367188 200.277344 155.128906 199.894531 154.859375 199.507812 C 154.726562 199.316406 154.617188 199.15625 154.480469 198.960938 C 154.375 198.773438 154.238281 198.609375 154.125 198.449219 C 154.144531 198.339844 154.164062 198.230469 154.050781 197.929688 C 148.9375 189.269531 145.582031 179.4375 144.601562 169.199219 C 144.546875 168.429688 144.457031 167.683594 144.402344 166.914062 C 144.371094 166.148438 144.335938 165.410156 144.304688 164.648438 C 144.289062 164.277344 144.277344 163.882812 144.257812 163.515625 C 144.269531 163.152344 144.257812 162.753906 144.265625 162.390625 C 144.265625 161.632812 144.285156 160.90625 144.28125 160.144531 C 144.3125 159.503906 144.347656 158.863281 144.378906 158.222656 C 144.410156 157.582031 144.414062 156.9375 144.480469 156.273438 C 144.542969 155.613281 144.601562 154.976562 144.695312 154.316406 C 144.757812 153.65625 144.824219 152.992188 144.941406 152.339844 C 145.035156 151.679688 145.09375 151.046875 145.136719 150.492188 C 145.183594 149.9375 145.179688 149.488281 145.238281 149.160156 C 145.445312 148.328125 145.632812 147.460938 145.84375 146.601562 C 145.886719 146.382812 145.953125 146.167969 145.992188 145.953125 C 146.058594 145.738281 146.125 145.527344 146.191406 145.3125 C 146.324219 144.886719 146.429688 144.457031 146.570312 144.003906 C 146.703125 143.582031 146.816406 143.121094 146.953125 142.667969 C 147.09375 142.21875 147.253906 141.796875 147.421875 141.320312 C 147.589844 140.875 147.726562 140.421875 147.898438 139.945312 C 147.96875 139.707031 148.042969 139.464844 148.140625 139.230469 C 148.238281 138.996094 148.339844 138.761719 148.410156 138.523438 C 148.492188 138.226562 148.664062 137.753906 148.847656 137.195312 C 149.027344 136.667969 149.230469 136.027344 149.453125 135.421875 C 149.824219 134.757812 150.179688 134.039062 150.574219 133.265625 C 150.683594 132.976562 150.851562 132.667969 150.988281 132.386719 L 151.421875 131.535156 C 151.695312 130.96875 151.996094 130.402344 152.273438 129.808594 C 152.597656 129.25 152.898438 128.683594 153.21875 128.152344 L 153.679688 127.308594 L 153.925781 126.902344 L 154.167969 126.496094 C 155.488281 124.320312 156.886719 122.214844 158.457031 120.222656 L 158.429688 120.21875 C 158.800781 119.722656 159.203125 119.207031 159.605469 118.6875 C 160.007812 118.171875 160.464844 117.664062 160.898438 117.152344 C 161.761719 116.101562 162.757812 115.101562 163.738281 114.042969 C 164.230469 113.515625 164.761719 113.050781 165.28125 112.523438 L 166.0625 111.769531 C 166.335938 111.507812 166.578125 111.269531 166.84375 111.039062 C 167.9375 110.113281 168.992188 109.125 170.128906 108.261719 C 170.6875 107.832031 171.214844 107.394531 171.773438 106.960938 C 172.324219 106.554688 172.875 106.148438 173.421875 105.769531 C 174.203125 105.179688 175.003906 104.652344 175.769531 104.144531 L 177.042969 103.335938 C 177.488281 103.050781 177.949219 102.828125 178.394531 102.542969 L 179.769531 101.78125 L 180.457031 101.398438 L 181.167969 101.050781 C 180.84375 101.132812 180.734375 101.113281 180.65625 101.070312 C 180.496094 101.183594 180.3125 101.261719 180.125 101.367188 C 179.9375 101.472656 179.75 101.578125 179.558594 101.714844 C 179.242188 101.910156 178.898438 102.097656 178.582031 102.292969 C 179.753906 101.554688 180.800781 100.898438 181.683594 100.386719 C 182.113281 100.183594 182.570312 99.984375 183.027344 99.785156 C 183.511719 99.59375 183.996094 99.402344 184.480469 99.207031 C 184.96875 99.015625 185.484375 98.800781 186 98.585938 C 186.511719 98.398438 187.058594 98.1875 187.601562 97.976562 C 190.25 96.855469 193.019531 96.007812 195.777344 95.21875 L 198.953125 94.445312 L 200.027344 94.25 C 200.726562 94.121094 201.457031 93.972656 202.152344 93.847656 C 202.878906 93.726562 203.59375 93.660156 204.316406 93.539062 C 204.789062 93.425781 204.371094 93.40625 204.324219 93.34375 C 206.851562 93.042969 209.429688 92.949219 212.019531 92.914062 C 216.652344 92.800781 221.332031 93.175781 225.957031 94.015625 C 226.511719 94.0625 227.054688 94.160156 227.601562 94.257812 C 228.144531 94.359375 228.695312 94.429688 229.238281 94.527344 C 229.527344 94.636719 229.875 94.730469 230.246094 94.851562 C 230.617188 94.976562 231.015625 95.105469 231.46875 95.242188 L 232.753906 95.589844 C 233.1875 95.695312 233.617188 95.800781 234.007812 95.957031 C 234.859375 96.226562 235.679688 96.515625 236.53125 96.78125 C 236.824219 96.863281 237.113281 96.972656 237.425781 97.113281 C 237.742188 97.226562 238.058594 97.339844 238.371094 97.480469 C 238.714844 97.601562 239.054688 97.746094 239.398438 97.867188 C 239.769531 97.988281 240.132812 98.140625 240.5 98.289062 C 241.253906 98.625 242.035156 98.964844 242.84375 99.308594 C 243.265625 99.46875 243.675781 99.683594 244.085938 99.898438 C 244.496094 100.113281 244.941406 100.308594 245.378906 100.527344 C 248.859375 102.257812 252.65625 104.550781 256.269531 107.257812 C 256.851562 107.617188 257.300781 107.921875 257.546875 108.109375 C 258.066406 108.511719 258.550781 108.9375 259.039062 109.335938 C 259.523438 109.761719 260.019531 110.132812 260.472656 110.578125 C 260.929688 111 261.386719 111.421875 261.84375 111.839844 C 262.300781 112.261719 262.730469 112.675781 263.15625 113.121094 C 263.539062 113.5 263.890625 113.871094 264.25 114.21875 C 264.605469 114.589844 264.992188 114.941406 265.316406 115.3125 C 265.992188 116.082031 266.671875 116.824219 267.332031 117.53125 C 267.949219 118.292969 268.570312 119.050781 269.175781 119.75 C 269.339844 119.921875 269.476562 120.113281 269.609375 120.308594 C 269.742188 120.5 269.878906 120.667969 270.015625 120.859375 C 270.285156 121.21875 270.558594 121.578125 270.832031 121.9375 C 271.378906 122.625 271.835938 123.355469 272.304688 124.03125 C 272.527344 124.351562 272.746094 124.699219 272.96875 125.023438 C 273.078125 125.183594 273.191406 125.34375 273.300781 125.503906 C 273.414062 125.664062 273.496094 125.820312 273.582031 125.976562 C 274.335938 127.238281 275.066406 128.328125 275.566406 129.289062 C 276.203125 130.417969 276.273438 130.34375 276.011719 129.625 C 275.878906 129.261719 275.664062 128.746094 275.414062 128.109375 C 275.132812 127.496094 274.78125 126.785156 274.40625 126.070312 C 274.222656 125.699219 274.035156 125.328125 273.851562 124.957031 C 273.636719 124.582031 273.449219 124.238281 273.257812 123.894531 C 272.847656 123.203125 272.496094 122.519531 272.175781 121.957031 C 271.503906 120.851562 271.101562 120.128906 271.316406 120.335938 C 273.460938 122.46875 275.910156 125.839844 278.324219 130.492188 C 279.5 132.84375 280.738281 135.457031 281.800781 138.433594 C 282.378906 139.886719 282.847656 141.492188 283.394531 143.109375 C 283.851562 144.765625 284.359375 146.460938 284.761719 148.277344 C 285.214844 150.269531 285.09375 149.546875 284.898438 148.300781 C 284.78125 147.691406 284.667969 146.9375 284.582031 146.332031 C 284.464844 145.722656 284.378906 145.285156 284.386719 145.230469 C 284.5 145.53125 284.609375 145.859375 284.769531 146.226562 C 284.898438 146.585938 284.992188 146.996094 285.113281 147.414062 C 285.382812 148.726562 285.679688 150.019531 285.863281 151.34375 L 286.042969 152.5 C 286.117188 152.878906 286.183594 153.285156 286.199219 153.652344 L 286.453125 155.976562 C 286.414062 155.574219 286.378906 155.148438 286.339844 154.746094 C 286.085938 152.285156 285.679688 149.875 285.175781 147.703125 C 285.277344 148.0625 285.375 148.445312 285.476562 148.828125 C 285.609375 149.328125 285.742188 149.832031 285.84375 150.355469 C 285.945312 150.882812 286.070312 151.4375 286.171875 151.960938 L 286.332031 152.777344 L 286.425781 153.1875 L 286.492188 153.59375 C 286.65625 154.691406 286.828125 155.765625 286.988281 156.75 C 286.609375 151.253906 285.601562 145.816406 283.972656 140.542969 L 283.675781 139.5625 C 283.566406 139.234375 283.457031 138.902344 283.347656 138.574219 L 282.664062 136.625 C 282.445312 135.964844 282.164062 135.351562 281.886719 134.710938 L 280.957031 133.023438 L 280.0625 131.148438 C 279.753906 130.527344 279.476562 129.886719 279.132812 129.292969 C 278.484375 128.078125 277.863281 126.839844 277.121094 125.664062 L 276.066406 123.898438 L 274.917969 122.171875 C 274.175781 121 273.332031 119.917969 272.523438 118.8125 C 272.316406 118.550781 272.117188 118.261719 271.910156 118 L 271.269531 117.207031 L 269.960938 115.59375 C 269.523438 115.0625 269.050781 114.558594 268.582031 114.050781 L 267.878906 113.277344 C 267.648438 113.007812 267.410156 112.769531 267.171875 112.527344 C 263.34375 108.542969 259.097656 104.988281 254.476562 101.957031 C 257.941406 104.246094 261.117188 106.875 264.035156 109.683594 C 266.925781 112.484375 269.554688 115.492188 271.855469 118.609375 C 269.675781 115.765625 267.273438 113.054688 264.722656 110.539062 C 262.140625 108.042969 259.359375 105.710938 256.433594 103.578125 L 254.214844 102.019531 C 253.839844 101.757812 253.460938 101.519531 253.082031 101.28125 L 251.921875 100.5625 C 251.542969 100.328125 251.164062 100.089844 250.757812 99.847656 L 248.359375 98.511719 L 247.773438 98.179688 L 247.152344 97.871094 C 246.328125 97.46875 245.527344 97.070312 244.703125 96.664062 C 243.871094 96.289062 243.035156 95.941406 242.203125 95.566406 C 241.789062 95.378906 241.375 95.1875 240.953125 95.027344 L 239.664062 94.539062 L 238.375 94.054688 C 238.164062 93.988281 237.953125 93.894531 237.742188 93.824219 L 237.078125 93.621094 L 234.285156 92.746094 L 231.46875 92.011719 L 230.769531 91.828125 C 230.523438 91.78125 230.28125 91.738281 230.066406 91.671875 L 228.65625 91.386719 L 227.21875 91.097656 C 226.730469 91.007812 226.261719 90.953125 225.773438 90.863281 L 224.320312 90.65625 C 223.828125 90.59375 223.363281 90.507812 222.867188 90.445312 L 219.972656 90.144531 C 219.722656 90.128906 219.5 90.117188 219.25 90.097656 L 218.527344 90.050781 L 217.078125 89.984375 L 216.355469 89.9375 L 215.992188 89.925781 L 215.628906 89.917969 L 214.167969 89.90625 C 206.394531 89.839844 198.683594 91.136719 191.320312 93.453125 C 191.921875 93.222656 192.613281 92.984375 193.304688 92.746094 C 194.019531 92.507812 194.742188 92.246094 195.535156 92.054688 C 195.210938 92.136719 194.886719 92.21875 194.558594 92.328125 L 193.578125 92.625 L 191.613281 93.222656 C 190.960938 93.414062 190.324219 93.664062 189.695312 93.886719 C 189.0625 94.109375 188.40625 94.328125 187.769531 94.578125 L 185.886719 95.359375 C 185.25 95.609375 184.613281 95.859375 184.023438 96.171875 C 182.789062 96.765625 181.542969 97.296875 180.355469 97.953125 C 179.632812 98.355469 178.914062 98.757812 178.191406 99.1875 L 176.097656 100.492188 C 176.578125 100.160156 177.785156 99.394531 178.644531 98.847656 C 171.296875 102.9375 164.65625 108.222656 159.140625 114.445312 C 153.601562 120.632812 149.296875 127.777344 146.253906 135.234375 C 146.726562 134.027344 146.949219 133.421875 147.132812 132.863281 C 146.976562 133.257812 146.789062 133.671875 146.632812 134.066406 C 146.480469 134.460938 146.289062 134.875 146.128906 135.296875 C 145.730469 136.40625 145.304688 137.507812 144.933594 138.621094 C 144.589844 139.738281 144.246094 140.855469 143.910156 141.949219 C 144.21875 140.851562 144.5625 139.734375 144.90625 138.617188 C 145.277344 137.503906 145.703125 136.398438 146.097656 135.320312 C 146.234375 134.867188 146.457031 134.429688 146.621094 133.980469 C 146.816406 133.539062 146.980469 133.089844 147.171875 132.648438 C 147.25 132.378906 147.359375 132.089844 147.503906 131.75 C 147.652344 131.414062 147.867188 131.003906 148.160156 130.464844 C 150.039062 126.476562 152.171875 122.929688 153.992188 120.507812 C 154.828125 119.308594 155.757812 118.214844 156.632812 117.109375 C 157.074219 116.542969 157.5625 116.011719 157.996094 115.472656 C 158.460938 114.9375 158.921875 114.40625 159.386719 113.871094 C 159.871094 113.367188 160.355469 112.867188 160.816406 112.332031 C 161.300781 111.832031 161.761719 111.324219 162.265625 110.851562 C 163.257812 109.882812 164.222656 108.902344 165.253906 108.023438 C 169.316406 104.40625 173.609375 101.335938 178.0625 98.96875 C 180.140625 97.882812 179.652344 98.246094 178.617188 98.84375 C 179.175781 98.550781 179.769531 98.238281 180.328125 97.945312 L 181.578125 97.246094 L 182.875 96.609375 C 183.734375 96.203125 184.578125 95.738281 185.488281 95.371094 C 186.371094 94.996094 187.261719 94.597656 188.164062 94.257812 C 189.070312 93.914062 190 93.605469 190.902344 93.265625 C 195.058594 91.910156 199.308594 90.941406 203.574219 90.367188 C 203.980469 90.300781 204.410156 90.238281 204.816406 90.171875 C 205.222656 90.105469 205.652344 90.070312 206.078125 90.035156 C 205.671875 90.101562 205.25 90.109375 204.816406 90.171875 C 215.8125 88.910156 226.910156 90.171875 237.136719 93.601562 C 237.910156 93.828125 238.644531 94.128906 239.40625 94.410156 L 240.542969 94.8125 C 240.914062 94.9375 241.304688 95.09375 241.671875 95.242188 C 243.160156 95.878906 244.65625 96.460938 246.09375 97.199219 C 249.023438 98.574219 251.816406 100.207031 254.511719 101.933594 L 254.058594 101.628906 L 253.605469 101.347656 L 252.671875 100.757812 C 252.042969 100.359375 251.4375 99.96875 250.773438 99.597656 C 250.140625 99.226562 249.472656 98.882812 248.835938 98.511719 L 247.867188 97.972656 L 246.859375 97.480469 L 244.875 96.5 C 244.199219 96.179688 243.519531 95.917969 242.84375 95.597656 L 241.828125 95.160156 L 241.308594 94.925781 L 240.785156 94.714844 L 238.703125 93.945312 C 238.023438 93.679688 237.308594 93.4375 236.585938 93.222656 L 234.464844 92.527344 C 233.738281 92.339844 233.042969 92.15625 232.324219 91.941406 C 231.597656 91.753906 230.90625 91.542969 230.171875 91.410156 C 229.441406 91.25 228.738281 91.09375 228.007812 90.933594 C 227.65625 90.867188 227.28125 90.769531 226.925781 90.707031 L 225.832031 90.535156 C 225.097656 90.402344 224.386719 90.300781 223.652344 90.167969 C 222.910156 90.0625 222.195312 89.988281 221.476562 89.914062 C 229.269531 90.488281 237.707031 92.640625 245.585938 96.292969 C 240.519531 93.851562 235.113281 92.054688 229.570312 90.851562 C 229.03125 90.722656 228.519531 90.601562 228 90.507812 C 227.730469 90.460938 227.488281 90.386719 227.21875 90.339844 C 226.945312 90.289062 226.699219 90.246094 226.429688 90.195312 C 225.394531 90.007812 224.355469 89.847656 223.375 89.667969 C 222.386719 89.542969 221.425781 89.425781 220.550781 89.292969 C 219.671875 89.164062 218.835938 89.125 218.097656 89.015625 C 223.652344 89.382812 228.222656 90.210938 232.484375 91.210938 C 223.253906 88.800781 213.40625 88.078125 203.640625 89.367188 C 203.15625 89.421875 202.691406 89.503906 202.203125 89.554688 C 201.96875 89.597656 201.714844 89.609375 201.484375 89.652344 C 201.25 89.691406 201.019531 89.734375 200.785156 89.777344 C 201.019531 89.734375 201.25 89.691406 201.484375 89.652344 L 202.203125 89.554688 C 202.664062 89.5 203.15625 89.421875 203.613281 89.363281 C 208.945312 88.644531 214.496094 88.417969 220.035156 88.863281 C 225.578125 89.308594 231.054688 90.417969 236.140625 92.128906 L 235.230469 91.878906 C 234.933594 91.796875 234.613281 91.710938 234.320312 91.628906 C 233.699219 91.488281 233.078125 91.347656 232.460938 91.179688 C 234.558594 91.703125 236.597656 92.382812 238.640625 93.0625 C 239.640625 93.441406 240.640625 93.820312 241.636719 94.195312 C 242.628906 94.628906 243.589844 95.058594 244.585938 95.464844 C 248.476562 97.238281 252.199219 99.351562 255.699219 101.730469 C 259.203125 104.109375 262.480469 106.785156 265.515625 109.726562 C 268.523438 112.664062 271.289062 115.863281 273.792969 119.242188 C 273.488281 118.765625 273.152344 118.28125 272.820312 117.800781 C 272.484375 117.316406 272.097656 116.824219 271.707031 116.332031 C 271.320312 115.839844 270.9375 115.320312 270.519531 114.824219 C 270.078125 114.320312 269.664062 113.824219 269.191406 113.316406 C 267.398438 111.277344 265.320312 109.269531 263.144531 107.328125 C 258.726562 103.488281 253.714844 100.132812 249.238281 97.546875 C 257.398438 101.8125 264.910156 107.816406 271.027344 115.140625 C 277.175781 122.441406 281.929688 131.066406 284.84375 140.253906 C 287.78125 149.445312 288.820312 159.191406 288.027344 168.660156 C 287.640625 173.394531 286.796875 178.046875 285.578125 182.578125 C 284.339844 187.074219 282.675781 191.4375 280.664062 195.539062 L 281.738281 193.347656 C 282.09375 192.625 282.402344 191.863281 282.734375 191.109375 C 283.425781 189.632812 283.957031 188.101562 284.542969 186.578125 C 285.605469 183.507812 286.539062 180.390625 287.175781 177.1875 C 287.898438 174.003906 288.316406 170.761719 288.628906 167.503906 C 288.691406 166.699219 288.730469 165.863281 288.792969 165.058594 C 288.8125 164.640625 288.859375 164.226562 288.847656 163.832031 L 288.875 162.601562 C 288.882812 161.785156 288.921875 160.949219 288.902344 160.132812 C 288.882812 159.3125 288.835938 158.488281 288.816406 157.671875 C 288.84375 158.292969 288.863281 158.945312 288.886719 159.59375 C 288.910156 159.9375 288.9375 160.25 288.929688 160.585938 C 288.925781 160.921875 288.949219 161.265625 288.945312 161.601562 C 288.957031 162.304688 288.945312 162.980469 288.957031 163.683594 C 288.972656 163.769531 288.949219 163.878906 288.964844 163.964844 C 289.050781 160.074219 288.871094 156.277344 288.355469 152.472656 C 288.1875 151.375 288.023438 150.273438 287.859375 149.175781 C 287.644531 148.183594 287.460938 147.191406 287.246094 146.199219 C 288.039062 149.714844 288.605469 153.25 288.882812 156.839844 C 289.347656 162.769531 289.105469 168.742188 288.242188 174.574219 C 288.140625 175.453125 287.96875 176.238281 287.835938 176.972656 C 287.707031 177.679688 287.589844 178.332031 287.488281 178.875 C 287.257812 179.988281 287.078125 180.824219 286.972656 181.398438 C 286.761719 182.566406 286.8125 182.746094 287.027344 182.335938 C 287.242188 181.921875 287.605469 180.863281 288.007812 179.589844 C 288.207031 178.949219 288.367188 178.222656 288.527344 177.492188 C 288.6875 176.761719 288.882812 176.007812 288.984375 175.296875 C 289.253906 173.492188 289.582031 171.695312 289.71875 169.867188 C 289.769531 169.425781 289.800781 168.953125 289.851562 168.511719 C 289.863281 168.289062 289.902344 168.070312 289.914062 167.847656 L 289.953125 167.179688 C 290.003906 166.292969 290.054688 165.375 290.105469 164.484375 C 290.128906 163.585938 290.125 162.6875 290.117188 161.785156 C 290.117188 161.335938 290.113281 160.886719 290.109375 160.4375 C 290.109375 159.984375 290.074219 159.558594 290.042969 159.101562 C 290.007812 158.226562 289.976562 157.320312 289.910156 156.4375 C 289.820312 155.546875 289.753906 154.664062 289.660156 153.804688 C 289.253906 150.300781 288.679688 146.824219 287.773438 143.457031 L 287.46875 142.191406 C 287.347656 141.777344 287.226562 141.359375 287.105469 140.945312 C 286.863281 140.113281 286.621094 139.28125 286.351562 138.445312 C 285.746094 136.820312 285.230469 135.179688 284.535156 133.589844 C 279.320312 120.835938 270.664062 109.707031 259.507812 101.664062 C 259.183594 101.433594 258.863281 101.179688 258.511719 100.949219 L 257.507812 100.289062 C 256.828125 99.855469 256.152344 99.394531 255.472656 98.960938 C 254.789062 98.554688 254.074219 98.144531 253.390625 97.738281 C 253.035156 97.535156 252.703125 97.332031 252.347656 97.128906 L 251.269531 96.566406 L 249.117188 95.417969 L 246.925781 94.484375 L 245.839844 93.976562 L 244.710938 93.519531 L 242.464844 92.578125 C 236.425781 90.242188 230.078125 88.667969 223.648438 87.863281 C 221.828125 87.671875 219.828125 87.390625 217.765625 87.296875 C 217.265625 87.261719 216.738281 87.222656 216.207031 87.210938 C 215.671875 87.199219 215.167969 87.191406 214.664062 87.183594 C 214.160156 87.175781 213.628906 87.164062 213.117188 87.183594 C 212.863281 87.195312 212.613281 87.175781 212.359375 87.1875 C 212.105469 87.195312 211.847656 87.207031 211.59375 87.214844 C 210.601562 87.261719 209.609375 87.304688 208.679688 87.332031 C 207.734375 87.414062 206.847656 87.507812 206.019531 87.582031 C 205.589844 87.613281 205.191406 87.65625 204.816406 87.699219 C 204.4375 87.769531 204.066406 87.816406 203.71875 87.863281 C 203.027344 87.964844 202.414062 88.078125 201.867188 88.148438 C 196.3125 89.1875 190.824219 90.917969 185.511719 93.238281 C 182.828125 94.382812 180.277344 95.746094 177.710938 97.191406 C 177.082031 97.554688 176.441406 97.972656 175.816406 98.335938 C 175.183594 98.726562 174.554688 99.089844 173.9375 99.539062 C 172.714844 100.386719 171.472656 101.199219 170.292969 102.109375 C 169.707031 102.5625 169.09375 102.988281 168.5 103.46875 C 167.933594 103.957031 167.339844 104.4375 166.777344 104.898438 C 166.484375 105.125 166.183594 105.382812 165.917969 105.613281 L 165.074219 106.386719 C 164.503906 106.902344 163.964844 107.394531 163.394531 107.910156 C 161.234375 110.046875 159.097656 112.214844 157.191406 114.652344 C 156.191406 115.820312 155.285156 117.089844 154.359375 118.324219 C 154.136719 118.621094 153.910156 118.945312 153.683594 119.269531 L 152.371094 121.222656 L 152.03125 121.695312 L 151.714844 122.203125 C 151.316406 122.859375 150.910156 123.542969 150.507812 124.203125 L 150.191406 124.707031 C 150.101562 124.886719 150.019531 125.042969 149.902344 125.214844 L 149.34375 126.269531 L 148.789062 127.320312 C 148.582031 127.675781 148.410156 128.007812 148.230469 128.371094 C 147.875 129.09375 147.550781 129.792969 147.195312 130.515625 C 144.746094 135.636719 142.925781 141.179688 141.769531 146.898438 C 141.644531 147.605469 141.453125 148.332031 141.351562 149.042969 C 141.25 149.757812 141.144531 150.496094 141.015625 151.203125 L 140.847656 152.296875 C 140.78125 152.652344 140.773438 153.015625 140.730469 153.398438 C 140.65625 154.117188 140.578125 154.863281 140.523438 155.609375 L 140.480469 156.164062 C 140.472656 156.359375 140.46875 156.527344 140.460938 156.722656 L 140.402344 157.835938 C 140.382812 158.566406 140.328125 159.3125 140.308594 160.042969 L 140.328125 162.265625 L 140.324219 163.359375 C 140.3125 163.722656 140.359375 164.097656 140.375 164.464844 L 140.507812 166.683594 L 140.542969 167.25 L 140.613281 167.796875 L 140.71875 168.914062 C 140.808594 169.660156 140.84375 170.398438 140.964844 171.121094 L 141.296875 173.320312 L 141.460938 174.417969 L 141.6875 175.5 L 142.136719 177.660156 C 142.3125 178.394531 142.492188 179.101562 142.675781 179.808594 C 142.855469 180.515625 143.03125 181.25 143.269531 181.941406 C 143.71875 183.34375 144.132812 184.769531 144.640625 186.15625 C 144.90625 186.847656 145.121094 187.535156 145.414062 188.234375 C 145.6875 188.902344 145.980469 189.601562 146.253906 190.269531 L 146.6875 191.277344 L 147.15625 192.261719 C 147.453125 192.933594 147.785156 193.585938 148.089844 194.230469 C 148.421875 194.882812 148.78125 195.535156 149.117188 196.160156 C 149.480469 196.789062 149.78125 197.460938 150.175781 198.066406 C 153.113281 203.097656 156.539062 207.742188 160.394531 211.898438 C 164.253906 216.03125 168.515625 219.644531 172.957031 222.726562 C 177.398438 225.8125 182.082031 228.351562 186.78125 230.328125 C 191.476562 232.335938 196.210938 233.816406 200.824219 234.878906 C 199.957031 234.691406 198.9375 234.421875 197.8125 234.132812 Z M 247.386719 95.046875 C 248.246094 95.425781 249.046875 95.796875 249.816406 96.21875 C 250.582031 96.636719 251.292969 97.050781 251.984375 97.425781 C 252.671875 97.832031 253.316406 98.289062 253.949219 98.683594 C 256.484375 100.355469 258.558594 102.082031 260.851562 103.847656 C 263.949219 106.292969 266.894531 108.964844 269.570312 111.867188 C 270.222656 112.605469 270.875 113.34375 271.558594 114.058594 C 272.179688 114.816406 272.800781 115.578125 273.421875 116.335938 C 273.75 116.703125 274.042969 117.09375 274.304688 117.507812 L 275.1875 118.679688 C 275.484375 119.070312 275.777344 119.460938 276.039062 119.875 C 276.300781 120.289062 276.570312 120.675781 276.859375 121.09375 C 277.386719 121.890625 277.945312 122.695312 278.4375 123.542969 C 278.933594 124.363281 279.429688 125.1875 279.921875 126.035156 C 280.386719 126.878906 280.824219 127.714844 281.289062 128.558594 C 281.527344 128.96875 281.722656 129.425781 281.929688 129.828125 C 282.132812 130.257812 282.335938 130.691406 282.539062 131.121094 C 282.742188 131.550781 282.949219 131.953125 283.148438 132.410156 C 283.324219 132.835938 283.527344 133.265625 283.699219 133.71875 C 284.042969 134.597656 284.453125 135.429688 284.746094 136.300781 C 285.066406 137.171875 285.382812 138.046875 285.679688 138.886719 C 285.945312 139.75 286.234375 140.644531 286.496094 141.507812 C 285.15625 136.992188 283.390625 132.625 281.222656 128.464844 C 282.65625 131.253906 283.816406 133.996094 284.851562 136.796875 C 285.019531 137.277344 285.183594 137.757812 285.355469 138.210938 L 285.617188 138.929688 L 285.824219 139.644531 C 286.097656 140.621094 286.402344 141.574219 286.695312 142.585938 C 286.933594 143.585938 287.171875 144.609375 287.433594 145.640625 C 287.667969 146.667969 287.839844 147.738281 288.035156 148.816406 C 287.871094 148.167969 287.683594 147.347656 287.484375 146.4375 C 287.398438 145.972656 287.257812 145.527344 287.144531 145.054688 C 287.035156 144.585938 286.894531 144.109375 286.785156 143.640625 C 286.644531 143.167969 286.558594 142.726562 286.414062 142.28125 C 286.265625 141.859375 286.144531 141.445312 286.011719 141.082031 C 285.777344 140.367188 285.550781 139.761719 285.410156 139.457031 C 285.730469 140.46875 286.050781 141.484375 286.3125 142.515625 C 285.996094 141.472656 285.679688 140.433594 285.34375 139.359375 C 285.363281 139.390625 285.359375 139.417969 285.382812 139.449219 C 282.082031 129.460938 276.664062 120.15625 269.652344 112.332031 C 266.144531 108.433594 262.269531 104.863281 258.078125 101.796875 C 253.855469 98.722656 249.363281 96.078125 244.664062 93.933594 C 245.648438 94.25 246.527344 94.664062 247.386719 95.046875 Z M 287.070312 145.632812 C 286.835938 144.746094 286.609375 143.832031 286.382812 142.921875 C 286.613281 143.808594 286.839844 144.71875 287.070312 145.632812 Z M 281.109375 128.328125 C 280.898438 127.925781 280.691406 127.523438 280.457031 127.117188 C 280.691406 127.523438 280.898438 127.925781 281.109375 128.328125 Z M 277.980469 135.632812 C 278.335938 136.625 278.765625 137.65625 279.09375 138.785156 L 278.699219 137.703125 L 278.277344 136.640625 C 277.980469 135.941406 277.6875 135.242188 277.390625 134.539062 C 276.738281 133.183594 276.125 131.78125 275.382812 130.4375 C 273.992188 127.738281 272.351562 125.164062 270.589844 122.652344 L 269.238281 120.800781 C 269.015625 120.480469 268.753906 120.210938 268.527344 119.914062 L 267.816406 119.027344 L 267.109375 118.140625 C 266.878906 117.84375 266.59375 117.566406 266.339844 117.269531 C 265.824219 116.695312 265.308594 116.125 264.796875 115.554688 C 264.25 115.003906 263.730469 114.460938 263.183594 113.910156 C 262.921875 113.640625 262.636719 113.363281 262.375 113.089844 L 261.53125 112.320312 C 260.953125 111.792969 260.402344 111.269531 259.824219 110.742188 C 259.238281 110.242188 258.628906 109.738281 258.042969 109.238281 L 258.050781 109.210938 C 261.921875 112.332031 266.191406 116.679688 269.535156 121.167969 C 269.941406 121.71875 270.371094 122.300781 270.753906 122.820312 C 270.957031 123.082031 271.160156 123.371094 271.332031 123.65625 C 271.503906 123.941406 271.710938 124.203125 271.882812 124.488281 C 272.234375 125.03125 272.617188 125.550781 272.96875 126.089844 C 273.292969 126.628906 273.621094 127.136719 273.925781 127.640625 C 274.074219 127.894531 274.226562 128.148438 274.382812 128.371094 C 274.445312 128.496094 274.53125 128.625 274.601562 128.71875 C 274.660156 128.84375 274.722656 128.96875 274.8125 129.097656 C 275.09375 129.570312 275.34375 130.035156 275.601562 130.476562 C 275.859375 130.917969 276.09375 131.324219 276.332031 131.707031 C 276.542969 132.109375 276.757812 132.457031 276.949219 132.800781 C 277.238281 133.699219 277.632812 134.613281 277.980469 135.632812 Z M 263.347656 214.402344 C 265.980469 211.984375 268.453125 209.371094 270.726562 206.605469 L 272.375 204.488281 C 272.664062 204.148438 272.898438 203.769531 273.164062 203.394531 L 273.953125 202.304688 C 274.21875 201.929688 274.476562 201.582031 274.714844 201.203125 L 275.429688 200.070312 L 276.140625 198.933594 L 276.5 198.351562 L 276.832031 197.765625 C 277.28125 196.976562 277.707031 196.183594 278.15625 195.421875 C 278.554688 194.621094 278.984375 193.800781 279.382812 193.003906 C 279.808594 192.207031 280.15625 191.371094 280.535156 190.542969 C 280.910156 189.710938 281.285156 188.878906 281.578125 188.035156 C 281.429688 188.398438 281.300781 188.796875 281.148438 189.164062 L 280.667969 190.257812 C 280.339844 190.984375 280.066406 191.722656 279.710938 192.445312 C 279.003906 193.859375 278.339844 195.34375 277.527344 196.710938 C 276.03125 199.53125 274.25 202.214844 272.375 204.796875 C 269.894531 208.085938 267.125 211.097656 264.183594 213.820312 C 261.246094 216.546875 258.113281 218.929688 254.894531 221.015625 C 257.875 219 260.695312 216.785156 263.347656 214.402344 Z M 283.0625 155.445312 C 283.117188 156.074219 283.171875 156.699219 283.199219 157.324219 C 283.226562 157.949219 283.222656 158.59375 283.246094 159.242188 C 283.292969 160.519531 283.230469 161.800781 283.199219 163.058594 C 283.207031 161.765625 283.238281 160.507812 283.164062 159.230469 C 283.136719 158.605469 283.113281 157.957031 283.085938 157.332031 C 283.03125 156.703125 282.976562 156.074219 282.921875 155.445312 C 282.980469 155.90625 283.027344 155.492188 283.0625 155.445312 Z M 280.84375 180.027344 C 280.734375 180.316406 280.59375 180.628906 280.46875 181 C 280.34375 181.371094 280.164062 181.761719 280.027344 182.1875 L 280.261719 181.527344 L 280.378906 181.179688 L 280.472656 180.832031 C 280.582031 180.375 280.722656 179.921875 280.828125 179.492188 C 280.9375 179.035156 281.078125 178.582031 281.183594 178.152344 C 281.25 177.9375 281.296875 177.695312 281.335938 177.476562 L 281.484375 176.800781 C 281.34375 177.898438 281.066406 178.945312 280.84375 180.027344 Z M 261.964844 211.339844 C 261.757812 211.554688 261.523438 211.765625 261.316406 211.980469 C 261.109375 212.195312 260.851562 212.371094 260.648438 212.5625 C 261.214844 212.074219 261.730469 211.550781 262.277344 211.03125 C 262.546875 210.769531 262.820312 210.511719 263.066406 210.246094 C 263.335938 209.984375 263.609375 209.726562 263.859375 209.433594 L 265.398438 207.773438 L 265.78125 207.367188 L 266.140625 206.925781 C 266.390625 206.632812 266.609375 206.363281 266.859375 206.074219 C 266.453125 206.617188 266.144531 207.066406 265.933594 207.308594 C 265.507812 207.792969 265.058594 208.246094 264.609375 208.699219 C 264.398438 208.941406 264.191406 209.15625 263.949219 209.394531 C 263.738281 209.636719 263.53125 209.851562 263.296875 210.0625 C 262.851562 210.488281 262.410156 210.914062 261.964844 211.339844 Z M 261.964844 211.339844 " fill-opacity="1" fill-rule="nonzero"/></g></g></g><g clip-path="url(#b447026e47)"><g clip-path="url(#bc51387f9a)"><g clip-path="url(#faceebc424)"><path fill="#b2217a" d="M 245.347656 237.335938 C 238.496094 235.234375 232.054688 231.738281 226.625 227.054688 C 226.425781 226.9375 226.097656 226.667969 225.691406 226.328125 C 225.496094 226.167969 225.28125 225.972656 225.042969 225.769531 C 224.804688 225.5625 224.574219 225.332031 224.34375 225.101562 C 224.117188 224.871094 223.871094 224.648438 223.632812 224.402344 C 223.402344 224.171875 223.15625 223.949219 222.945312 223.710938 C 222.511719 223.261719 222.09375 222.84375 221.785156 222.523438 C 222.289062 223.089844 222.769531 223.644531 223.277344 224.167969 C 223.78125 224.6875 224.300781 225.1875 224.789062 225.671875 C 225.300781 226.152344 225.824219 226.625 226.324219 227.085938 L 226.710938 227.433594 L 227.109375 227.757812 C 227.371094 227.96875 227.636719 228.183594 227.898438 228.398438 C 229.441406 229.644531 231.0625 230.789062 232.816406 231.894531 C 230.132812 230.25 227.605469 228.34375 225.269531 226.226562 C 225.730469 226.644531 226.199219 227.039062 226.660156 227.457031 C 227.148438 227.84375 227.640625 228.246094 228.128906 228.628906 C 228.605469 229.039062 229.144531 229.402344 229.648438 229.78125 C 230.171875 230.148438 230.683594 230.542969 231.230469 230.878906 C 233.367188 232.335938 235.675781 233.609375 238.0625 234.742188 C 242.867188 237.015625 248.144531 238.492188 253.503906 239.136719 C 255.453125 239.34375 257.289062 239.621094 259.363281 239.683594 C 259.875 239.703125 260.410156 239.734375 260.945312 239.722656 C 261.480469 239.707031 262.054688 239.679688 262.648438 239.660156 C 263.246094 239.640625 263.835938 239.5625 264.46875 239.484375 C 265.101562 239.410156 265.769531 239.316406 266.457031 239.171875 C 262.957031 239.605469 259.398438 239.667969 255.863281 239.367188 C 252.289062 239.082031 248.769531 238.398438 245.347656 237.335938 Z M 233.1875 232.164062 C 233.363281 232.273438 233.5625 232.394531 233.753906 232.496094 C 233.5625 232.394531 233.386719 232.285156 233.1875 232.164062 Z M 214.625 212.03125 C 214.78125 212.335938 214.964844 212.648438 215.125 212.953125 C 214.941406 212.640625 214.765625 212.300781 214.585938 211.988281 C 214.488281 211.820312 214.402344 211.671875 214.324219 211.5 C 214.253906 211.34375 214.15625 211.179688 214.085938 211.023438 C 213.777344 210.390625 213.472656 209.757812 213.207031 209.167969 C 213.519531 209.816406 213.828125 210.449219 214.132812 211.085938 C 214.207031 211.238281 214.285156 211.414062 214.371094 211.5625 C 214.464844 211.726562 214.554688 211.875 214.625 212.03125 Z M 274.496094 236.375 C 280.714844 234.445312 286.652344 231.28125 291.8125 226.949219 C 289.019531 229.316406 285.878906 231.464844 282.527344 233.230469 C 279.171875 234.996094 275.597656 236.316406 272.03125 237.15625 C 272.867188 236.925781 273.675781 236.640625 274.496094 236.375 Z M 255.144531 238.148438 C 258.398438 238.472656 261.742188 238.484375 265.085938 238.125 C 261.785156 238.484375 258.441406 238.515625 255.175781 238.175781 C 251.898438 237.839844 248.714844 237.171875 245.757812 236.210938 C 248.726562 237.144531 251.882812 237.804688 255.144531 238.148438 Z M 306.03125 182.167969 C 305.199219 176.074219 303.175781 170.019531 299.941406 164.386719 C 300.0625 164.5625 300.15625 164.769531 300.257812 164.953125 C 300.363281 165.136719 300.472656 165.335938 300.578125 165.519531 C 300.792969 165.902344 301.007812 166.285156 301.210938 166.691406 C 301.410156 167.082031 301.597656 167.5 301.800781 167.90625 C 301.894531 168.117188 302.007812 168.316406 302.101562 168.523438 C 302.195312 168.730469 302.304688 168.933594 302.382812 169.148438 C 302.742188 169.988281 303.164062 170.691406 303.363281 171.082031 C 304.148438 173.335938 304.800781 175.609375 305.390625 178.347656 C 305.492188 178.757812 305.695312 179.667969 305.898438 180.492188 C 305.929688 181.023438 305.976562 181.585938 306.03125 182.167969 Z M 286.871094 231.769531 C 287.019531 231.679688 287.160156 231.574219 287.308594 231.488281 C 286.953125 231.710938 286.617188 231.945312 286.253906 232.152344 C 286.460938 232.015625 286.671875 231.878906 286.871094 231.769531 Z M 304.511719 213.082031 C 304.5 213.105469 304.472656 213.140625 304.464844 213.164062 C 304.472656 213.140625 304.5 213.105469 304.511719 213.082031 Z M 304.953125 212.253906 C 305.128906 211.90625 305.300781 211.554688 305.488281 211.179688 C 305.3125 211.53125 305.144531 211.898438 304.953125 212.253906 Z M 212.117188 207.261719 C 211.96875 206.886719 211.855469 206.5 211.71875 206.105469 C 211.582031 205.707031 211.453125 205.285156 211.324219 204.863281 C 211.257812 204.664062 211.179688 204.449219 211.121094 204.226562 C 211.0625 204 211.011719 203.796875 210.949219 203.570312 C 210.832031 203.125 210.714844 202.679688 210.578125 202.238281 L 210.488281 201.902344 C 210.460938 201.792969 210.429688 201.679688 210.417969 201.558594 C 210.375 201.328125 210.316406 201.105469 210.273438 200.875 C 210.171875 200.417969 210.066406 199.945312 209.964844 199.492188 C 209.878906 199.027344 209.796875 198.566406 209.703125 198.085938 C 209.621094 197.621094 209.535156 197.160156 209.46875 196.6875 C 209.410156 196.234375 209.371094 195.773438 209.3125 195.320312 C 209.253906 194.867188 209.203125 194.433594 209.167969 193.988281 C 209.136719 193.542969 209.109375 193.117188 209.089844 192.707031 C 209.074219 192.300781 209.03125 191.882812 209.046875 191.5 C 209.042969 190.707031 209.027344 189.984375 209.0625 189.320312 C 209.125 189.917969 209.195312 190.535156 209.261719 191.148438 C 209.28125 190.871094 209.300781 190.402344 209.296875 189.839844 C 209.296875 189.695312 209.292969 189.550781 209.308594 189.398438 C 209.320312 189.246094 209.3125 189.082031 209.324219 188.929688 C 209.347656 188.609375 209.359375 188.269531 209.367188 187.910156 C 209.378906 187.570312 209.386719 187.214844 209.40625 186.851562 C 209.4375 186.503906 209.46875 186.15625 209.5 185.808594 C 209.550781 185.136719 209.601562 184.507812 209.683594 183.992188 C 209.683594 184.222656 209.65625 184.441406 209.644531 184.699219 C 209.628906 184.933594 209.617188 185.191406 209.601562 185.429688 C 209.574219 185.921875 209.507812 186.429688 209.472656 186.945312 C 209.574219 185.921875 209.574219 185.921875 209.664062 184.917969 C 209.632812 185.871094 209.539062 186.957031 209.554688 188.097656 C 209.558594 188.386719 209.546875 188.683594 209.554688 188.972656 C 209.554688 189.117188 209.558594 189.265625 209.542969 189.417969 C 209.546875 189.5625 209.558594 189.722656 209.5625 189.867188 C 209.578125 190.464844 209.605469 191.078125 209.632812 191.691406 C 209.800781 194.140625 210.132812 196.679688 210.589844 198.894531 C 210.632812 199.167969 210.714844 199.445312 210.773438 199.710938 C 210.828125 199.976562 210.90625 200.234375 210.960938 200.5 C 211.035156 200.757812 211.085938 201.007812 211.152344 201.25 C 211.21875 201.488281 211.261719 201.722656 211.347656 201.953125 C 211.625 202.851562 211.859375 203.640625 212.082031 204.273438 C 212.550781 205.5 212.84375 206.097656 212.839844 205.722656 C 212.8125 204.964844 211.597656 201.402344 210.855469 196.710938 C 210.507812 194.363281 210.269531 191.71875 210.246094 189.078125 C 210.257812 188.40625 210.257812 187.757812 210.265625 187.085938 C 210.300781 186.425781 210.34375 185.78125 210.386719 185.136719 C 210.394531 184.964844 210.40625 184.8125 210.414062 184.644531 C 210.429688 184.492188 210.453125 184.3125 210.46875 184.160156 C 210.503906 183.828125 210.535156 183.523438 210.582031 183.210938 C 210.609375 182.90625 210.65625 182.59375 210.6875 182.289062 C 210.730469 181.976562 210.785156 181.679688 210.839844 181.382812 C 210.8125 181.644531 210.777344 181.890625 210.75 182.15625 C 210.722656 182.417969 210.714844 182.671875 210.6875 182.933594 C 210.648438 183.453125 210.617188 183.988281 210.570312 184.53125 C 210.542969 185.066406 210.539062 185.609375 210.515625 186.160156 C 210.511719 186.433594 210.492188 186.714844 210.492188 186.984375 C 210.488281 187.257812 210.488281 187.53125 210.492188 187.820312 C 210.496094 188.382812 210.507812 188.917969 210.511719 189.480469 C 210.53125 190.035156 210.578125 190.597656 210.597656 191.152344 C 210.621094 191.433594 210.621094 191.707031 210.644531 191.988281 C 210.664062 192.269531 210.6875 192.550781 210.730469 192.824219 L 210.816406 193.660156 C 210.839844 193.945312 210.859375 194.226562 210.902344 194.5 L 211.140625 196.183594 L 211.203125 196.597656 L 211.285156 197.015625 L 211.449219 197.839844 C 211.644531 198.960938 211.941406 200.039062 212.203125 201.128906 C 212.816406 203.269531 213.492188 205.367188 214.367188 207.304688 C 214.199219 206.839844 214.046875 206.410156 213.910156 206.011719 C 213.789062 205.605469 213.667969 205.203125 213.558594 204.773438 C 213.5 204.550781 213.429688 204.351562 213.363281 204.109375 C 213.296875 203.867188 213.210938 203.636719 213.15625 203.371094 C 213.023438 202.84375 212.859375 202.25 212.65625 201.570312 C 212.578125 201.355469 212.535156 201.125 212.484375 200.917969 L 212.332031 200.257812 L 212.027344 198.933594 L 211.78125 197.605469 L 211.664062 196.929688 C 211.621094 196.699219 211.589844 196.484375 211.554688 196.269531 C 211.308594 194.480469 211.101562 192.675781 211.035156 190.871094 C 210.847656 187.265625 210.957031 184 211.671875 180.820312 C 211.71875 180.507812 211.765625 180.195312 211.835938 179.890625 C 211.945312 179.257812 212.011719 178.664062 212.121094 178.03125 C 212.144531 177.851562 212.195312 177.683594 212.234375 177.542969 C 212.265625 177.382812 212.324219 177.230469 212.347656 177.09375 C 212.425781 176.808594 212.496094 176.546875 212.574219 176.304688 C 212.652344 176.058594 212.710938 175.824219 212.761719 175.613281 C 212.832031 175.394531 212.898438 175.175781 212.972656 174.976562 C 213.109375 174.539062 213.246094 174.101562 213.40625 173.570312 C 213.472656 173.308594 213.578125 173.035156 213.683594 172.714844 C 213.792969 172.394531 213.890625 172.058594 214.015625 171.6875 C 214.050781 171.671875 214.035156 171.785156 213.996094 171.96875 C 214.054688 171.734375 214.152344 171.480469 214.246094 171.1875 C 214.351562 170.910156 214.472656 170.625 214.585938 170.324219 C 214.703125 170.023438 214.824219 169.738281 214.9375 169.4375 C 214.996094 169.285156 215.042969 169.160156 215.097656 169.007812 C 215.164062 168.875 215.203125 168.734375 215.25 168.605469 C 215.320312 168.574219 215.390625 168.542969 215.515625 168.363281 C 218.417969 162.085938 222.671875 156.347656 228.082031 151.796875 C 228.496094 151.464844 228.886719 151.121094 229.296875 150.789062 C 229.71875 150.476562 230.121094 150.167969 230.542969 149.851562 C 230.746094 149.699219 230.964844 149.535156 231.167969 149.382812 C 231.375 149.246094 231.59375 149.085938 231.804688 148.949219 C 232.234375 148.652344 232.652344 148.378906 233.082031 148.082031 C 233.457031 147.847656 233.832031 147.617188 234.207031 147.382812 C 234.582031 147.152344 234.949219 146.902344 235.347656 146.679688 C 235.75 146.457031 236.132812 146.242188 236.539062 146.039062 C 236.941406 145.816406 237.339844 145.59375 237.757812 145.40625 C 238.164062 145.199219 238.546875 144.984375 238.878906 144.796875 C 239.210938 144.605469 239.460938 144.425781 239.671875 144.332031 C 240.222656 144.125 240.785156 143.890625 241.355469 143.675781 C 241.496094 143.613281 241.640625 143.566406 241.78125 143.503906 C 241.925781 143.460938 242.074219 143.414062 242.21875 143.371094 C 242.511719 143.277344 242.796875 143.171875 243.105469 143.074219 C 243.398438 142.984375 243.703125 142.867188 244.011719 142.769531 C 244.324219 142.671875 244.625 142.597656 244.960938 142.507812 C 245.277344 142.425781 245.585938 142.328125 245.921875 142.238281 C 246.085938 142.1875 246.25 142.132812 246.421875 142.097656 C 246.59375 142.0625 246.765625 142.027344 246.929688 141.972656 C 247.128906 141.90625 247.460938 141.816406 247.851562 141.703125 C 248.21875 141.597656 248.660156 141.460938 249.089844 141.351562 C 249.609375 141.304688 250.15625 141.222656 250.75 141.144531 C 250.953125 141.09375 251.195312 141.070312 251.40625 141.035156 L 252.058594 140.949219 C 252.484375 140.882812 252.921875 140.832031 253.367188 140.753906 C 253.8125 140.722656 254.246094 140.671875 254.675781 140.644531 L 255.332031 140.578125 L 255.65625 140.554688 L 255.980469 140.535156 C 257.730469 140.433594 259.464844 140.402344 261.207031 140.511719 L 261.199219 140.496094 C 261.621094 140.511719 262.074219 140.539062 262.523438 140.5625 C 262.972656 140.589844 263.4375 140.652344 263.894531 140.695312 C 264.828125 140.773438 265.785156 140.949219 266.765625 141.089844 C 267.257812 141.160156 267.726562 141.28125 268.226562 141.367188 L 268.960938 141.515625 C 269.214844 141.570312 269.441406 141.613281 269.679688 141.671875 C 270.628906 141.929688 271.597656 142.140625 272.53125 142.449219 C 272.996094 142.59375 273.449219 142.722656 273.910156 142.867188 C 274.355469 143.023438 274.800781 143.175781 275.226562 143.339844 C 275.867188 143.550781 276.476562 143.796875 277.0625 144.03125 L 278.019531 144.433594 C 278.351562 144.578125 278.660156 144.75 278.996094 144.890625 L 279.964844 145.371094 L 280.449219 145.613281 L 280.921875 145.878906 C 280.75 145.726562 280.71875 145.65625 280.710938 145.597656 C 280.585938 145.550781 280.46875 145.476562 280.335938 145.410156 C 280.203125 145.347656 280.070312 145.28125 279.917969 145.226562 C 279.683594 145.121094 279.441406 145.003906 279.207031 144.898438 C 280.085938 145.273438 280.867188 145.613281 281.5 145.910156 C 281.78125 146.074219 282.074219 146.253906 282.363281 146.4375 C 282.664062 146.636719 282.960938 146.835938 283.257812 147.035156 C 283.558594 147.234375 283.882812 147.441406 284.207031 147.648438 C 284.511719 147.867188 284.84375 148.089844 285.175781 148.316406 C 286.84375 149.378906 288.402344 150.613281 289.925781 151.867188 L 291.046875 152.863281 L 291.605469 153.363281 L 292.136719 153.894531 C 292.480469 154.238281 292.847656 154.59375 293.191406 154.941406 C 293.542969 155.300781 293.859375 155.679688 294.210938 156.042969 C 294.460938 156.265625 294.308594 156.023438 294.328125 155.972656 C 295.484375 157.285156 296.542969 158.707031 297.574219 160.160156 C 299.445312 162.734375 301.0625 165.53125 302.394531 168.476562 C 302.582031 168.808594 302.742188 169.152344 302.898438 169.5 C 303.054688 169.847656 303.226562 170.183594 303.382812 170.53125 C 303.433594 170.738281 303.519531 170.972656 303.59375 171.230469 C 303.667969 171.488281 303.75 171.761719 303.851562 172.074219 L 304.15625 172.9375 C 304.265625 173.222656 304.371094 173.507812 304.4375 173.789062 C 304.617188 174.375 304.773438 174.953125 304.957031 175.539062 C 305.023438 175.734375 305.074219 175.941406 305.117188 176.171875 C 305.175781 176.398438 305.234375 176.621094 305.277344 176.851562 C 305.34375 177.09375 305.394531 177.34375 305.460938 177.582031 C 305.535156 177.839844 305.59375 178.105469 305.652344 178.375 C 305.757812 178.929688 305.871094 179.503906 305.992188 180.097656 C 306.066406 180.398438 306.105469 180.714844 306.144531 181.03125 C 306.179688 181.347656 306.246094 181.671875 306.292969 182.007812 C 306.671875 184.652344 306.859375 187.695312 306.734375 190.796875 C 306.757812 191.265625 306.761719 191.640625 306.753906 191.851562 C 306.726562 192.304688 306.675781 192.742188 306.640625 193.175781 C 306.589844 193.617188 306.574219 194.042969 306.496094 194.472656 C 306.4375 194.894531 306.378906 195.320312 306.320312 195.742188 C 306.257812 196.164062 306.191406 196.570312 306.109375 196.984375 C 306.042969 197.347656 305.96875 197.695312 305.914062 198.03125 C 305.839844 198.378906 305.792969 198.734375 305.710938 199.0625 C 305.539062 199.746094 305.386719 200.417969 305.242188 201.070312 C 305.054688 201.714844 304.867188 202.363281 304.707031 202.980469 C 304.671875 203.140625 304.617188 203.289062 304.558594 203.441406 C 304.503906 203.59375 304.460938 203.734375 304.40625 203.886719 C 304.308594 204.179688 304.210938 204.472656 304.117188 204.769531 C 303.941406 205.347656 303.707031 205.890625 303.503906 206.421875 C 303.410156 206.671875 303.296875 206.929688 303.203125 207.183594 C 303.15625 207.308594 303.109375 207.433594 303.0625 207.558594 C 303.011719 207.6875 302.957031 207.792969 302.902344 207.902344 C 302.484375 208.824219 302.152344 209.660156 301.804688 210.320312 C 301.414062 211.121094 301.480469 211.132812 301.789062 210.699219 C 301.941406 210.484375 302.148438 210.164062 302.410156 209.773438 C 302.648438 209.375 302.914062 208.898438 303.171875 208.40625 C 303.308594 208.15625 303.445312 207.90625 303.585938 207.65625 C 303.714844 207.390625 303.835938 207.148438 303.953125 206.90625 C 304.1875 206.40625 304.433594 205.9375 304.628906 205.539062 C 304.992188 204.726562 305.242188 204.21875 305.210938 204.421875 C 304.839844 206.464844 303.890625 209.167969 302.199219 212.351562 C 301.328125 213.933594 300.332031 215.65625 299.0625 217.417969 C 298.464844 218.3125 297.742188 219.203125 297.039062 220.144531 C 296.28125 221.050781 295.519531 222 294.648438 222.9375 C 293.699219 223.972656 294.0625 223.621094 294.6875 223.023438 C 294.992188 222.71875 295.371094 222.359375 295.679688 222.074219 C 295.980469 221.773438 296.195312 221.550781 296.230469 221.535156 C 296.101562 221.71875 295.957031 221.90625 295.8125 222.140625 C 295.660156 222.355469 295.464844 222.570312 295.277344 222.800781 C 294.636719 223.464844 294.023438 224.136719 293.34375 224.757812 L 292.761719 225.3125 C 292.574219 225.5 292.371094 225.695312 292.167969 225.851562 L 290.953125 226.898438 C 291.164062 226.722656 291.394531 226.535156 291.605469 226.355469 C 292.898438 225.25 294.101562 224.082031 295.136719 222.945312 C 294.972656 223.144531 294.796875 223.351562 294.617188 223.554688 C 294.386719 223.828125 294.152344 224.097656 293.894531 224.363281 C 293.640625 224.625 293.371094 224.910156 293.113281 225.171875 L 292.714844 225.582031 L 292.519531 225.796875 L 292.316406 225.992188 C 291.761719 226.515625 291.222656 227.03125 290.726562 227.503906 C 293.6875 225.144531 296.371094 222.449219 298.71875 219.472656 L 299.15625 218.917969 C 299.300781 218.730469 299.445312 218.539062 299.589844 218.347656 L 300.425781 217.199219 C 300.710938 216.820312 300.949219 216.421875 301.203125 216.011719 L 301.796875 214.828125 L 302.507812 213.589844 C 302.738281 213.171875 302.992188 212.765625 303.195312 212.339844 C 303.628906 211.496094 304.085938 210.664062 304.460938 209.785156 L 305.050781 208.5 L 305.578125 207.175781 C 305.953125 206.296875 306.234375 205.398438 306.542969 204.507812 C 306.609375 204.289062 306.695312 204.0625 306.765625 203.84375 L 306.960938 203.171875 L 307.363281 201.800781 C 307.492188 201.34375 307.597656 200.882812 307.699219 200.417969 L 307.863281 199.71875 C 307.925781 199.480469 307.96875 199.253906 308.011719 199.023438 C 308.769531 195.300781 309.125 191.511719 309.035156 187.714844 C 309.09375 190.566406 308.84375 193.390625 308.394531 196.140625 C 307.941406 198.871094 307.265625 201.53125 306.398438 204.050781 C 307.15625 201.707031 307.753906 199.289062 308.179688 196.863281 C 308.582031 194.425781 308.816406 191.941406 308.882812 189.453125 L 308.894531 187.589844 C 308.898438 187.273438 308.886719 186.96875 308.871094 186.660156 L 308.824219 185.722656 C 308.8125 185.417969 308.796875 185.109375 308.777344 184.785156 L 308.6875 183.84375 L 308.597656 182.90625 L 308.554688 182.445312 L 308.488281 181.972656 C 308.394531 181.347656 308.308594 180.742188 308.210938 180.117188 C 308.101562 179.5 307.972656 178.890625 307.859375 178.273438 C 307.804688 177.964844 307.75 177.65625 307.675781 177.355469 L 307.449219 176.4375 L 307.21875 175.515625 C 307.175781 175.371094 307.148438 175.214844 307.101562 175.070312 L 306.957031 174.613281 L 306.363281 172.691406 L 305.679688 170.808594 L 305.511719 170.34375 C 305.4375 170.1875 305.367188 170.03125 305.324219 169.886719 L 304.933594 168.976562 L 304.535156 168.050781 C 304.394531 167.738281 304.246094 167.453125 304.105469 167.140625 L 303.65625 166.238281 C 303.496094 165.933594 303.363281 165.636719 303.207031 165.332031 L 302.246094 163.578125 C 302.15625 163.429688 302.078125 163.296875 301.992188 163.148438 L 301.734375 162.722656 L 301.207031 161.875 L 300.953125 161.449219 L 300.816406 161.238281 L 300.679688 161.03125 L 300.117188 160.199219 C 297.117188 155.777344 293.371094 151.917969 289.1875 148.65625 C 289.550781 148.90625 289.957031 149.203125 290.359375 149.5 C 290.773438 149.816406 291.203125 150.121094 291.625 150.496094 C 291.449219 150.34375 291.277344 150.191406 291.089844 150.050781 L 290.535156 149.609375 L 289.429688 148.734375 C 289.066406 148.4375 288.675781 148.175781 288.304688 147.90625 C 287.933594 147.636719 287.554688 147.347656 287.164062 147.085938 L 285.984375 146.324219 C 285.59375 146.0625 285.207031 145.800781 284.796875 145.589844 C 283.980469 145.121094 283.191406 144.621094 282.359375 144.207031 C 281.851562 143.957031 281.339844 143.707031 280.8125 143.464844 L 279.257812 142.789062 C 279.636719 142.933594 280.539062 143.316406 281.183594 143.589844 C 276 141.027344 270.417969 139.335938 264.742188 138.644531 C 259.078125 137.925781 253.355469 138.277344 247.945312 139.46875 C 248.8125 139.265625 249.246094 139.15625 249.632812 139.042969 C 249.347656 139.109375 249.039062 139.164062 248.757812 139.230469 C 248.472656 139.292969 248.164062 139.351562 247.863281 139.421875 C 247.082031 139.628906 246.289062 139.820312 245.515625 140.046875 C 244.75 140.289062 243.980469 140.527344 243.234375 140.761719 C 243.972656 140.511719 244.742188 140.269531 245.507812 140.027344 C 246.28125 139.804688 247.074219 139.613281 247.839844 139.414062 C 248.148438 139.316406 248.480469 139.269531 248.800781 139.1875 C 249.125 139.125 249.445312 139.042969 249.769531 138.980469 C 249.953125 138.917969 250.15625 138.867188 250.40625 138.816406 C 250.65625 138.769531 250.972656 138.730469 251.390625 138.6875 C 254.378906 138.191406 257.21875 138.015625 259.300781 138.097656 C 260.304688 138.101562 261.289062 138.199219 262.257812 138.265625 C 262.75 138.292969 263.238281 138.363281 263.714844 138.398438 C 264.199219 138.453125 264.679688 138.503906 265.164062 138.558594 C 265.636719 138.636719 266.109375 138.714844 266.59375 138.769531 C 267.066406 138.847656 267.53125 138.90625 267.996094 139.011719 C 268.933594 139.191406 269.863281 139.355469 270.765625 139.597656 C 274.398438 140.480469 277.8125 141.710938 280.886719 143.304688 C 282.3125 144.058594 281.917969 143.925781 281.175781 143.574219 C 281.558594 143.773438 281.96875 143.988281 282.351562 144.191406 L 283.234375 144.625 L 284.101562 145.109375 C 284.667969 145.4375 285.261719 145.734375 285.824219 146.105469 C 286.378906 146.460938 286.953125 146.804688 287.5 147.183594 C 288.046875 147.5625 288.582031 147.96875 289.128906 148.347656 C 291.519531 150.167969 293.726562 152.195312 295.714844 154.382812 C 295.914062 154.585938 296.117188 154.808594 296.3125 155.011719 C 296.507812 155.214844 296.695312 155.445312 296.882812 155.671875 C 296.6875 155.46875 296.515625 155.234375 296.3125 155.011719 C 301.320312 160.742188 304.941406 167.511719 306.992188 174.640625 C 307.164062 175.164062 307.28125 175.699219 307.421875 176.238281 L 307.636719 177.039062 C 307.710938 177.296875 307.777344 177.582031 307.835938 177.847656 C 308.054688 178.9375 308.308594 180.011719 308.453125 181.113281 C 308.820312 183.304688 308.984375 185.523438 309.0625 187.722656 L 309.058594 187.347656 L 309.039062 186.984375 L 309.007812 186.222656 C 308.988281 185.710938 308.972656 185.21875 308.925781 184.699219 C 308.886719 184.195312 308.820312 183.679688 308.78125 183.175781 L 308.707031 182.417969 L 308.59375 181.65625 L 308.371094 180.148438 C 308.289062 179.644531 308.175781 179.152344 308.09375 178.648438 L 307.941406 177.902344 L 307.871094 177.515625 L 307.785156 177.140625 L 307.410156 175.660156 C 307.292969 175.171875 307.152344 174.671875 306.992188 174.179688 L 306.558594 172.707031 C 306.378906 172.222656 306.210938 171.757812 306.050781 171.265625 C 305.875 170.785156 305.722656 170.308594 305.511719 169.839844 C 305.320312 169.367188 305.132812 168.90625 304.9375 168.433594 C 304.835938 168.207031 304.746094 167.957031 304.644531 167.730469 L 304.3125 167.046875 C 304.101562 166.578125 303.878906 166.136719 303.667969 165.667969 C 303.441406 165.207031 303.203125 164.773438 302.964844 164.335938 C 305.683594 168.972656 307.757812 174.585938 308.769531 180.46875 C 308.171875 176.652344 307.078125 172.890625 305.59375 169.28125 C 305.457031 168.929688 305.324219 168.589844 305.175781 168.261719 C 305.097656 168.089844 305.042969 167.925781 304.964844 167.753906 C 304.886719 167.578125 304.816406 167.421875 304.738281 167.25 C 304.441406 166.589844 304.125 165.941406 303.84375 165.316406 C 303.527344 164.707031 303.21875 164.117188 302.953125 163.570312 C 302.683594 163.023438 302.378906 162.535156 302.152344 162.074219 C 304.117188 165.363281 305.429688 168.273438 306.527344 171.074219 C 304.285156 164.910156 300.851562 159.054688 296.308594 154.035156 C 296.089844 153.777344 295.859375 153.546875 295.640625 153.292969 C 295.527344 153.175781 295.421875 153.035156 295.304688 152.921875 C 295.191406 152.804688 295.078125 152.691406 294.960938 152.574219 C 295.078125 152.691406 295.191406 152.804688 295.304688 152.921875 L 295.640625 153.292969 C 295.851562 153.53125 296.089844 153.777344 296.300781 154.015625 C 298.789062 156.753906 301.085938 159.804688 302.996094 163.113281 C 304.90625 166.421875 306.417969 169.953125 307.4375 173.5 L 307.222656 172.886719 C 307.152344 172.6875 307.078125 172.472656 307.007812 172.273438 C 306.84375 171.867188 306.683594 171.460938 306.539062 171.046875 C 307.0625 172.4375 307.472656 173.859375 307.882812 175.277344 C 308.0625 175.992188 308.238281 176.707031 308.414062 177.417969 C 308.554688 178.148438 308.6875 178.859375 308.847656 179.582031 C 309.363281 182.476562 309.621094 185.40625 309.640625 188.316406 C 309.664062 191.226562 309.429688 194.128906 308.949219 196.996094 C 308.460938 199.84375 307.730469 202.65625 306.796875 205.394531 C 306.949219 205.035156 307.089844 204.65625 307.230469 204.277344 C 307.375 203.902344 307.5 203.488281 307.628906 203.078125 C 307.753906 202.664062 307.898438 202.246094 308.019531 201.816406 C 308.128906 201.371094 308.25 200.941406 308.351562 200.476562 C 308.808594 198.664062 309.132812 196.703125 309.378906 194.714844 C 309.828125 190.714844 309.769531 186.570312 309.484375 183.027344 C 310.257812 189.3125 309.792969 195.90625 308.035156 202.226562 C 306.304688 208.554688 303.285156 214.613281 299.222656 219.847656 C 295.167969 225.101562 290.058594 229.496094 284.390625 232.742188 C 281.5625 234.375 278.597656 235.710938 275.5625 236.792969 C 272.53125 237.847656 269.414062 238.609375 266.304688 239.074219 L 267.964844 238.824219 C 268.515625 238.742188 269.0625 238.621094 269.621094 238.515625 C 270.726562 238.328125 271.800781 238.03125 272.894531 237.769531 C 275.042969 237.171875 277.171875 236.480469 279.234375 235.59375 C 281.316406 234.757812 283.316406 233.730469 285.28125 232.632812 C 285.761719 232.355469 286.25 232.050781 286.726562 231.769531 C 286.972656 231.617188 287.222656 231.484375 287.441406 231.324219 L 288.152344 230.855469 C 288.613281 230.542969 289.101562 230.238281 289.558594 229.910156 C 290.015625 229.578125 290.460938 229.230469 290.917969 228.898438 C 290.574219 229.15625 290.214844 229.425781 289.855469 229.691406 C 289.671875 229.835938 289.503906 229.972656 289.3125 230.101562 C 289.121094 230.230469 288.9375 230.378906 288.742188 230.507812 C 288.347656 230.789062 287.964844 231.046875 287.570312 231.328125 C 287.527344 231.367188 287.457031 231.398438 287.414062 231.441406 C 289.648438 229.972656 291.730469 228.386719 293.679688 226.609375 C 294.238281 226.085938 294.792969 225.5625 295.351562 225.039062 C 295.828125 224.53125 296.316406 224.039062 296.796875 223.53125 C 295.117188 225.355469 293.339844 227.054688 291.414062 228.613281 C 288.238281 231.191406 284.765625 233.386719 281.128906 235.175781 C 280.589844 235.460938 280.082031 235.667969 279.613281 235.878906 C 279.164062 236.085938 278.746094 236.273438 278.398438 236.429688 C 277.683594 236.730469 277.136719 236.957031 276.773438 237.121094 C 276.027344 237.457031 275.949219 237.558594 276.265625 237.519531 C 276.582031 237.480469 277.320312 237.269531 278.199219 237 C 278.636719 236.863281 279.113281 236.667969 279.589844 236.476562 C 280.066406 236.28125 280.566406 236.097656 281.007812 235.875 C 282.136719 235.324219 283.28125 234.808594 284.371094 234.171875 C 284.640625 234.027344 284.917969 233.859375 285.1875 233.71875 C 285.316406 233.636719 285.457031 233.574219 285.585938 233.496094 L 285.980469 233.257812 C 286.503906 232.9375 287.042969 232.609375 287.566406 232.289062 C 288.082031 231.953125 288.589844 231.597656 289.097656 231.242188 C 289.351562 231.066406 289.605469 230.890625 289.859375 230.710938 C 290.113281 230.535156 290.339844 230.347656 290.585938 230.152344 C 291.070312 229.789062 291.570312 229.417969 292.042969 229.035156 C 292.511719 228.636719 292.984375 228.257812 293.433594 227.867188 C 295.257812 226.269531 297 224.585938 298.554688 222.757812 L 299.152344 222.09375 C 299.339844 221.863281 299.527344 221.632812 299.714844 221.402344 C 300.089844 220.9375 300.464844 220.476562 300.832031 220 C 301.519531 219.019531 302.246094 218.089844 302.871094 217.074219 C 308.054688 209.144531 310.972656 199.898438 311.164062 190.445312 C 311.167969 190.171875 311.1875 189.890625 311.183594 189.601562 L 311.164062 188.777344 C 311.144531 188.222656 311.140625 187.660156 311.117188 187.105469 C 311.082031 186.5625 311.035156 185.996094 310.996094 185.453125 C 310.972656 185.167969 310.960938 184.90625 310.9375 184.625 L 310.832031 183.792969 L 310.644531 182.128906 L 310.316406 180.523438 L 310.175781 179.710938 L 309.996094 178.894531 L 309.652344 177.253906 C 308.617188 172.925781 307.027344 168.71875 304.972656 164.765625 C 304.371094 163.660156 303.746094 162.417969 302.996094 161.214844 C 302.820312 160.917969 302.636719 160.605469 302.433594 160.300781 C 302.234375 159.996094 302.042969 159.707031 301.847656 159.417969 C 301.65625 159.128906 301.453125 158.824219 301.246094 158.542969 C 301.140625 158.402344 301.050781 158.253906 300.945312 158.113281 C 300.84375 157.972656 300.738281 157.832031 300.632812 157.691406 C 300.21875 157.148438 299.808594 156.605469 299.425781 156.089844 C 299.011719 155.585938 298.613281 155.121094 298.25 154.679688 C 298.0625 154.453125 297.882812 154.238281 297.710938 154.046875 C 297.523438 153.859375 297.351562 153.667969 297.191406 153.488281 C 296.863281 153.136719 296.558594 152.835938 296.308594 152.550781 C 293.546875 149.8125 290.429688 147.386719 287.039062 145.285156 C 285.34375 144.214844 283.578125 143.300781 281.757812 142.414062 C 281.304688 142.199219 280.820312 142 280.371094 141.789062 C 279.902344 141.582031 279.449219 141.367188 278.953125 141.195312 C 278 140.835938 277.054688 140.449219 276.078125 140.136719 C 275.589844 139.984375 275.113281 139.800781 274.609375 139.65625 C 274.109375 139.523438 273.605469 139.375 273.125 139.238281 C 272.882812 139.160156 272.621094 139.089844 272.386719 139.03125 L 271.617188 138.855469 C 271.105469 138.734375 270.617188 138.621094 270.101562 138.496094 C 268.046875 138.109375 265.988281 137.75 263.863281 137.621094 C 262.8125 137.511719 261.742188 137.496094 260.679688 137.453125 C 260.425781 137.441406 260.152344 137.441406 259.878906 137.4375 L 258.261719 137.460938 L 257.863281 137.453125 L 257.453125 137.46875 C 256.925781 137.5 256.378906 137.539062 255.851562 137.570312 L 255.441406 137.585938 C 255.304688 137.605469 255.183594 137.617188 255.039062 137.621094 L 254.226562 137.71875 L 253.414062 137.8125 C 253.132812 137.835938 252.878906 137.867188 252.605469 137.910156 C 252.054688 137.988281 251.535156 138.078125 250.984375 138.160156 C 247.132812 138.773438 243.285156 139.90625 239.597656 141.488281 C 239.144531 141.691406 238.660156 141.867188 238.21875 142.089844 C 237.777344 142.308594 237.316406 142.539062 236.867188 142.742188 L 236.179688 143.070312 C 235.957031 143.171875 235.746094 143.308594 235.511719 143.4375 C 235.078125 143.675781 234.625 143.921875 234.179688 144.183594 L 233.847656 144.375 C 233.734375 144.445312 233.640625 144.511719 233.527344 144.582031 L 232.871094 144.984375 C 232.453125 145.257812 232.007812 145.519531 231.589844 145.792969 L 230.335938 146.671875 L 229.714844 147.097656 C 229.507812 147.234375 229.3125 147.402344 229.109375 147.558594 L 227.90625 148.496094 L 227.601562 148.738281 L 227.316406 148.992188 L 226.730469 149.488281 C 226.339844 149.832031 225.9375 150.136719 225.574219 150.488281 L 224.460938 151.535156 L 223.902344 152.058594 L 223.378906 152.605469 L 222.332031 153.707031 C 221.984375 154.09375 221.65625 154.46875 221.324219 154.847656 C 220.996094 155.226562 220.648438 155.613281 220.351562 156.019531 C 219.734375 156.820312 219.089844 157.609375 218.503906 158.4375 C 218.214844 158.863281 217.910156 159.25 217.628906 159.6875 C 217.355469 160.105469 217.074219 160.542969 216.804688 160.957031 L 216.40625 161.597656 L 216.03125 162.246094 C 215.765625 162.679688 215.527344 163.121094 215.28125 163.542969 C 215.042969 163.988281 214.8125 164.445312 214.589844 164.878906 C 214.375 165.332031 214.113281 165.761719 213.925781 166.222656 C 212.222656 169.847656 210.933594 173.601562 210.085938 177.40625 C 209.257812 181.203125 208.875 185.023438 208.863281 188.742188 C 208.855469 192.460938 209.246094 196.101562 209.960938 199.535156 C 210.660156 202.972656 211.671875 206.230469 212.871094 209.253906 C 212.636719 208.691406 212.390625 208.011719 212.117188 207.261719 Z M 310.175781 181.003906 C 310.296875 181.636719 310.402344 182.238281 310.460938 182.835938 C 310.523438 183.433594 310.570312 183.996094 310.625 184.535156 C 310.664062 185.082031 310.660156 185.625 310.679688 186.136719 C 310.726562 188.222656 310.558594 190.070312 310.457031 192.058594 C 310.28125 194.765625 309.917969 197.476562 309.320312 200.125 C 309.15625 200.78125 308.996094 201.4375 308.859375 202.105469 C 308.671875 202.753906 308.484375 203.402344 308.296875 204.046875 C 308.214844 204.378906 308.109375 204.695312 307.976562 205.007812 L 307.660156 205.964844 C 307.554688 206.28125 307.445312 206.601562 307.316406 206.910156 C 307.183594 207.222656 307.070312 207.523438 306.945312 207.851562 C 306.703125 208.460938 306.464844 209.089844 306.175781 209.699219 C 305.90625 210.300781 305.632812 210.902344 305.347656 211.515625 C 305.050781 212.105469 304.746094 212.679688 304.453125 213.273438 C 304.3125 213.566406 304.132812 213.855469 303.984375 214.132812 C 303.820312 214.414062 303.65625 214.699219 303.492188 214.980469 C 303.328125 215.261719 303.179688 215.539062 302.996094 215.828125 C 302.824219 216.09375 302.660156 216.378906 302.472656 216.652344 C 302.109375 217.1875 301.800781 217.746094 301.421875 218.25 C 301.050781 218.773438 300.683594 219.292969 300.324219 219.789062 C 299.9375 220.277344 299.542969 220.789062 299.15625 221.277344 C 301.1875 218.753906 302.972656 216.050781 304.480469 213.199219 C 303.460938 215.097656 302.363281 216.824219 301.183594 218.503906 C 300.976562 218.785156 300.769531 219.066406 300.578125 219.339844 L 300.273438 219.773438 L 299.949219 220.167969 C 299.503906 220.703125 299.082031 221.246094 298.625 221.808594 C 298.152344 222.335938 297.664062 222.867188 297.183594 223.417969 C 296.695312 223.953125 296.15625 224.46875 295.625 225 C 295.925781 224.65625 296.316406 224.226562 296.753906 223.757812 C 296.984375 223.53125 297.179688 223.273438 297.402344 223.027344 C 297.625 222.78125 297.839844 222.519531 298.0625 222.269531 C 298.277344 222.007812 298.492188 221.785156 298.6875 221.53125 C 298.867188 221.28125 299.054688 221.050781 299.210938 220.835938 C 299.523438 220.421875 299.777344 220.058594 299.894531 219.859375 C 299.445312 220.4375 298.996094 221.015625 298.515625 221.566406 C 298.980469 220.980469 299.449219 220.394531 299.921875 219.785156 C 299.914062 219.808594 299.894531 219.816406 299.886719 219.839844 C 304.25 214.074219 307.398438 207.375 309.089844 200.351562 C 309.925781 196.847656 310.433594 193.257812 310.53125 189.6875 C 310.621094 186.101562 310.363281 182.523438 309.746094 179.027344 C 309.949219 179.707031 310.058594 180.367188 310.175781 181.003906 Z M 297.046875 223.210938 C 297.457031 222.730469 297.886719 222.246094 298.3125 221.761719 C 297.902344 222.238281 297.476562 222.722656 297.046875 223.210938 Z M 304.511719 213.082031 C 304.65625 212.804688 304.804688 212.53125 304.945312 212.238281 C 304.804688 212.53125 304.65625 212.804688 304.511719 213.082031 Z M 299.15625 214.164062 C 298.734375 214.75 298.316406 215.398438 297.808594 216.023438 L 298.265625 215.378906 L 298.703125 214.722656 C 298.984375 214.285156 299.265625 213.84375 299.546875 213.402344 C 300.058594 212.503906 300.613281 211.609375 301.082031 210.664062 C 302.066406 208.824219 302.882812 206.890625 303.617188 204.910156 L 304.132812 203.425781 C 304.230469 203.171875 304.28125 202.917969 304.359375 202.675781 L 304.585938 201.925781 L 304.8125 201.179688 C 304.886719 200.9375 304.933594 200.664062 305.003906 200.402344 C 305.125 199.890625 305.246094 199.375 305.371094 198.859375 C 305.46875 198.335938 305.574219 197.832031 305.667969 197.308594 C 305.722656 197.054688 305.765625 196.785156 305.820312 196.53125 L 305.925781 195.75 C 306 195.21875 306.078125 194.703125 306.152344 194.167969 C 306.207031 193.644531 306.253906 193.101562 306.308594 192.574219 L 306.324219 192.566406 C 306.070312 195.980469 305.277344 200.089844 304.046875 203.734375 C 303.890625 204.179688 303.730469 204.652344 303.585938 205.070312 C 303.515625 205.289062 303.429688 205.515625 303.335938 205.726562 C 303.246094 205.933594 303.175781 206.152344 303.082031 206.359375 C 302.914062 206.773438 302.769531 207.191406 302.601562 207.601562 C 302.421875 207.996094 302.261719 208.378906 302.09375 208.746094 C 302.011719 208.929688 301.925781 209.113281 301.859375 209.292969 C 301.816406 209.375 301.777344 209.476562 301.75 209.550781 C 301.703125 209.632812 301.65625 209.71875 301.617188 209.816406 C 301.460938 210.160156 301.292969 210.484375 301.144531 210.804688 C 300.996094 211.121094 300.859375 211.414062 300.734375 211.699219 C 300.589844 211.972656 300.476562 212.230469 300.355469 212.472656 C 299.960938 212.984375 299.597656 213.566406 299.15625 214.164062 Z M 248.871094 236.640625 C 251.269531 237.1875 253.710938 237.5625 256.164062 237.769531 L 258.003906 237.878906 C 258.3125 237.90625 258.617188 237.894531 258.933594 237.898438 L 259.859375 237.917969 C 260.171875 237.921875 260.472656 237.933594 260.777344 237.917969 L 262.621094 237.839844 L 263.089844 237.816406 L 263.550781 237.773438 C 264.171875 237.722656 264.789062 237.652344 265.394531 237.609375 C 266 237.519531 266.632812 237.445312 267.242188 237.359375 C 267.855469 237.289062 268.464844 237.160156 269.082031 237.046875 C 269.699219 236.933594 270.316406 236.824219 270.910156 236.660156 C 270.644531 236.71875 270.371094 236.800781 270.105469 236.859375 L 269.296875 237.011719 C 268.757812 237.109375 268.234375 237.242188 267.6875 237.324219 C 266.605469 237.476562 265.511719 237.679688 264.417969 237.757812 C 262.238281 238.011719 260.023438 238.050781 257.832031 238 C 255 237.878906 252.21875 237.488281 249.527344 236.886719 C 246.835938 236.289062 244.265625 235.445312 241.828125 234.4375 C 244.132812 235.339844 246.488281 236.070312 248.871094 236.640625 Z M 289.929688 224.773438 C 289.597656 225.050781 289.261719 225.328125 288.921875 225.585938 C 288.578125 225.84375 288.210938 226.09375 287.851562 226.359375 C 287.152344 226.886719 286.398438 227.351562 285.675781 227.824219 C 286.410156 227.324219 287.136719 226.851562 287.828125 226.308594 C 288.171875 226.050781 288.53125 225.785156 288.871094 225.523438 C 289.207031 225.25 289.539062 224.972656 289.875 224.695312 C 289.636719 224.90625 289.890625 224.773438 289.929688 224.773438 Z M 275.152344 233.117188 C 274.945312 233.167969 274.714844 233.210938 274.457031 233.285156 C 274.199219 233.359375 273.90625 233.410156 273.613281 233.5 L 274.078125 233.371094 L 274.320312 233.304688 L 274.554688 233.222656 C 274.855469 233.105469 275.164062 233.007812 275.449219 232.898438 C 275.753906 232.785156 276.0625 232.683594 276.347656 232.578125 C 276.496094 232.53125 276.652344 232.460938 276.789062 232.398438 L 277.230469 232.222656 C 276.554688 232.570312 275.855469 232.820312 275.152344 233.117188 Z M 250.066406 234.660156 C 249.863281 234.628906 249.652344 234.578125 249.449219 234.542969 C 249.246094 234.511719 249.046875 234.433594 248.859375 234.394531 C 249.355469 234.523438 249.855469 234.609375 250.363281 234.714844 C 250.613281 234.769531 250.867188 234.820312 251.113281 234.855469 C 251.367188 234.910156 251.621094 234.960938 251.882812 234.988281 L 253.421875 235.210938 L 253.804688 235.269531 L 254.191406 235.300781 C 254.457031 235.328125 254.691406 235.347656 254.957031 235.375 C 254.488281 235.355469 254.113281 235.359375 253.894531 235.332031 C 253.453125 235.28125 253.023438 235.203125 252.589844 235.128906 C 252.371094 235.101562 252.167969 235.070312 251.941406 235.027344 C 251.71875 235 251.515625 234.964844 251.304688 234.914062 C 250.894531 234.832031 250.480469 234.746094 250.066406 234.660156 Z M 250.066406 234.660156 " fill-opacity="1" fill-rule="nonzero"/></g></g></g><path fill="#ffffff" d="M 240.621094 220.960938 C 240.144531 220.960938 239.757812 221.347656 239.757812 221.820312 C 239.757812 222.292969 240.144531 222.683594 240.621094 222.683594 L 247.503906 222.683594 C 247.976562 222.683594 248.363281 222.292969 248.363281 221.820312 C 248.363281 221.347656 247.976562 220.960938 247.503906 220.960938 Z M 240.621094 220.960938 " fill-opacity="1" fill-rule="nonzero"/><path fill="#ffffff" d="M 228.617188 221.5625 C 228.617188 221.765625 228.542969 221.9375 228.402344 222.082031 C 228.257812 222.222656 228.085938 222.292969 227.886719 222.292969 C 227.683594 222.292969 227.511719 222.222656 227.367188 222.082031 C 227.226562 221.9375 227.152344 221.765625 227.152344 221.5625 C 227.152344 221.359375 227.226562 221.1875 227.367188 221.046875 C 227.511719 220.902344 227.683594 220.832031 227.886719 220.832031 C 228.085938 220.832031 228.257812 220.902344 228.402344 221.046875 C 228.542969 221.1875 228.617188 221.359375 228.617188 221.5625 Z M 228.617188 221.5625 " fill-opacity="1" fill-rule="nonzero"/><path fill="#ffffff" d="M 225.734375 221.5625 C 225.734375 221.765625 225.664062 221.9375 225.519531 222.082031 C 225.375 222.222656 225.203125 222.292969 225.003906 222.292969 C 224.800781 222.292969 224.628906 222.222656 224.484375 222.082031 C 224.34375 221.9375 224.269531 221.765625 224.269531 221.5625 C 224.269531 221.359375 224.34375 221.1875 224.484375 221.046875 C 224.628906 220.902344 224.800781 220.832031 225.003906 220.832031 C 225.203125 220.832031 225.375 220.902344 225.519531 221.046875 C 225.664062 221.1875 225.734375 221.359375 225.734375 221.5625 Z M 225.734375 221.5625 " fill-opacity="1" fill-rule="nonzero"/><path fill="#ffffff" d="M 240.058594 201.988281 C 239.800781 201.601562 239.242188 201.472656 238.855469 201.730469 L 231.113281 206.890625 C 230.851562 207.066406 230.722656 207.324219 230.722656 207.625 C 230.722656 207.925781 230.851562 208.183594 231.113281 208.355469 C 231.113281 208.355469 238.855469 213.519531 238.855469 213.519531 C 239.242188 213.777344 239.800781 213.691406 240.058594 213.257812 C 240.316406 212.871094 240.230469 212.3125 239.800781 212.054688 L 233.132812 207.625 L 239.800781 203.191406 C 240.1875 202.933594 240.316406 202.375 240.058594 201.988281 Z M 240.058594 201.988281 " fill-opacity="1" fill-rule="nonzero"/><path fill="#ffffff" d="M 248.0625 213.257812 C 248.320312 213.648438 248.878906 213.777344 249.265625 213.519531 L 257.011719 208.355469 C 257.269531 208.183594 257.398438 207.925781 257.398438 207.625 C 257.398438 207.324219 257.269531 207.066406 257.011719 206.890625 L 249.265625 201.730469 C 248.878906 201.472656 248.320312 201.558594 248.0625 201.988281 C 247.804688 202.375 247.890625 202.933594 248.320312 203.191406 L 254.988281 207.625 L 248.320312 212.054688 C 247.933594 212.3125 247.804688 212.871094 248.0625 213.257812 Z M 248.0625 213.257812 " fill-opacity="1" fill-rule="nonzero"/><path fill="#ffffff" d="M 244.964844 200.957031 L 241.523438 213.863281 C 241.394531 214.335938 241.695312 214.808594 242.125 214.894531 C 242.210938 214.894531 242.253906 214.9375 242.339844 214.9375 C 242.726562 214.9375 243.070312 214.679688 243.15625 214.292969 L 246.601562 201.386719 C 246.730469 200.914062 246.425781 200.4375 245.996094 200.351562 C 245.566406 200.222656 245.09375 200.480469 244.964844 200.957031 Z M 244.964844 200.957031 " fill-opacity="1" fill-rule="nonzero"/><g clip-path="url(#eb1358070b)"><path fill="#ffffff" d="M 240.621094 227.84375 L 238.039062 227.84375 C 237.566406 227.84375 237.175781 228.230469 237.175781 228.703125 C 237.175781 229.179688 237.566406 229.566406 238.039062 229.566406 L 250.085938 229.566406 C 250.558594 229.566406 250.945312 229.179688 250.945312 228.703125 C 250.945312 228.230469 250.558594 227.84375 250.085938 227.84375 L 247.503906 227.84375 L 247.503906 225.261719 L 264.710938 225.261719 C 265.832031 225.261719 266.777344 224.53125 267.121094 223.542969 L 266.21875 223.542969 C 265.832031 223.542969 265.488281 223.5 265.140625 223.371094 C 265.011719 223.457031 264.839844 223.542969 264.667969 223.542969 L 223.410156 223.542969 C 222.9375 223.542969 222.550781 223.15625 222.550781 222.683594 L 222.550781 220.101562 L 258.945312 220.101562 L 258.816406 219.972656 C 258.386719 219.542969 258.042969 218.980469 257.871094 218.378906 L 222.550781 218.378906 L 222.550781 197.730469 C 222.550781 197.253906 222.9375 196.867188 223.410156 196.867188 L 264.710938 196.867188 C 265.183594 196.867188 265.574219 197.253906 265.574219 197.730469 L 265.574219 202.117188 C 265.789062 202.074219 266.003906 202.03125 266.261719 202.03125 L 267.292969 202.03125 L 267.292969 197.730469 C 267.292969 196.308594 266.132812 195.148438 264.710938 195.148438 L 223.410156 195.148438 C 221.992188 195.148438 220.828125 196.308594 220.828125 197.730469 L 220.828125 222.683594 C 220.828125 224.101562 221.992188 225.261719 223.410156 225.261719 L 240.621094 225.261719 Z M 242.339844 225.261719 L 245.78125 225.261719 L 245.78125 227.84375 L 242.339844 227.84375 Z M 242.339844 225.261719 " fill-opacity="1" fill-rule="nonzero"/></g><g clip-path="url(#40397243e4)"><path fill="#ffffff" d="M 274.21875 210.074219 C 274.132812 209.859375 274.046875 209.6875 273.960938 209.472656 C 274.519531 208.65625 274.433594 207.539062 273.703125 206.804688 L 272.84375 205.945312 C 272.457031 205.558594 271.898438 205.34375 271.335938 205.34375 C 270.90625 205.34375 270.519531 205.472656 270.175781 205.6875 C 270.003906 205.601562 269.789062 205.515625 269.574219 205.429688 C 269.359375 204.441406 268.5 203.75 267.507812 203.75 L 266.304688 203.75 C 265.269531 203.75 264.410156 204.484375 264.238281 205.429688 C 264.023438 205.515625 263.851562 205.601562 263.636719 205.6875 C 263.292969 205.472656 262.90625 205.34375 262.476562 205.34375 C 261.914062 205.34375 261.355469 205.558594 260.96875 205.945312 L 260.109375 206.804688 C 259.378906 207.539062 259.292969 208.65625 259.851562 209.472656 C 259.765625 209.644531 259.679688 209.859375 259.59375 210.074219 C 258.601562 210.292969 257.914062 211.152344 257.914062 212.140625 L 257.914062 213.347656 C 257.914062 214.378906 258.644531 215.238281 259.59375 215.410156 C 259.679688 215.625 259.765625 215.796875 259.851562 216.011719 C 259.636719 216.355469 259.507812 216.746094 259.507812 217.175781 C 259.507812 217.734375 259.722656 218.292969 260.109375 218.679688 L 260.96875 219.542969 C 261.355469 219.929688 261.914062 220.144531 262.476562 220.144531 C 262.90625 220.144531 263.292969 220.015625 263.636719 219.800781 C 263.808594 219.886719 264.023438 219.972656 264.238281 220.058594 C 264.453125 221.046875 265.3125 221.734375 266.304688 221.734375 L 267.507812 221.734375 C 268.542969 221.734375 269.402344 221.003906 269.574219 220.058594 C 269.789062 219.972656 269.960938 219.886719 270.175781 219.800781 C 270.519531 220.015625 270.90625 220.144531 271.335938 220.144531 C 271.898438 220.144531 272.457031 219.929688 272.84375 219.542969 L 273.703125 218.679688 C 274.089844 218.292969 274.304688 217.734375 274.304688 217.175781 C 274.304688 216.746094 274.175781 216.355469 273.960938 216.011719 C 274.046875 215.839844 274.132812 215.625 274.21875 215.410156 C 275.210938 215.195312 275.898438 214.335938 275.898438 213.347656 L 275.898438 212.140625 C 275.898438 211.152344 275.167969 210.292969 274.21875 210.074219 Z M 274.175781 213.390625 C 274.175781 213.605469 274.003906 213.777344 273.789062 213.777344 L 272.886719 213.777344 C 272.714844 214.722656 272.371094 215.539062 271.855469 216.269531 L 272.5 216.917969 C 272.671875 217.089844 272.671875 217.347656 272.5 217.476562 L 271.640625 218.335938 C 271.550781 218.421875 271.464844 218.464844 271.335938 218.464844 C 271.207031 218.464844 271.121094 218.421875 271.035156 218.335938 L 270.390625 217.691406 C 269.660156 218.207031 268.800781 218.59375 267.894531 218.722656 L 267.894531 219.628906 C 267.894531 219.84375 267.722656 220.015625 267.507812 220.015625 L 266.304688 220.015625 C 266.089844 220.015625 265.917969 219.84375 265.917969 219.628906 L 265.917969 218.808594 C 264.96875 218.636719 264.152344 218.292969 263.421875 217.777344 L 262.691406 218.378906 C 262.605469 218.464844 262.519531 218.507812 262.390625 218.507812 C 262.261719 218.507812 262.214844 218.464844 262.128906 218.378906 L 261.269531 217.519531 C 261.097656 217.347656 261.097656 217.089844 261.269531 216.960938 L 261.914062 216.3125 C 261.398438 215.582031 261.011719 214.722656 260.882812 213.820312 L 259.980469 213.820312 C 259.765625 213.820312 259.59375 213.648438 259.59375 213.433594 L 259.59375 212.226562 C 259.59375 212.011719 259.765625 211.839844 259.980469 211.839844 L 260.839844 211.839844 C 261.011719 210.894531 261.355469 210.074219 261.871094 209.34375 L 261.269531 208.613281 C 261.097656 208.441406 261.097656 208.183594 261.269531 208.054688 L 262.128906 207.195312 C 262.214844 207.109375 262.304688 207.066406 262.433594 207.066406 C 262.5625 207.066406 262.648438 207.109375 262.734375 207.195312 L 263.378906 207.839844 C 264.109375 207.324219 264.96875 206.933594 265.875 206.804688 L 265.875 205.902344 C 265.875 205.6875 266.046875 205.515625 266.261719 205.515625 L 267.464844 205.515625 C 267.679688 205.515625 267.851562 205.6875 267.851562 205.902344 L 267.851562 206.761719 C 268.800781 206.933594 269.617188 207.28125 270.347656 207.796875 L 270.992188 207.152344 C 271.078125 207.066406 271.164062 207.023438 271.292969 207.023438 C 271.421875 207.023438 271.507812 207.066406 271.59375 207.152344 L 272.457031 208.011719 C 272.628906 208.183594 272.628906 208.441406 272.457031 208.570312 L 271.8125 209.214844 C 272.328125 209.945312 272.714844 210.808594 272.84375 211.710938 L 273.746094 211.710938 C 273.960938 211.710938 274.132812 211.882812 274.132812 212.097656 L 274.132812 213.390625 Z M 274.175781 213.390625 " fill-opacity="1" fill-rule="nonzero"/></g><path fill="#ffffff" d="M 266.863281 209.34375 C 264.96875 209.34375 263.421875 210.894531 263.421875 212.785156 C 263.421875 214.679688 264.96875 216.226562 266.863281 216.226562 C 268.757812 216.226562 270.304688 214.679688 270.304688 212.785156 C 270.304688 210.894531 268.757812 209.34375 266.863281 209.34375 Z M 266.863281 214.507812 C 265.917969 214.507812 265.140625 213.734375 265.140625 212.785156 C 265.140625 211.839844 265.917969 211.066406 266.863281 211.066406 C 267.808594 211.066406 268.585938 211.839844 268.585938 212.785156 C 268.585938 213.734375 267.808594 214.507812 266.863281 214.507812 Z M 266.863281 214.507812 " fill-opacity="1" fill-rule="nonzero"/><g fill="#ffffff" fill-opacity="1"><g transform="translate(37.500002, 187.726758)"><g><path d="M 63.640625 -52.140625 L 63.640625 0 L 50.953125 0 L 50.953125 -31.265625 L 39.28125 0 L 29.03125 0 L 17.296875 -31.34375 L 17.296875 0 L 4.609375 0 L 4.609375 -52.140625 L 19.609375 -52.140625 L 34.234375 -16.046875 L 48.71875 -52.140625 Z M 63.640625 -52.140625 "/></g></g></g><g fill="#ffffff" fill-opacity="1"><g transform="translate(105.671874, 187.726758)"><g><path d="M 2.078125 -20.796875 C 2.078125 -25.054688 2.878906 -28.789062 4.484375 -32 C 6.097656 -35.21875 8.289062 -37.691406 11.0625 -39.421875 C 13.832031 -41.160156 16.925781 -42.03125 20.34375 -42.03125 C 23.269531 -42.03125 25.832031 -41.4375 28.03125 -40.25 C 30.238281 -39.0625 31.9375 -37.503906 33.125 -35.578125 L 33.125 -41.4375 L 45.828125 -41.4375 L 45.828125 0 L 33.125 0 L 33.125 -5.859375 C 31.882812 -3.929688 30.160156 -2.375 27.953125 -1.1875 C 25.753906 0 23.195312 0.59375 20.28125 0.59375 C 16.90625 0.59375 13.832031 -0.28125 11.0625 -2.03125 C 8.289062 -3.789062 6.097656 -6.289062 4.484375 -9.53125 C 2.878906 -12.78125 2.078125 -16.535156 2.078125 -20.796875 Z M 33.125 -20.71875 C 33.125 -23.882812 32.242188 -26.382812 30.484375 -28.21875 C 28.722656 -30.050781 26.582031 -30.96875 24.0625 -30.96875 C 21.539062 -30.96875 19.398438 -30.0625 17.640625 -28.25 C 15.878906 -26.445312 15 -23.960938 15 -20.796875 C 15 -17.628906 15.878906 -15.113281 17.640625 -13.25 C 19.398438 -11.394531 21.539062 -10.46875 24.0625 -10.46875 C 26.582031 -10.46875 28.722656 -11.382812 30.484375 -13.21875 C 32.242188 -15.050781 33.125 -17.550781 33.125 -20.71875 Z M 33.125 -20.71875 "/></g></g></g><g fill="#ffffff" fill-opacity="1"><g transform="translate(156.095285, 187.726758)"><g><path d="M 17.296875 -34.53125 C 18.785156 -36.8125 20.644531 -38.609375 22.875 -39.921875 C 25.101562 -41.234375 27.578125 -41.890625 30.296875 -41.890625 L 30.296875 -28.4375 L 26.8125 -28.4375 C 23.644531 -28.4375 21.265625 -27.753906 19.671875 -26.390625 C 18.085938 -25.035156 17.296875 -22.648438 17.296875 -19.234375 L 17.296875 0 L 4.609375 0 L 4.609375 -41.4375 L 17.296875 -41.4375 Z M 17.296875 -34.53125 "/></g></g></g><g fill="#ffffff" fill-opacity="1"><g transform="translate(187.879108, 187.726758)"><g><path d="M 27.703125 -10.765625 L 27.703125 0 L 21.234375 0 C 16.628906 0 13.039062 -1.125 10.46875 -3.375 C 7.894531 -5.632812 6.609375 -9.3125 6.609375 -14.40625 L 6.609375 -30.890625 L 1.5625 -30.890625 L 1.5625 -41.4375 L 6.609375 -41.4375 L 6.609375 -51.546875 L 19.3125 -51.546875 L 19.3125 -41.4375 L 27.625 -41.4375 L 27.625 -30.890625 L 19.3125 -30.890625 L 19.3125 -14.265625 C 19.3125 -13.023438 19.609375 -12.128906 20.203125 -11.578125 C 20.796875 -11.035156 21.785156 -10.765625 23.171875 -10.765625 Z M 27.703125 -10.765625 "/></g></g></g><g fill="#ffffff" fill-opacity="1"><g transform="translate(218.029201, 187.726758)"><g><path d="M 2.078125 -20.796875 C 2.078125 -25.054688 2.878906 -28.789062 4.484375 -32 C 6.097656 -35.21875 8.289062 -37.691406 11.0625 -39.421875 C 13.832031 -41.160156 16.925781 -42.03125 20.34375 -42.03125 C 23.269531 -42.03125 25.832031 -41.4375 28.03125 -40.25 C 30.238281 -39.0625 31.9375 -37.503906 33.125 -35.578125 L 33.125 -41.4375 L 45.828125 -41.4375 L 45.828125 0 L 33.125 0 L 33.125 -5.859375 C 31.882812 -3.929688 30.160156 -2.375 27.953125 -1.1875 C 25.753906 0 23.195312 0.59375 20.28125 0.59375 C 16.90625 0.59375 13.832031 -0.28125 11.0625 -2.03125 C 8.289062 -3.789062 6.097656 -6.289062 4.484375 -9.53125 C 2.878906 -12.78125 2.078125 -16.535156 2.078125 -20.796875 Z M 33.125 -20.71875 C 33.125 -23.882812 32.242188 -26.382812 30.484375 -28.21875 C 28.722656 -30.050781 26.582031 -30.96875 24.0625 -30.96875 C 21.539062 -30.96875 19.398438 -30.0625 17.640625 -28.25 C 15.878906 -26.445312 15 -23.960938 15 -20.796875 C 15 -17.628906 15.878906 -15.113281 17.640625 -13.25 C 19.398438 -11.394531 21.539062 -10.46875 24.0625 -10.46875 C 26.582031 -10.46875 28.722656 -11.382812 30.484375 -13.21875 C 32.242188 -15.050781 33.125 -17.550781 33.125 -20.71875 Z M 33.125 -20.71875 "/></g></g></g></svg>