<svg xmlns="http://www.w3.org/2000/svg" xmlns:xlink="http://www.w3.org/1999/xlink" width="500" zoomAndPan="magnify" viewBox="0 0 375 374.999991" height="500" preserveAspectRatio="xMidYMid meet" version="1.0"><defs><clipPath id="a5770c7e15"><path d="M 10.164062 11 L 343.164062 11 L 343.164062 341.59375 L 10.164062 341.59375 Z M 10.164062 11 " clip-rule="nonzero"/></clipPath><clipPath id="3bdb253c65"><path d="M 105 104 L 361 104 L 361 359 L 105 359 Z M 105 104 " clip-rule="nonzero"/></clipPath><clipPath id="fd7b550ecf"><path d="M 408.972656 271.371094 L 195.039062 408.757812 L 56.84375 193.558594 L 270.777344 56.175781 Z M 408.972656 271.371094 " clip-rule="nonzero"/></clipPath><clipPath id="7912e0ce5f"><path d="M 408.972656 271.371094 L 195.039062 408.757812 L 56.84375 193.558594 L 270.777344 56.175781 Z M 408.972656 271.371094 " clip-rule="nonzero"/></clipPath></defs><g clip-path="url(#a5770c7e15)"><path fill="#8634c6" d="M 300.035156 283.46875 C 284.757812 300.828125 265.925781 315.125 244.941406 324.878906 C 244.328125 325.308594 243.101562 325.921875 241.570312 326.65625 C 240.832031 327.027344 239.972656 327.394531 239.054688 327.824219 C 238.132812 328.253906 237.152344 328.621094 236.167969 328.988281 C 235.1875 329.355469 234.207031 329.785156 233.164062 330.15625 C 232.183594 330.523438 231.199219 330.953125 230.21875 331.257812 C 228.316406 331.933594 226.539062 332.609375 225.1875 333.097656 C 227.519531 332.363281 229.789062 331.6875 232 330.890625 C 234.207031 330.09375 236.355469 329.234375 238.441406 328.4375 C 240.527344 327.578125 242.613281 326.65625 244.636719 325.800781 L 246.171875 325.125 L 247.640625 324.386719 C 248.625 323.898438 249.605469 323.40625 250.585938 322.914062 C 256.292969 320.03125 261.8125 316.78125 267.398438 313.097656 C 258.992188 318.804688 250.035156 323.714844 240.710938 327.761719 C 242.550781 326.964844 244.328125 326.105469 246.171875 325.308594 C 247.949219 324.386719 249.789062 323.46875 251.570312 322.546875 C 253.410156 321.6875 255.1875 320.585938 256.96875 319.601562 C 258.746094 318.558594 260.585938 317.578125 262.304688 316.414062 C 269.421875 312.054688 276.230469 306.964844 282.734375 301.441406 C 295.800781 290.339844 307.152344 276.78125 316.171875 261.871094 C 319.359375 256.410156 322.613281 251.378906 325.558594 245.367188 C 326.292969 243.894531 327.089844 242.363281 327.765625 240.765625 C 328.441406 239.171875 329.117188 237.453125 329.851562 235.675781 C 330.589844 233.894531 331.140625 232.054688 331.753906 230.09375 C 332.367188 228.128906 332.980469 226.042969 333.472656 223.835938 C 330.097656 234.691406 325.558594 245.246094 319.976562 255.246094 C 314.390625 265.367188 307.703125 274.816406 300.035156 283.46875 Z M 268.6875 312.363281 C 269.238281 311.996094 269.851562 311.566406 270.402344 311.136719 C 269.851562 311.566406 269.300781 311.933594 268.6875 312.363281 Z M 184.820312 340.214844 C 185.921875 340.15625 187.089844 340.03125 188.195312 339.972656 C 187.027344 340.09375 185.800781 340.15625 184.636719 340.277344 C 184.023438 340.339844 183.46875 340.398438 182.855469 340.398438 C 182.304688 340.398438 181.691406 340.460938 181.136719 340.460938 C 178.867188 340.523438 176.597656 340.585938 174.511719 340.585938 C 176.84375 340.523438 179.113281 340.460938 181.382812 340.398438 C 181.9375 340.398438 182.550781 340.398438 183.101562 340.339844 C 183.714844 340.277344 184.265625 340.214844 184.820312 340.214844 Z M 335.925781 196.472656 C 338.503906 175.613281 337.089844 153.957031 331.203125 133.035156 C 334.453125 144.386719 336.601562 156.472656 337.335938 168.679688 C 338.074219 180.890625 337.214844 193.160156 334.945312 204.753906 C 335.375 201.992188 335.621094 199.234375 335.925781 196.472656 Z M 315.433594 255.738281 C 320.710938 246.59375 325.191406 236.777344 328.5625 226.472656 C 325.25 236.65625 320.894531 246.535156 315.558594 255.675781 C 310.21875 264.878906 304.023438 273.34375 297.273438 280.765625 C 303.960938 273.28125 310.097656 264.878906 315.433594 255.738281 Z M 218.378906 31.746094 C 199.359375 26.101562 178.867188 24.015625 158.007812 26.039062 C 158.683594 25.917969 159.421875 25.917969 160.09375 25.855469 C 160.769531 25.792969 161.507812 25.734375 162.179688 25.671875 C 163.59375 25.550781 165.003906 25.425781 166.476562 25.363281 C 167.886719 25.304688 169.359375 25.304688 170.832031 25.242188 C 171.566406 25.242188 172.304688 25.179688 173.039062 25.179688 C 173.777344 25.179688 174.511719 25.121094 175.25 25.179688 C 178.195312 25.242188 180.832031 24.933594 182.242188 24.875 C 189.910156 25.550781 197.457031 26.652344 206.292969 28.554688 C 207.640625 28.800781 210.585938 29.414062 213.285156 29.90625 C 214.882812 30.519531 216.597656 31.132812 218.378906 31.746094 Z M 338.808594 153.957031 C 338.75 153.402344 338.625 152.851562 338.5625 152.300781 C 338.75 153.648438 338.992188 154.9375 339.117188 156.289062 C 338.992188 155.488281 338.871094 154.691406 338.808594 153.957031 Z M 307.273438 77.269531 C 307.335938 77.328125 307.398438 77.453125 307.460938 77.511719 C 307.398438 77.453125 307.335938 77.328125 307.273438 77.269531 Z M 305.433594 74.875 C 304.636719 73.894531 303.839844 72.910156 302.980469 71.867188 C 303.777344 72.851562 304.636719 73.832031 305.433594 74.875 Z M 167.457031 341.257812 C 166.167969 341.199219 164.878906 341.015625 163.53125 340.890625 C 162.179688 340.769531 160.769531 340.585938 159.359375 340.398438 C 158.683594 340.339844 157.949219 340.277344 157.210938 340.15625 C 156.476562 340.03125 155.800781 339.910156 155.0625 339.785156 C 153.59375 339.542969 152.121094 339.296875 150.648438 339.113281 L 149.542969 338.929688 C 149.175781 338.867188 148.808594 338.804688 148.4375 338.683594 C 147.703125 338.5 146.964844 338.375 146.230469 338.191406 C 144.757812 337.886719 143.222656 337.578125 141.75 337.269531 C 140.277344 336.902344 138.804688 336.535156 137.273438 336.167969 C 135.800781 335.800781 134.328125 335.429688 132.855469 335 C 131.445312 334.570312 130.035156 334.082031 128.621094 333.652344 C 127.210938 333.222656 125.863281 332.792969 124.511719 332.300781 C 123.164062 331.8125 121.875 331.320312 120.648438 330.828125 C 119.417969 330.339844 118.132812 329.910156 117.027344 329.355469 C 114.695312 328.3125 112.546875 327.394531 110.648438 326.414062 C 112.488281 327.027344 114.390625 327.640625 116.289062 328.253906 C 115.492188 327.824219 114.144531 327.148438 112.488281 326.414062 C 112.058594 326.226562 111.628906 326.042969 111.199219 325.796875 C 110.769531 325.554688 110.277344 325.371094 109.847656 325.125 C 108.929688 324.632812 107.945312 324.140625 106.902344 323.652344 C 105.921875 323.160156 104.878906 322.671875 103.835938 322.117188 C 102.855469 321.566406 101.875 321.011719 100.890625 320.460938 C 98.988281 319.417969 97.210938 318.4375 95.800781 317.515625 C 96.476562 317.824219 97.089844 318.191406 97.824219 318.558594 C 98.5 318.925781 99.234375 319.296875 99.910156 319.664062 C 101.320312 320.398438 102.730469 321.257812 104.203125 322.054688 C 101.320312 320.398438 101.320312 320.398438 98.5 318.804688 C 101.261719 320.15625 104.328125 321.871094 107.703125 323.34375 C 108.5625 323.714844 109.417969 324.140625 110.277344 324.511719 C 110.707031 324.695312 111.136719 324.878906 111.566406 325.125 C 111.996094 325.308594 112.488281 325.492188 112.917969 325.675781 C 114.695312 326.414062 116.535156 327.148438 118.375 327.882812 C 125.800781 330.644531 133.714844 333.039062 140.832031 334.632812 C 141.691406 334.878906 142.609375 335 143.46875 335.183594 C 144.328125 335.371094 145.1875 335.492188 146.046875 335.675781 C 146.90625 335.800781 147.703125 335.984375 148.5 336.105469 C 149.296875 336.226562 150.035156 336.414062 150.832031 336.472656 C 153.835938 336.84375 156.476562 337.210938 158.621094 337.394531 C 162.855469 337.640625 165.003906 337.578125 163.898438 337.085938 C 161.628906 336.167969 149.542969 335 134.757812 330.953125 C 127.394531 328.867188 119.296875 326.042969 111.503906 322.609375 C 109.542969 321.6875 107.640625 320.828125 105.675781 319.910156 C 103.777344 318.925781 101.933594 317.945312 100.09375 316.964844 C 99.605469 316.71875 99.175781 316.472656 98.683594 316.226562 C 98.253906 315.984375 97.761719 315.675781 97.332031 315.429688 C 96.414062 314.878906 95.554688 314.386719 94.695312 313.835938 C 93.835938 313.34375 92.976562 312.792969 92.117188 312.300781 C 91.261719 311.75 90.460938 311.199219 89.664062 310.644531 C 90.402344 311.074219 91.074219 311.503906 91.8125 311.933594 C 92.546875 312.363281 93.285156 312.730469 94.019531 313.160156 C 95.492188 313.957031 97.027344 314.753906 98.5625 315.613281 C 100.09375 316.414062 101.691406 317.148438 103.285156 317.945312 C 104.082031 318.3125 104.878906 318.742188 105.675781 319.113281 C 106.476562 319.480469 107.273438 319.847656 108.132812 320.214844 C 109.789062 320.953125 111.382812 321.625 113.039062 322.363281 C 114.695312 323.039062 116.414062 323.652344 118.070312 324.328125 C 118.929688 324.632812 119.726562 325 120.585938 325.308594 C 121.445312 325.613281 122.304688 325.921875 123.164062 326.167969 L 125.738281 327.027344 C 126.597656 327.332031 127.457031 327.640625 128.316406 327.882812 L 133.59375 329.417969 L 134.878906 329.785156 L 136.230469 330.09375 L 138.867188 330.707031 C 142.425781 331.628906 145.984375 332.179688 149.542969 332.855469 C 156.660156 333.898438 163.714844 334.695312 170.585938 334.695312 C 168.992188 334.570312 167.519531 334.449219 166.167969 334.328125 C 164.820312 334.140625 163.46875 333.957031 162.058594 333.714844 C 161.320312 333.589844 160.648438 333.527344 159.851562 333.40625 C 159.050781 333.285156 158.253906 333.222656 157.394531 333.039062 C 155.679688 332.730469 153.714844 332.425781 151.445312 332.117188 C 150.707031 332.054688 149.972656 331.871094 149.296875 331.75 L 147.148438 331.320312 L 142.855469 330.460938 L 138.621094 329.417969 L 136.476562 328.867188 C 135.738281 328.683594 135.0625 328.5 134.390625 328.3125 C 128.804688 326.65625 123.222656 324.878906 117.824219 322.667969 C 106.964844 318.4375 97.519531 313.773438 89.113281 307.453125 C 88.253906 306.902344 87.394531 306.351562 86.597656 305.738281 C 84.878906 304.570312 83.222656 303.589844 81.503906 302.425781 C 81.015625 302.117188 80.585938 301.75 80.214844 301.441406 C 79.789062 301.136719 79.417969 300.769531 79.050781 300.523438 C 78.316406 299.910156 77.640625 299.355469 77.027344 298.804688 C 76.414062 298.253906 75.800781 297.761719 75.246094 297.332031 C 74.695312 296.839844 74.144531 296.351562 73.652344 295.859375 C 72.546875 294.878906 71.445312 293.898438 70.09375 292.730469 C 69.417969 292.179688 68.746094 291.503906 67.945312 290.769531 C 67.148438 290.03125 66.289062 289.296875 65.371094 288.4375 C 65.371094 288.3125 65.675781 288.496094 66.167969 288.867188 C 65.554688 288.375 64.941406 287.761719 64.203125 287.085938 C 63.53125 286.410156 62.855469 285.675781 62.117188 284.9375 C 61.382812 284.203125 60.707031 283.46875 59.972656 282.730469 C 59.601562 282.363281 59.296875 282.054688 58.929688 281.6875 C 58.621094 281.320312 58.253906 281.011719 57.945312 280.707031 C 57.945312 280.460938 57.945312 280.214844 57.578125 279.601562 C 42.976562 262.730469 31.75 242.609375 25.554688 220.644531 C 25.125 218.988281 24.632812 217.390625 24.203125 215.734375 C 23.835938 214.078125 23.46875 212.484375 23.097656 210.828125 C 22.914062 210.03125 22.730469 209.171875 22.546875 208.375 C 22.425781 207.578125 22.242188 206.71875 22.117188 205.917969 C 21.8125 204.261719 21.566406 202.667969 21.257812 201.011719 C 21.074219 199.601562 20.890625 198.191406 20.707031 196.777344 C 20.523438 195.367188 20.277344 193.957031 20.15625 192.484375 C 20.03125 191.011719 19.910156 189.601562 19.847656 188.128906 C 19.726562 186.65625 19.601562 185.183594 19.601562 183.710938 C 19.539062 182.238281 19.417969 180.828125 19.296875 179.601562 C 19.171875 178.375 18.988281 177.390625 18.988281 176.65625 C 19.113281 174.753906 19.171875 172.789062 19.296875 170.828125 C 19.296875 170.335938 19.355469 169.84375 19.355469 169.355469 C 19.417969 168.863281 19.480469 168.375 19.539062 167.882812 C 19.664062 166.902344 19.726562 165.917969 19.847656 164.875 C 19.96875 163.894531 20.03125 162.851562 20.15625 161.808594 C 20.277344 160.765625 20.460938 159.785156 20.644531 158.679688 C 20.828125 157.636719 20.953125 156.59375 21.136719 155.488281 C 21.199219 154.9375 21.257812 154.386719 21.382812 153.832031 C 21.503906 153.28125 21.625 152.730469 21.6875 152.175781 C 21.75 151.5 21.933594 150.398438 22.117188 149.109375 C 22.300781 147.882812 22.484375 146.410156 22.730469 145 C 23.285156 143.402344 23.773438 141.6875 24.328125 139.84375 C 24.449219 139.171875 24.695312 138.433594 24.878906 137.757812 L 25.492188 135.734375 C 25.859375 134.386719 26.289062 133.035156 26.65625 131.625 C 27.148438 130.273438 27.578125 128.925781 28.070312 127.636719 L 28.742188 125.613281 L 29.113281 124.628906 L 29.480469 123.648438 C 31.503906 118.371094 33.714844 113.21875 36.351562 108.25 L 36.289062 108.25 C 36.902344 107.023438 37.578125 105.734375 38.253906 104.445312 C 38.929688 103.15625 39.726562 101.871094 40.460938 100.582031 C 41.933594 97.941406 43.714844 95.367188 45.429688 92.667969 C 46.289062 91.316406 47.269531 90.089844 48.191406 88.738281 L 49.601562 86.777344 C 50.09375 86.101562 50.523438 85.488281 51.015625 84.875 C 53.039062 82.421875 54.941406 79.84375 57.085938 77.511719 C 58.128906 76.347656 59.113281 75.183594 60.15625 74.015625 C 61.199219 72.910156 62.242188 71.808594 63.285156 70.765625 C 64.757812 69.167969 66.289062 67.695312 67.761719 66.285156 L 70.214844 64.015625 C 71.074219 63.21875 71.996094 62.542969 72.855469 61.746094 L 75.554688 59.539062 L 76.230469 58.984375 L 76.902344 58.433594 L 78.316406 57.390625 C 77.640625 57.695312 77.394531 57.695312 77.210938 57.636719 C 76.902344 57.941406 76.535156 58.1875 76.167969 58.496094 C 75.800781 58.800781 75.429688 59.109375 75.0625 59.476562 C 74.449219 60.027344 73.773438 60.582031 73.160156 61.132812 C 75.429688 59.046875 77.457031 57.207031 79.171875 55.734375 C 80.03125 55.121094 80.953125 54.507812 81.875 53.894531 C 82.855469 53.28125 83.835938 52.664062 84.816406 52.050781 C 85.800781 51.4375 86.84375 50.765625 87.886719 50.089844 C 88.929688 49.476562 90.03125 48.800781 91.136719 48.125 C 96.472656 44.628906 102.179688 41.683594 107.886719 38.863281 L 112.304688 36.898438 L 114.511719 35.917969 L 116.78125 35.058594 C 118.253906 34.507812 119.789062 33.894531 121.261719 33.339844 C 122.792969 32.789062 124.328125 32.359375 125.863281 31.808594 C 126.84375 31.378906 125.921875 31.5 125.800781 31.378906 C 131.199219 29.722656 136.78125 28.492188 142.425781 27.390625 C 152.488281 25.304688 162.855469 24.261719 173.285156 24.261719 C 174.511719 24.136719 175.738281 24.136719 176.964844 24.136719 C 178.195312 24.136719 179.421875 24.078125 180.648438 24.078125 C 181.324219 24.199219 182.121094 24.261719 182.980469 24.382812 C 183.835938 24.507812 184.757812 24.628906 185.800781 24.75 L 188.746094 24.996094 C 189.726562 25.058594 190.710938 25.121094 191.628906 25.304688 C 193.59375 25.550781 195.496094 25.855469 197.457031 26.101562 C 198.132812 26.164062 198.808594 26.285156 199.542969 26.46875 C 200.28125 26.59375 201.015625 26.714844 201.753906 26.898438 C 202.550781 27.019531 203.347656 27.207031 204.144531 27.328125 C 205.003906 27.449219 205.863281 27.636719 206.722656 27.820312 C 208.5 28.25 210.339844 28.679688 212.242188 29.105469 C 213.226562 29.292969 214.207031 29.597656 215.1875 29.90625 C 216.167969 30.210938 217.210938 30.457031 218.253906 30.765625 C 226.539062 33.15625 235.742188 36.652344 244.699219 41.132812 C 246.109375 41.683594 247.214844 42.175781 247.828125 42.480469 C 249.113281 43.15625 250.34375 43.894531 251.570312 44.566406 C 252.796875 45.304688 254.023438 45.917969 255.1875 46.714844 C 256.355469 47.453125 257.519531 48.1875 258.683594 48.921875 C 259.851562 49.660156 260.957031 50.394531 262.058594 51.195312 C 263.042969 51.867188 263.960938 52.542969 264.882812 53.15625 C 265.800781 53.832031 266.785156 54.445312 267.644531 55.121094 C 269.421875 56.53125 271.199219 57.878906 272.917969 59.167969 C 274.574219 60.582031 276.230469 61.992188 277.828125 63.28125 C 278.257812 63.585938 278.625 63.953125 278.992188 64.324219 C 279.359375 64.691406 279.730469 64.996094 280.097656 65.367188 C 280.832031 66.039062 281.570312 66.714844 282.304688 67.390625 C 283.777344 68.679688 285.066406 70.089844 286.355469 71.378906 C 286.96875 71.992188 287.582031 72.667969 288.195312 73.28125 C 288.5 73.585938 288.808594 73.894531 289.117188 74.199219 C 289.421875 74.507812 289.667969 74.8125 289.914062 75.121094 C 292.058594 77.574219 294.085938 79.660156 295.558594 81.5625 C 297.398438 83.769531 297.519531 83.585938 296.660156 82.113281 C 296.230469 81.378906 295.558594 80.335938 294.757812 79.046875 C 293.902344 77.820312 292.859375 76.410156 291.753906 74.996094 C 291.203125 74.261719 290.648438 73.523438 290.097656 72.789062 C 289.484375 72.054688 288.929688 71.378906 288.378906 70.703125 C 287.214844 69.351562 286.171875 68.003906 285.25 66.898438 C 283.347656 64.753906 282.183594 63.339844 282.734375 63.710938 C 288.257812 67.511719 294.945312 73.894531 302.058594 83.097656 C 305.558594 87.757812 309.300781 92.972656 312.796875 99.046875 C 314.636719 101.992188 316.292969 105.304688 318.132812 108.617188 C 319.789062 112.054688 321.570312 115.550781 323.164062 119.355469 C 324.945312 123.527344 324.390625 121.992188 323.472656 119.355469 C 322.980469 118.066406 322.429688 116.46875 322 115.183594 C 321.507812 113.894531 321.140625 112.972656 321.140625 112.851562 C 321.507812 113.464844 321.875 114.140625 322.367188 114.875 C 322.796875 115.613281 323.164062 116.46875 323.59375 117.328125 C 324.699219 120.089844 325.863281 122.789062 326.785156 125.613281 L 327.644531 128.066406 C 327.949219 128.863281 328.257812 129.722656 328.441406 130.519531 L 329.914062 135.488281 C 329.667969 134.628906 329.421875 133.710938 329.175781 132.851562 C 327.644531 127.574219 325.804688 122.484375 323.839844 117.941406 C 324.207031 118.679688 324.574219 119.476562 324.945312 120.273438 C 325.433594 121.316406 325.925781 122.359375 326.355469 123.464844 C 326.785156 124.570312 327.277344 125.734375 327.703125 126.839844 L 328.378906 128.558594 L 328.746094 129.414062 L 329.054688 130.273438 C 329.851562 132.605469 330.648438 134.875 331.386719 136.960938 C 328.378906 125.121094 324.023438 113.648438 318.378906 102.789062 L 317.335938 100.765625 C 316.96875 100.089844 316.601562 99.414062 316.230469 98.742188 L 313.960938 94.753906 C 313.226562 93.402344 312.367188 92.175781 311.507812 90.886719 L 308.808594 87.574219 L 306.109375 83.832031 C 305.1875 82.605469 304.332031 81.316406 303.347656 80.152344 C 301.445312 77.757812 299.605469 75.304688 297.519531 73.035156 L 294.515625 69.597656 L 291.324219 66.285156 C 289.238281 64.015625 286.96875 61.992188 284.757812 59.90625 C 284.207031 59.414062 283.65625 58.863281 283.101562 58.371094 L 281.386719 56.898438 L 277.886719 53.894531 C 276.722656 52.910156 275.496094 51.992188 274.269531 51.070312 L 272.429688 49.660156 C 271.816406 49.167969 271.199219 48.738281 270.585938 48.308594 C 260.648438 41.132812 249.972656 35.058594 238.683594 30.273438 C 247.152344 33.894531 255.128906 38.371094 262.613281 43.339844 C 270.035156 48.308594 276.96875 53.832031 283.226562 59.722656 C 277.335938 54.382812 271.015625 49.414062 264.453125 44.9375 C 257.828125 40.519531 250.832031 36.53125 243.59375 33.035156 L 238.132812 30.519531 C 237.210938 30.089844 236.292969 29.722656 235.371094 29.351562 L 232.550781 28.25 C 231.628906 27.878906 230.710938 27.511719 229.726562 27.144531 L 226.84375 26.164062 L 223.960938 25.179688 L 222.550781 24.691406 L 221.078125 24.261719 C 219.113281 23.707031 217.210938 23.15625 215.25 22.605469 C 213.285156 22.113281 211.324219 21.683594 209.359375 21.191406 C 208.378906 20.949219 207.394531 20.703125 206.414062 20.519531 L 203.410156 19.964844 L 200.402344 19.414062 C 199.910156 19.351562 199.421875 19.230469 198.929688 19.167969 L 197.394531 18.984375 L 190.953125 18.1875 L 184.511719 17.695312 L 182.917969 17.574219 C 182.367188 17.574219 181.8125 17.574219 181.324219 17.511719 L 178.132812 17.449219 L 174.878906 17.390625 C 173.777344 17.390625 172.734375 17.449219 171.628906 17.449219 L 168.378906 17.574219 C 167.273438 17.636719 166.230469 17.636719 165.125 17.695312 L 158.683594 18.1875 C 158.132812 18.25 157.640625 18.308594 157.089844 18.371094 L 155.492188 18.554688 L 152.304688 18.984375 L 150.707031 19.167969 L 149.910156 19.292969 L 149.113281 19.414062 L 145.921875 19.964844 C 128.929688 22.910156 112.609375 28.800781 97.457031 36.777344 C 98.683594 36.039062 100.09375 35.242188 101.503906 34.445312 C 102.976562 33.648438 104.449219 32.789062 106.105469 32.050781 C 105.433594 32.359375 104.757812 32.664062 104.082031 33.035156 L 102.058594 34.078125 L 98.007812 36.164062 C 96.660156 36.835938 95.371094 37.636719 94.082031 38.371094 C 92.792969 39.109375 91.445312 39.84375 90.15625 40.640625 L 86.351562 43.09375 C 85.0625 43.894531 83.773438 44.691406 82.609375 45.609375 C 80.15625 47.390625 77.640625 49.046875 75.308594 50.949219 C 73.898438 52.113281 72.488281 53.28125 71.074219 54.507812 L 67.027344 58.1875 C 67.945312 57.265625 70.277344 55.121094 71.933594 53.585938 C 57.515625 65.425781 45.125 79.597656 35.554688 95.367188 C 25.921875 111.070312 19.355469 128.371094 15.675781 145.859375 C 16.226562 143.035156 16.472656 141.625 16.65625 140.335938 C 16.472656 141.257812 16.226562 142.238281 16.042969 143.15625 C 15.859375 144.078125 15.613281 145.058594 15.429688 146.042969 C 15 148.617188 14.511719 151.195312 14.140625 153.773438 C 13.835938 156.347656 13.527344 158.925781 13.222656 161.441406 C 13.46875 158.925781 13.773438 156.347656 14.082031 153.773438 C 14.449219 151.195312 14.941406 148.617188 15.371094 146.101562 C 15.492188 145.058594 15.796875 144.015625 15.984375 142.972656 C 16.226562 141.929688 16.414062 140.886719 16.65625 139.84375 C 16.71875 139.230469 16.839844 138.558594 17.027344 137.757812 C 17.210938 136.960938 17.515625 135.980469 17.945312 134.691406 C 20.460938 125.242188 23.710938 116.65625 26.71875 110.640625 C 28.070312 107.699219 29.664062 104.9375 31.136719 102.175781 C 31.871094 100.765625 32.730469 99.414062 33.46875 98.066406 C 34.265625 96.714844 35.0625 95.367188 35.859375 94.015625 C 36.71875 92.726562 37.578125 91.441406 38.375 90.089844 C 39.234375 88.800781 40.03125 87.511719 40.953125 86.285156 C 42.730469 83.769531 44.449219 81.253906 46.351562 78.925781 C 53.773438 69.414062 61.933594 61.007812 70.707031 54.078125 C 74.816406 50.886719 73.898438 51.867188 71.871094 53.585938 C 72.976562 52.726562 74.144531 51.808594 75.246094 50.949219 L 77.703125 48.921875 L 80.277344 47.023438 C 81.996094 45.792969 83.652344 44.445312 85.492188 43.28125 C 87.273438 42.113281 89.050781 40.886719 90.890625 39.78125 C 92.730469 38.679688 94.632812 37.636719 96.476562 36.53125 C 105.003906 31.929688 113.898438 28.125 122.976562 25.179688 C 123.835938 24.875 124.757812 24.566406 125.617188 24.261719 C 126.476562 23.953125 127.394531 23.707031 128.316406 23.464844 C 127.457031 23.769531 126.535156 23.953125 125.617188 24.261719 C 149.113281 17.144531 173.835938 15.488281 197.519531 18.921875 C 199.296875 19.105469 201.015625 19.476562 202.796875 19.78125 L 205.433594 20.210938 C 206.292969 20.335938 207.210938 20.519531 208.070312 20.703125 C 211.566406 21.5 215.066406 22.175781 218.5 23.21875 C 225.433594 25.058594 232.183594 27.511719 238.746094 30.210938 L 237.640625 29.722656 L 236.539062 29.292969 L 234.269531 28.371094 C 232.734375 27.757812 231.261719 27.144531 229.667969 26.59375 C 228.132812 26.039062 226.539062 25.550781 225.003906 24.996094 L 222.671875 24.199219 L 220.28125 23.523438 L 215.554688 22.175781 C 213.960938 21.746094 212.367188 21.4375 210.769531 21.007812 L 208.378906 20.457031 L 207.152344 20.148438 L 205.925781 19.90625 L 201.078125 19.046875 C 199.480469 18.738281 197.824219 18.492188 196.167969 18.308594 L 191.261719 17.636719 C 189.605469 17.511719 188.007812 17.390625 186.351562 17.207031 C 184.695312 17.082031 183.101562 16.898438 181.445312 16.898438 C 179.789062 16.835938 178.195312 16.777344 176.539062 16.714844 C 175.738281 16.714844 174.878906 16.652344 174.082031 16.652344 L 171.628906 16.714844 C 169.972656 16.714844 168.378906 16.777344 166.722656 16.777344 C 165.066406 16.835938 163.46875 16.960938 161.875 17.082031 C 179.113281 15.242188 198.378906 16.59375 217.027344 21.4375 C 205.003906 18.125 192.488281 16.347656 179.910156 15.917969 C 178.683594 15.855469 177.519531 15.792969 176.351562 15.792969 C 175.738281 15.792969 175.1875 15.734375 174.574219 15.734375 C 173.960938 15.734375 173.410156 15.734375 172.792969 15.734375 C 170.464844 15.734375 168.132812 15.792969 165.921875 15.792969 C 163.714844 15.917969 161.566406 16.039062 159.605469 16.101562 C 157.640625 16.164062 155.800781 16.40625 154.144531 16.46875 C 166.414062 15.058594 176.722656 15.058594 186.414062 15.550781 C 165.308594 13.953125 143.53125 16.285156 122.734375 22.972656 C 121.691406 23.277344 120.707031 23.648438 119.664062 23.953125 C 119.175781 24.136719 118.621094 24.261719 118.132812 24.445312 C 117.640625 24.628906 117.148438 24.8125 116.660156 24.996094 C 117.148438 24.8125 117.640625 24.628906 118.132812 24.445312 L 119.664062 23.953125 C 120.648438 23.648438 121.691406 23.277344 122.671875 22.972656 C 134.019531 19.292969 146.046875 16.59375 158.316406 15.363281 C 170.585938 14.136719 182.980469 14.382812 194.757812 16.101562 L 192.671875 15.917969 C 191.996094 15.855469 191.261719 15.792969 190.585938 15.734375 C 189.175781 15.671875 187.765625 15.609375 186.351562 15.488281 C 191.136719 15.792969 195.863281 16.46875 200.585938 17.144531 C 202.917969 17.574219 205.25 18.003906 207.582031 18.433594 C 209.910156 18.984375 212.183594 19.535156 214.511719 20.027344 C 223.714844 22.359375 232.671875 25.488281 241.261719 29.292969 C 249.851562 33.09375 258.070312 37.636719 265.863281 42.851562 C 273.59375 48.066406 280.894531 53.953125 287.703125 60.335938 C 286.84375 59.414062 285.925781 58.496094 285.003906 57.574219 C 284.085938 56.652344 283.042969 55.734375 282 54.8125 C 280.957031 53.894531 279.914062 52.910156 278.808594 51.992188 C 277.644531 51.070312 276.539062 50.152344 275.3125 49.230469 C 270.585938 45.488281 265.25 41.929688 259.730469 38.554688 C 248.5625 31.929688 236.292969 26.59375 225.496094 22.726562 C 245.003906 28.800781 263.777344 38.921875 280.035156 52.480469 C 296.355469 65.980469 310.160156 82.910156 320.160156 101.808594 C 330.21875 120.703125 336.355469 141.5625 338.378906 162.542969 C 339.421875 173.035156 339.421875 183.527344 338.5625 193.894531 C 337.644531 204.203125 335.742188 214.386719 332.980469 224.140625 L 334.453125 218.925781 C 334.945312 217.207031 335.3125 215.429688 335.742188 213.648438 C 336.664062 210.152344 337.214844 206.59375 337.890625 203.035156 C 338.992188 195.917969 339.792969 188.742188 339.914062 181.503906 C 340.21875 174.261719 339.851562 167.023438 339.238281 159.785156 C 339.054688 158.003906 338.808594 156.164062 338.625 154.386719 C 338.503906 153.464844 338.441406 152.542969 338.257812 151.6875 L 337.828125 148.988281 C 337.519531 147.207031 337.277344 145.367188 336.90625 143.585938 C 336.539062 141.808594 336.109375 140.027344 335.742188 138.25 C 336.046875 139.601562 336.355469 141.011719 336.664062 142.421875 C 336.847656 143.15625 337.03125 143.832031 337.152344 144.570312 C 337.277344 145.304688 337.460938 146.042969 337.582031 146.777344 C 337.890625 148.3125 338.132812 149.785156 338.441406 151.316406 C 338.503906 151.5 338.503906 151.746094 338.5625 151.929688 C 337.214844 143.402344 335.3125 135.183594 332.675781 127.085938 C 331.875 124.753906 331.078125 122.421875 330.28125 120.089844 C 329.421875 118.003906 328.625 115.917969 327.765625 113.832031 C 330.894531 121.195312 333.535156 128.679688 335.558594 136.410156 C 338.933594 149.171875 340.773438 162.300781 341.203125 175.367188 C 341.324219 177.332031 341.261719 179.109375 341.261719 180.765625 C 341.261719 182.359375 341.261719 183.832031 341.261719 185.0625 C 341.203125 187.574219 341.140625 189.476562 341.140625 190.765625 C 341.140625 193.402344 341.324219 193.773438 341.632812 192.789062 C 341.9375 191.808594 342.304688 189.355469 342.675781 186.410156 C 342.859375 184.9375 342.921875 183.28125 342.980469 181.625 C 343.042969 179.96875 343.164062 178.25 343.105469 176.65625 C 342.980469 172.605469 342.980469 168.558594 342.550781 164.507812 C 342.492188 163.527344 342.367188 162.484375 342.304688 161.503906 C 342.246094 161.011719 342.246094 160.519531 342.183594 160.03125 L 342 158.558594 C 341.753906 156.59375 341.507812 154.570312 341.261719 152.605469 C 340.957031 150.644531 340.589844 148.679688 340.21875 146.714844 C 340.035156 145.734375 339.851562 144.753906 339.667969 143.773438 C 339.484375 142.789062 339.238281 141.871094 338.992188 140.886719 C 338.5625 138.984375 338.132812 137.023438 337.644531 135.121094 C 337.089844 133.21875 336.601562 131.316406 336.046875 129.476562 C 333.777344 121.992188 331.140625 114.628906 327.828125 107.636719 L 326.660156 105 C 326.234375 104.140625 325.804688 103.28125 325.375 102.421875 C 324.515625 100.703125 323.65625 98.984375 322.734375 97.269531 C 320.773438 93.953125 318.992188 90.582031 316.847656 87.390625 C 300.402344 61.625 277.089844 40.765625 249.542969 27.636719 C 248.746094 27.265625 247.949219 26.835938 247.089844 26.46875 L 244.636719 25.425781 C 242.980469 24.75 241.324219 24.015625 239.667969 23.339844 C 238.011719 22.726562 236.292969 22.113281 234.636719 21.5 C 233.777344 21.191406 232.980469 20.886719 232.121094 20.578125 L 229.542969 19.78125 L 224.390625 18.125 L 219.238281 16.960938 L 216.660156 16.285156 L 214.023438 15.734375 L 208.746094 14.566406 C 194.636719 11.867188 180.15625 10.949219 165.800781 11.746094 C 161.75 12.050781 157.273438 12.234375 152.734375 12.847656 C 151.628906 12.972656 150.464844 13.09375 149.296875 13.277344 C 148.132812 13.464844 147.027344 13.648438 145.921875 13.832031 C 144.820312 14.015625 143.652344 14.199219 142.550781 14.445312 C 141.996094 14.566406 141.445312 14.628906 140.890625 14.75 C 140.339844 14.875 139.789062 14.996094 139.234375 15.121094 C 137.089844 15.609375 134.941406 16.101562 132.917969 16.53125 C 130.890625 17.082031 128.992188 17.636719 127.210938 18.125 C 126.289062 18.371094 125.433594 18.617188 124.632812 18.863281 C 123.835938 19.167969 123.039062 19.414062 122.304688 19.660156 C 120.832031 20.148438 119.542969 20.640625 118.375 21.007812 C 106.660156 25.488281 95.371094 31.4375 84.695312 38.617188 C 79.296875 42.175781 74.265625 46.164062 69.234375 50.335938 C 68.007812 51.378906 66.78125 52.542969 65.554688 53.585938 C 64.328125 54.691406 63.101562 55.734375 61.933594 56.960938 C 59.601562 59.292969 57.210938 61.5625 55 64.015625 C 53.898438 65.242188 52.730469 66.410156 51.628906 67.695312 C 50.585938 68.984375 49.480469 70.273438 48.4375 71.5 C 47.886719 72.113281 47.332031 72.789062 46.84375 73.402344 L 45.308594 75.425781 C 44.265625 76.777344 43.285156 78.066406 42.242188 79.414062 C 38.375 84.9375 34.570312 90.519531 31.382812 96.59375 C 29.664062 99.539062 28.191406 102.667969 26.65625 105.734375 C 26.289062 106.46875 25.921875 107.269531 25.554688 108.066406 L 24.511719 110.457031 L 23.46875 112.851562 L 22.914062 114.015625 L 22.425781 115.242188 C 21.8125 116.839844 21.199219 118.496094 20.582031 120.089844 L 20.09375 121.316406 C 19.96875 121.746094 19.847656 122.113281 19.664062 122.542969 L 18.070312 127.574219 C 17.761719 128.433594 17.515625 129.230469 17.269531 130.089844 C 16.78125 131.808594 16.351562 133.464844 15.859375 135.183594 C 12.546875 147.328125 10.769531 160.152344 10.523438 173.097656 C 10.523438 174.691406 10.398438 176.347656 10.460938 177.945312 C 10.523438 179.539062 10.582031 181.195312 10.582031 182.789062 L 10.644531 185.246094 C 10.644531 186.042969 10.769531 186.839844 10.828125 187.699219 C 10.953125 189.292969 11.074219 190.949219 11.257812 192.605469 L 11.382812 193.832031 C 11.441406 194.261719 11.503906 194.632812 11.566406 195.0625 L 11.871094 197.515625 C 12.117188 199.109375 12.300781 200.765625 12.546875 202.363281 L 13.46875 207.207031 L 13.898438 209.601562 C 14.019531 210.398438 14.265625 211.195312 14.449219 211.992188 L 15.613281 216.777344 L 15.921875 218.003906 L 16.289062 219.171875 L 16.964844 221.5625 C 17.453125 223.160156 17.824219 224.753906 18.375 226.289062 L 19.96875 230.949219 L 20.769531 233.28125 L 21.6875 235.550781 L 23.527344 240.09375 C 24.203125 241.625 24.878906 243.097656 25.554688 244.570312 C 26.226562 246.042969 26.902344 247.578125 27.699219 248.988281 C 29.234375 251.871094 30.707031 254.816406 32.363281 257.636719 C 33.222656 259.050781 33.957031 260.460938 34.878906 261.871094 C 35.738281 263.222656 36.65625 264.632812 37.515625 265.980469 L 38.867188 268.007812 L 40.277344 269.96875 C 41.199219 271.320312 42.179688 272.609375 43.097656 273.894531 C 44.082031 275.183594 45.125 276.472656 46.105469 277.699219 C 47.148438 278.925781 48.070312 280.277344 49.171875 281.441406 C 57.578125 291.257812 66.902344 300.03125 76.964844 307.578125 C 87.027344 315.0625 97.761719 321.257812 108.683594 326.226562 C 119.605469 331.199219 130.832031 334.878906 141.875 337.332031 C 152.917969 339.847656 163.835938 341.199219 174.328125 341.6875 C 172.367188 341.628906 170.035156 341.441406 167.457031 341.257812 Z M 220.464844 18.003906 C 222.488281 18.492188 224.390625 18.984375 226.230469 19.597656 C 228.070312 20.210938 229.789062 20.824219 231.445312 21.378906 C 233.101562 21.992188 234.699219 22.726562 236.230469 23.339844 C 242.425781 25.976562 247.640625 28.921875 253.347656 31.867188 C 261.078125 35.980469 268.5625 40.640625 275.558594 45.917969 C 277.273438 47.265625 278.992188 48.617188 280.773438 49.90625 C 282.429688 51.316406 284.085938 52.726562 285.742188 54.136719 C 286.601562 54.8125 287.398438 55.550781 288.132812 56.347656 L 290.527344 58.554688 C 291.324219 59.292969 292.121094 60.027344 292.859375 60.824219 C 293.59375 61.625 294.332031 62.359375 295.128906 63.15625 C 296.601562 64.691406 298.132812 66.222656 299.546875 67.882812 C 300.957031 69.476562 302.367188 71.070312 303.777344 72.726562 C 305.128906 74.382812 306.417969 76.039062 307.765625 77.695312 C 308.441406 78.496094 309.054688 79.414062 309.667969 80.210938 C 310.28125 81.070312 310.894531 81.929688 311.507812 82.789062 C 312.121094 83.648438 312.734375 84.445312 313.347656 85.367188 C 313.902344 86.226562 314.515625 87.082031 315.066406 88.003906 C 316.171875 89.78125 317.398438 91.441406 318.378906 93.21875 C 319.421875 94.996094 320.464844 96.777344 321.445312 98.496094 C 322.367188 100.273438 323.347656 102.113281 324.269531 103.894531 C 319.546875 94.570312 313.960938 85.734375 307.582031 77.511719 C 311.816406 83.035156 315.433594 88.554688 318.808594 94.261719 C 319.359375 95.242188 319.914062 96.226562 320.464844 97.144531 L 321.324219 98.617188 L 322.0625 100.089844 C 323.042969 102.113281 324.085938 104.078125 325.128906 106.164062 C 326.046875 108.25 326.96875 110.398438 327.949219 112.542969 C 328.871094 114.691406 329.667969 116.960938 330.527344 119.230469 C 329.914062 117.882812 329.175781 116.164062 328.378906 114.261719 C 328.011719 113.28125 327.519531 112.359375 327.089844 111.378906 C 326.660156 110.398438 326.171875 109.414062 325.742188 108.433594 C 325.25 107.453125 324.882812 106.53125 324.390625 105.613281 C 323.902344 104.753906 323.472656 103.894531 323.042969 103.15625 C 322.246094 101.683594 321.507812 100.457031 321.078125 99.84375 C 322.183594 101.929688 323.289062 104.015625 324.269531 106.164062 C 323.164062 104.015625 322.0625 101.871094 320.894531 99.660156 C 320.957031 99.722656 320.957031 99.785156 321.019531 99.84375 C 309.851562 79.351562 294.332031 61.195312 275.925781 46.898438 C 266.722656 39.78125 256.84375 33.523438 246.476562 28.492188 C 236.046875 23.464844 225.1875 19.476562 214.082031 16.652344 C 216.355469 16.960938 218.441406 17.511719 220.464844 18.003906 Z M 327.152344 112.667969 C 326.292969 110.828125 325.433594 108.925781 324.574219 107.023438 C 325.433594 108.863281 326.292969 110.765625 327.152344 112.667969 Z M 307.273438 77.269531 C 306.660156 76.46875 306.046875 75.671875 305.375 74.875 C 306.046875 75.671875 306.660156 76.46875 307.273438 77.269531 Z M 303.347656 94.445312 C 304.515625 96.46875 305.863281 98.554688 307.03125 100.886719 L 305.742188 98.679688 L 304.390625 96.53125 C 303.472656 95.121094 302.550781 93.710938 301.632812 92.296875 C 299.667969 89.597656 297.765625 86.777344 295.617188 84.140625 C 291.507812 78.800781 286.90625 73.832031 282.058594 69.046875 L 278.378906 65.550781 C 277.765625 64.9375 277.089844 64.445312 276.476562 63.894531 L 272.671875 60.582031 C 272.058594 60.027344 271.324219 59.539062 270.648438 58.984375 C 269.300781 57.941406 267.949219 56.898438 266.601562 55.855469 C 265.1875 54.875 263.839844 53.894531 262.429688 52.910156 C 261.753906 52.421875 261.015625 51.929688 260.34375 51.4375 L 258.195312 50.089844 C 256.722656 49.167969 255.3125 48.25 253.839844 47.328125 C 252.367188 46.46875 250.832031 45.609375 249.359375 44.75 L 249.359375 44.691406 C 259.054688 49.964844 270.097656 57.757812 279.175781 66.222656 C 280.28125 67.265625 281.445312 68.371094 282.488281 69.351562 C 283.042969 69.84375 283.59375 70.394531 284.085938 70.949219 C 284.574219 71.5 285.128906 71.992188 285.617188 72.542969 C 286.601562 73.585938 287.644531 74.566406 288.625 75.609375 C 289.542969 76.652344 290.464844 77.636719 291.324219 78.617188 C 291.753906 79.109375 292.183594 79.597656 292.613281 80.027344 C 292.796875 80.273438 293.042969 80.519531 293.226562 80.703125 C 293.410156 80.949219 293.59375 81.195312 293.839844 81.4375 C 294.636719 82.359375 295.375 83.28125 296.109375 84.140625 C 296.84375 84.996094 297.519531 85.796875 298.195312 86.53125 C 298.808594 87.328125 299.421875 88.003906 299.972656 88.679688 C 300.957031 90.519531 302.183594 92.359375 303.347656 94.445312 Z M 302.675781 272.179688 C 307.460938 265.859375 311.816406 259.171875 315.679688 252.238281 L 318.441406 246.964844 C 318.933594 246.105469 319.300781 245.183594 319.730469 244.265625 L 321.019531 241.566406 C 321.445312 240.644531 321.875 239.785156 322.246094 238.863281 L 323.347656 236.105469 L 324.453125 233.34375 L 325.003906 231.933594 L 325.496094 230.519531 C 326.171875 228.621094 326.785156 226.71875 327.460938 224.878906 C 328.011719 222.976562 328.625 221.011719 329.175781 219.109375 C 329.789062 217.207031 330.21875 215.246094 330.710938 213.28125 C 331.203125 211.320312 331.691406 209.355469 332 207.390625 C 331.816406 208.25 331.691406 209.171875 331.507812 210.03125 L 330.894531 212.605469 C 330.464844 214.324219 330.160156 216.042969 329.667969 217.761719 C 328.6875 221.132812 327.828125 224.632812 326.601562 227.945312 C 324.453125 234.691406 321.632812 241.257812 318.5625 247.636719 C 314.453125 255.796875 309.605469 263.464844 304.269531 270.582031 C 298.929688 277.699219 293.042969 284.140625 286.84375 289.96875 C 292.550781 284.386719 297.828125 278.4375 302.675781 272.179688 Z M 322.304688 135.671875 C 322.675781 137.023438 323.042969 138.371094 323.347656 139.722656 C 323.65625 141.070312 323.902344 142.484375 324.207031 143.894531 C 324.820312 146.65625 325.191406 149.476562 325.617188 152.238281 C 325.128906 149.414062 324.699219 146.65625 324.023438 143.894531 C 323.71875 142.542969 323.410156 141.132812 323.105469 139.785156 C 322.734375 138.433594 322.367188 137.085938 322 135.734375 C 322.304688 136.714844 322.246094 135.796875 322.304688 135.671875 Z M 327.214844 190.214844 C 327.089844 190.890625 326.90625 191.625 326.785156 192.484375 C 326.660156 193.34375 326.417969 194.261719 326.292969 195.246094 L 326.539062 193.710938 L 326.660156 192.914062 L 326.722656 192.117188 C 326.785156 191.074219 326.90625 190.03125 326.96875 189.046875 C 327.03125 188.003906 327.152344 186.960938 327.214844 185.980469 C 327.277344 185.488281 327.277344 184.9375 327.277344 184.445312 L 327.335938 182.914062 C 327.460938 185.367188 327.277344 187.761719 327.214844 190.214844 Z M 298.441406 266.042969 C 298.074219 266.59375 297.644531 267.148438 297.273438 267.699219 C 296.90625 268.253906 296.417969 268.742188 296.046875 269.234375 C 297.089844 267.945312 298.011719 266.59375 298.992188 265.246094 C 299.484375 264.570312 299.972656 263.894531 300.402344 263.222656 C 300.894531 262.546875 301.386719 261.871094 301.816406 261.136719 L 304.515625 256.902344 L 305.1875 255.859375 L 305.804688 254.753906 C 306.230469 254.019531 306.601562 253.34375 307.03125 252.609375 C 306.355469 253.957031 305.863281 255.0625 305.496094 255.675781 C 304.761719 256.902344 303.960938 258.066406 303.164062 259.234375 C 302.796875 259.847656 302.429688 260.398438 302 261.011719 C 301.632812 261.625 301.261719 262.179688 300.832031 262.730469 C 300.035156 263.835938 299.238281 264.9375 298.441406 266.042969 Z M 298.441406 266.042969 " fill-opacity="1" fill-rule="nonzero"/></g><g clip-path="url(#3bdb253c65)"><g clip-path="url(#fd7b550ecf)"><g clip-path="url(#7912e0ce5f)"><path fill="#b2217a" d="M 214.597656 356.769531 C 197.011719 354.097656 179.929688 347.851562 164.894531 338.324219 C 164.363281 338.105469 163.457031 337.566406 162.34375 336.878906 C 161.796875 336.558594 161.203125 336.152344 160.542969 335.738281 C 159.882812 335.320312 159.234375 334.835938 158.589844 334.355469 C 157.941406 333.871094 157.257812 333.414062 156.585938 332.894531 C 155.9375 332.410156 155.253906 331.953125 154.648438 331.445312 C 153.417969 330.496094 152.242188 329.625 151.363281 328.957031 C 152.808594 330.160156 154.191406 331.347656 155.625 332.445312 C 157.058594 333.542969 158.507812 334.574219 159.890625 335.59375 C 161.3125 336.585938 162.777344 337.554688 164.171875 338.507812 L 165.246094 339.222656 L 166.335938 339.867188 C 167.0625 340.300781 167.789062 340.730469 168.511719 341.160156 C 172.75 343.65625 177.148438 345.878906 181.851562 347.960938 C 174.667969 344.894531 167.765625 341.136719 161.269531 336.785156 C 162.550781 337.644531 163.847656 338.4375 165.128906 339.296875 C 166.464844 340.066406 167.824219 340.875 169.160156 341.644531 C 170.480469 342.476562 171.933594 343.171875 173.308594 343.914062 C 174.722656 344.632812 176.125 345.414062 177.59375 346.042969 C 183.371094 348.839844 189.496094 351.128906 195.773438 353.042969 C 208.390625 356.886719 221.882812 358.597656 235.28125 358.238281 C 240.140625 358.03125 244.75 358.046875 249.863281 357.453125 C 251.121094 357.316406 252.445312 357.195312 253.761719 356.96875 C 255.074219 356.742188 256.464844 356.46875 257.921875 356.203125 C 259.378906 355.941406 260.800781 355.535156 262.328125 355.113281 C 263.851562 354.695312 265.457031 354.226562 267.089844 353.625 C 258.660156 355.953125 249.941406 357.402344 241.152344 357.945312 C 232.277344 358.539062 223.382812 358.136719 214.597656 356.769531 Z M 182.863281 348.488281 C 183.332031 348.695312 183.867188 348.914062 184.375 349.089844 C 183.867188 348.914062 183.398438 348.707031 182.863281 348.488281 Z M 129.980469 305.785156 C 130.476562 306.476562 131.042969 307.179688 131.539062 307.867188 C 130.976562 307.164062 130.425781 306.394531 129.863281 305.691406 C 129.570312 305.320312 129.300781 304.988281 129.042969 304.59375 C 128.816406 304.234375 128.519531 303.863281 128.289062 303.503906 C 127.308594 302.0625 126.324219 300.617188 125.457031 299.269531 C 126.464844 300.75 127.449219 302.195312 128.433594 303.640625 C 128.660156 303.996094 128.917969 304.394531 129.1875 304.726562 C 129.480469 305.097656 129.75 305.429688 129.980469 305.785156 Z M 285.820312 343.839844 C 300.390625 336.839844 313.824219 326.925781 324.914062 314.417969 C 318.921875 321.238281 311.992188 327.652344 304.394531 333.203125 C 296.796875 338.753906 288.5 343.296875 280.050781 346.648438 C 282.015625 345.777344 283.90625 344.789062 285.820312 343.839844 Z M 238.945312 355.210938 C 247.054688 354.828125 255.269531 353.644531 263.34375 351.546875 C 255.375 353.632812 247.171875 354.921875 239.035156 355.265625 C 230.863281 355.636719 222.808594 355.144531 215.195312 353.859375 C 222.820312 355.078125 230.8125 355.554688 238.945312 355.210938 Z M 343.578125 199.292969 C 339.328125 184.640625 332.160156 170.507812 322.179688 157.851562 C 322.539062 158.234375 322.847656 158.710938 323.164062 159.125 C 323.484375 159.535156 323.832031 159.984375 324.152344 160.398438 C 324.816406 161.257812 325.484375 162.121094 326.136719 163.050781 C 326.761719 163.9375 327.375 164.890625 328.027344 165.816406 C 328.332031 166.292969 328.675781 166.746094 328.984375 167.222656 C 329.289062 167.699219 329.636719 168.148438 329.902344 168.652344 C 331.085938 170.582031 332.378906 172.164062 333.007812 173.050781 C 335.757812 178.292969 338.179688 183.636719 340.621094 190.144531 C 341.023438 191.121094 341.847656 193.28125 342.652344 195.234375 C 342.917969 196.519531 343.234375 197.886719 343.578125 199.292969 Z M 314.535156 328.035156 C 314.867188 327.765625 315.175781 327.457031 315.507812 327.1875 C 314.710938 327.867188 313.976562 328.5625 313.15625 329.203125 C 313.621094 328.792969 314.085938 328.382812 314.535156 328.035156 Z M 351.0625 275.75 C 351.050781 275.816406 350.996094 275.90625 350.980469 275.972656 C 350.996094 275.90625 351.050781 275.816406 351.0625 275.75 Z M 351.847656 273.566406 C 352.152344 272.640625 352.457031 271.71875 352.773438 270.726562 C 352.46875 271.652344 352.191406 272.617188 351.847656 273.566406 Z M 122.089844 294.980469 C 121.59375 294.121094 121.175781 293.210938 120.695312 292.289062 C 120.214844 291.363281 119.746094 290.375 119.277344 289.382812 C 119.039062 288.921875 118.769531 288.417969 118.542969 287.890625 C 118.316406 287.363281 118.117188 286.875 117.890625 286.347656 C 117.4375 285.292969 116.984375 284.238281 116.492188 283.210938 L 116.152344 282.417969 C 116.039062 282.15625 115.925781 281.890625 115.851562 281.601562 C 115.664062 281.046875 115.4375 280.519531 115.25 279.96875 C 114.835938 278.886719 114.398438 277.769531 113.984375 276.6875 C 113.609375 275.582031 113.238281 274.476562 112.839844 273.328125 C 112.464844 272.222656 112.089844 271.117188 111.757812 269.984375 C 111.449219 268.894531 111.179688 267.777344 110.871094 266.683594 C 110.5625 265.59375 110.277344 264.542969 110.035156 263.464844 C 109.792969 262.386719 109.574219 261.347656 109.382812 260.351562 C 109.191406 259.351562 108.933594 258.339844 108.832031 257.394531 C 108.535156 255.453125 108.238281 253.679688 108.085938 252.042969 C 108.453125 253.488281 108.847656 254.972656 109.238281 256.460938 C 109.1875 255.765625 109.0625 254.609375 108.851562 253.234375 C 108.789062 252.878906 108.730469 252.523438 108.710938 252.144531 C 108.691406 251.765625 108.605469 251.371094 108.585938 250.988281 C 108.523438 250.191406 108.433594 249.351562 108.316406 248.472656 C 108.226562 247.632812 108.109375 246.753906 108.035156 245.847656 C 107.984375 244.984375 107.933594 244.121094 107.882812 243.253906 C 107.765625 241.589844 107.664062 240.03125 107.671875 238.734375 C 107.753906 239.300781 107.769531 239.847656 107.839844 240.480469 C 107.878906 241.070312 107.949219 241.699219 107.992188 242.289062 C 108.101562 243.507812 108.132812 244.777344 108.226562 246.0625 C 108.101562 243.507812 108.101562 243.507812 107.960938 241.019531 C 108.234375 243.367188 108.398438 246.066406 108.847656 248.859375 C 108.964844 249.570312 109.042969 250.304688 109.164062 251.011719 C 109.222656 251.367188 109.28125 251.722656 109.300781 252.101562 C 109.359375 252.457031 109.445312 252.851562 109.503906 253.203125 C 109.769531 254.664062 110.054688 256.160156 110.34375 257.65625 C 111.644531 263.609375 113.382812 269.726562 115.308594 274.996094 C 115.507812 275.652344 115.8125 276.300781 116.050781 276.933594 C 116.285156 277.5625 116.5625 278.171875 116.800781 278.804688 C 117.078125 279.410156 117.292969 280.003906 117.542969 280.570312 C 117.796875 281.136719 117.984375 281.691406 118.273438 282.230469 C 119.285156 284.332031 120.144531 286.191406 120.917969 287.65625 C 122.519531 290.5 123.449219 291.863281 123.308594 290.945312 C 122.960938 289.09375 118.691406 280.785156 115.167969 269.535156 C 113.457031 263.902344 111.917969 257.488281 110.902344 251.015625 C 110.683594 249.363281 110.449219 247.777344 110.226562 246.121094 C 110.074219 244.484375 109.945312 242.882812 109.8125 241.285156 C 109.769531 240.867188 109.75 240.484375 109.703125 240.066406 C 109.683594 239.6875 109.679688 239.242188 109.660156 238.859375 C 109.632812 238.035156 109.59375 237.277344 109.59375 236.492188 C 109.554688 235.730469 109.554688 234.945312 109.515625 234.183594 C 109.515625 233.398438 109.542969 232.652344 109.570312 231.910156 C 109.597656 232.5625 109.597656 233.179688 109.628906 233.832031 C 109.65625 234.488281 109.722656 235.117188 109.75 235.773438 C 109.847656 237.058594 109.96875 238.382812 110.050781 239.730469 C 110.171875 241.054688 110.359375 242.394531 110.503906 243.757812 C 110.597656 244.425781 110.652344 245.121094 110.746094 245.792969 C 110.839844 246.460938 110.929688 247.128906 111.050781 247.839844 C 111.261719 249.214844 111.488281 250.53125 111.699219 251.90625 C 111.953125 253.261719 112.269531 254.625 112.519531 255.980469 C 112.679688 256.664062 112.773438 257.332031 112.929688 258.015625 C 113.089844 258.699219 113.246094 259.382812 113.445312 260.039062 L 113.960938 262.066406 C 114.121094 262.75 114.277344 263.433594 114.476562 264.089844 L 115.675781 268.140625 L 115.972656 269.128906 L 116.335938 270.128906 L 117.035156 272.09375 C 117.917969 274.777344 119.039062 277.3125 120.082031 279.894531 C 122.367188 284.933594 124.78125 289.832031 127.636719 294.277344 C 127.054688 293.195312 126.519531 292.191406 126.039062 291.265625 C 125.597656 290.316406 125.15625 289.367188 124.726562 288.351562 C 124.5 287.824219 124.261719 287.363281 124.007812 286.792969 C 123.757812 286.226562 123.464844 285.6875 123.226562 285.054688 C 122.710938 283.8125 122.09375 282.414062 121.347656 280.820312 C 121.082031 280.316406 120.894531 279.765625 120.695312 279.277344 L 120.082031 277.707031 L 118.851562 274.570312 L 117.765625 271.398438 L 117.230469 269.777344 C 117.046875 269.226562 116.882812 268.710938 116.722656 268.199219 C 115.472656 263.898438 114.304688 259.542969 113.492188 255.132812 C 111.71875 246.34375 110.808594 238.292969 111.40625 230.226562 C 111.40625 229.441406 111.40625 228.652344 111.46875 227.882812 C 111.511719 226.285156 111.457031 224.808594 111.5 223.210938 C 111.492188 222.765625 111.550781 222.335938 111.597656 221.96875 C 111.617188 221.5625 111.703125 221.171875 111.710938 220.832031 C 111.800781 220.101562 111.878906 219.433594 111.980469 218.808594 C 112.082031 218.179688 112.144531 217.578125 112.191406 217.042969 C 112.28125 216.480469 112.371094 215.921875 112.484375 215.398438 C 112.660156 214.277344 112.835938 213.152344 113.027344 211.796875 C 113.105469 211.128906 113.261719 210.414062 113.40625 209.589844 C 113.550781 208.769531 113.671875 207.90625 113.84375 206.953125 C 113.925781 206.902344 113.933594 207.175781 113.898438 207.648438 C 113.960938 207.046875 114.105469 206.394531 114.234375 205.636719 C 114.390625 204.921875 114.585938 204.179688 114.757812 203.394531 C 114.925781 202.613281 115.125 201.871094 115.292969 201.085938 C 115.378906 200.695312 115.449219 200.371094 115.535156 199.980469 C 115.648438 199.628906 115.691406 199.261719 115.761719 198.9375 C 115.921875 198.832031 116.082031 198.730469 116.324219 198.238281 C 121.175781 181.777344 129.535156 166.144531 141.171875 153.007812 C 142.066406 152.039062 142.894531 151.058594 143.789062 150.09375 C 144.707031 149.164062 145.585938 148.265625 146.507812 147.335938 C 146.945312 146.886719 147.425781 146.410156 147.867188 145.960938 C 148.332031 145.550781 148.808594 145.074219 149.273438 144.664062 C 150.21875 143.773438 151.148438 142.953125 152.09375 142.066406 C 152.929688 141.359375 153.769531 140.65625 154.605469 139.949219 C 155.441406 139.242188 156.253906 138.5 157.15625 137.808594 C 158.058594 137.117188 158.917969 136.449219 159.847656 135.796875 C 160.75 135.105469 161.652344 134.414062 162.605469 133.804688 C 163.53125 133.152344 164.394531 132.484375 165.136719 131.894531 C 165.878906 131.308594 166.4375 130.78125 166.914062 130.472656 C 168.195312 129.761719 169.492188 128.988281 170.816406 128.25 C 171.132812 128.046875 171.476562 127.882812 171.792969 127.675781 C 172.136719 127.511719 172.480469 127.347656 172.824219 127.183594 C 173.507812 126.855469 174.171875 126.488281 174.894531 126.132812 C 175.582031 125.804688 176.28125 125.410156 177.007812 125.058594 C 177.734375 124.703125 178.445312 124.414062 179.238281 124.074219 C 179.988281 123.761719 180.714844 123.40625 181.507812 123.066406 C 181.890625 122.875 182.273438 122.6875 182.679688 122.535156 C 183.089844 122.386719 183.496094 122.238281 183.878906 122.046875 C 184.34375 121.804688 185.132812 121.464844 186.042969 121.050781 C 186.914062 120.660156 187.945312 120.164062 188.960938 119.738281 C 190.222656 119.433594 191.539062 119.035156 192.957031 118.628906 C 193.445312 118.425781 194.023438 118.28125 194.539062 118.117188 L 196.101562 117.675781 C 197.128906 117.351562 198.183594 117.070312 199.25 116.71875 C 200.324219 116.476562 201.378906 116.195312 202.414062 115.976562 L 204.007812 115.570312 L 204.792969 115.402344 L 205.582031 115.230469 C 209.839844 114.351562 214.09375 113.636719 218.40625 113.277344 L 218.378906 113.238281 C 219.429688 113.125 220.542969 113.027344 221.65625 112.929688 C 222.773438 112.832031 223.9375 112.8125 225.078125 112.753906 C 227.398438 112.609375 229.804688 112.6875 232.265625 112.679688 C 233.496094 112.675781 234.699219 112.800781 235.953125 112.832031 L 237.8125 112.929688 C 238.453125 112.96875 239.027344 112.992188 239.628906 113.054688 C 242.058594 113.34375 244.515625 113.503906 246.917969 113.925781 C 248.105469 114.117188 249.269531 114.265625 250.457031 114.457031 C 251.605469 114.671875 252.753906 114.890625 253.863281 115.128906 C 255.507812 115.421875 257.097656 115.800781 258.621094 116.167969 L 261.109375 116.8125 C 261.984375 117.035156 262.804688 117.351562 263.675781 117.578125 L 266.226562 118.40625 L 266.867188 118.613281 L 267.503906 118.820312 L 268.765625 119.300781 C 268.285156 118.992188 268.183594 118.832031 268.148438 118.6875 C 267.820312 118.617188 267.507812 118.480469 267.15625 118.371094 C 266.804688 118.257812 266.453125 118.148438 266.0625 118.0625 C 265.453125 117.894531 264.8125 117.6875 264.199219 117.519531 C 266.496094 118.121094 268.527344 118.667969 270.195312 119.167969 C 270.949219 119.46875 271.726562 119.808594 272.507812 120.148438 C 273.3125 120.53125 274.117188 120.910156 274.921875 121.289062 C 275.726562 121.671875 276.597656 122.066406 277.46875 122.460938 C 278.300781 122.878906 279.195312 123.3125 280.089844 123.75 C 284.574219 125.75 288.851562 128.21875 293.046875 130.738281 L 296.15625 132.78125 L 297.707031 133.804688 L 299.207031 134.914062 C 300.175781 135.636719 301.210938 136.375 302.179688 137.101562 C 303.175781 137.863281 304.089844 138.675781 305.085938 139.441406 C 305.769531 139.898438 305.308594 139.351562 305.339844 139.222656 C 308.652344 142.027344 311.769531 145.132812 314.828125 148.324219 C 320.363281 153.96875 325.347656 160.246094 329.679688 166.996094 C 330.269531 167.742188 330.78125 168.535156 331.289062 169.328125 C 331.800781 170.125 332.351562 170.890625 332.859375 171.6875 C 333.0625 172.175781 333.351562 172.714844 333.628906 173.324219 C 333.90625 173.929688 334.210938 174.578125 334.566406 175.300781 L 335.628906 177.308594 C 336 177.972656 336.367188 178.632812 336.628906 179.304688 C 337.289062 180.675781 337.878906 182.035156 338.535156 183.40625 C 338.777344 183.871094 338.976562 184.359375 339.164062 184.910156 C 339.390625 185.4375 339.617188 185.964844 339.804688 186.519531 C 340.058594 187.085938 340.269531 187.679688 340.523438 188.246094 C 340.800781 188.851562 341.039062 189.484375 341.273438 190.117188 C 341.738281 191.449219 342.222656 192.816406 342.734375 194.226562 C 343.023438 194.9375 343.234375 195.703125 343.445312 196.464844 C 343.652344 197.226562 343.929688 198.003906 344.164062 198.808594 C 346.058594 205.160156 347.617188 212.570312 348.441406 220.230469 C 348.671875 221.371094 348.8125 222.292969 348.871094 222.816406 C 348.96875 223.929688 349 225.03125 349.074219 226.105469 C 349.109375 227.207031 349.222656 228.253906 349.191406 229.339844 C 349.199219 230.402344 349.207031 231.460938 349.214844 232.523438 C 349.222656 233.582031 349.203125 234.601562 349.148438 235.648438 C 349.117188 236.566406 349.0625 237.441406 349.050781 238.292969 C 348.996094 239.167969 349.007812 240.058594 348.925781 240.894531 C 348.753906 242.632812 348.617188 244.34375 348.5 245.992188 C 348.273438 247.652344 348.046875 249.308594 347.878906 250.878906 C 347.859375 251.285156 347.773438 251.675781 347.6875 252.066406 C 347.601562 252.457031 347.554688 252.824219 347.472656 253.214844 C 347.339844 253.972656 347.210938 254.726562 347.078125 255.484375 C 346.855469 256.972656 346.480469 258.394531 346.179688 259.761719 C 346.039062 260.414062 345.855469 261.09375 345.714844 261.746094 C 345.644531 262.070312 345.574219 262.398438 345.5 262.722656 C 345.429688 263.050781 345.335938 263.335938 345.238281 263.621094 C 344.542969 266.03125 344.035156 268.207031 343.414062 269.953125 C 342.75 272.0625 342.921875 272.0625 343.515625 270.894531 C 343.8125 270.3125 344.207031 269.441406 344.710938 268.390625 C 345.148438 267.324219 345.628906 266.0625 346.082031 264.761719 C 346.328125 264.097656 346.574219 263.433594 346.824219 262.773438 C 347.042969 262.070312 347.25 261.429688 347.460938 260.792969 C 347.847656 259.476562 348.289062 258.242188 348.621094 257.1875 C 349.21875 255.0625 349.648438 253.722656 349.640625 254.234375 C 349.472656 259.386719 348.121094 266.367188 345.125 274.796875 C 343.558594 279 341.742188 283.589844 339.261719 288.378906 C 338.121094 290.792969 336.667969 293.242188 335.285156 295.808594 C 333.75 298.308594 332.226562 300.914062 330.429688 303.527344 C 328.46875 306.414062 329.230469 305.417969 330.558594 303.726562 C 331.1875 302.875 331.988281 301.851562 332.644531 301.039062 C 333.273438 300.1875 333.71875 299.566406 333.796875 299.515625 C 333.550781 300.007812 333.269531 300.527344 332.996094 301.152344 C 332.699219 301.734375 332.296875 302.328125 331.917969 302.964844 C 330.589844 304.828125 329.328125 306.703125 327.882812 308.472656 L 326.652344 310.046875 C 326.261719 310.578125 325.835938 311.132812 325.394531 311.585938 L 322.789062 314.601562 C 323.246094 314.085938 323.738281 313.546875 324.191406 313.03125 C 326.96875 309.84375 329.5 306.535156 331.621094 303.378906 C 331.300781 303.921875 330.9375 304.492188 330.574219 305.0625 C 330.101562 305.8125 329.632812 306.566406 329.09375 307.300781 C 328.558594 308.039062 328.007812 308.839844 327.472656 309.578125 L 326.640625 310.730469 L 326.238281 311.324219 L 325.808594 311.878906 C 324.632812 313.363281 323.492188 314.824219 322.449219 316.167969 C 328.863281 309.300781 334.480469 301.710938 339.160156 293.546875 L 340.039062 292.03125 C 340.320312 291.511719 340.605469 290.992188 340.890625 290.472656 L 342.527344 287.347656 C 343.09375 286.308594 343.53125 285.242188 344.007812 284.152344 L 345.03125 281.027344 L 346.332031 277.726562 C 346.742188 276.621094 347.21875 275.527344 347.566406 274.410156 C 348.324219 272.183594 349.148438 269.972656 349.75 267.679688 L 350.722656 264.304688 L 351.542969 260.863281 C 352.144531 258.570312 352.511719 256.257812 352.941406 253.960938 C 353.03125 253.402344 353.160156 252.8125 353.246094 252.253906 L 353.488281 250.527344 L 353.980469 247.015625 C 354.128906 245.855469 354.214844 244.675781 354.300781 243.5 L 354.449219 241.722656 C 354.511719 241.121094 354.535156 240.546875 354.558594 239.96875 C 355.074219 230.554688 354.566406 221.121094 352.972656 211.824219 C 354.148438 218.808594 354.566406 225.832031 354.460938 232.742188 C 354.328125 239.613281 353.636719 246.394531 352.425781 252.894531 C 353.429688 246.863281 354.019531 240.707031 354.191406 234.597656 C 354.296875 228.472656 353.972656 222.289062 353.226562 216.148438 L 352.582031 211.570312 C 352.480469 210.796875 352.335938 210.046875 352.191406 209.296875 L 351.730469 207.011719 C 351.589844 206.265625 351.445312 205.515625 351.273438 204.726562 L 350.148438 200.179688 L 349.878906 199.0625 L 349.546875 197.929688 C 349.085938 196.429688 348.652344 194.96875 348.195312 193.46875 C 347.695312 191.996094 347.160156 190.546875 346.660156 189.070312 C 346.410156 188.332031 346.160156 187.597656 345.871094 186.882812 L 344.980469 184.710938 L 344.089844 182.535156 C 343.925781 182.191406 343.800781 181.824219 343.636719 181.480469 L 343.117188 180.410156 L 340.957031 175.910156 L 338.597656 171.535156 L 338.011719 170.453125 C 337.78125 170.09375 337.554688 169.738281 337.390625 169.394531 L 336.101562 167.304688 L 334.792969 165.175781 C 334.332031 164.460938 333.859375 163.808594 333.398438 163.09375 L 331.96875 161.042969 C 331.46875 160.351562 331.035156 159.675781 330.539062 158.988281 L 327.542969 155.023438 C 327.273438 154.691406 327.03125 154.398438 326.761719 154.066406 L 325.980469 153.109375 L 324.375 151.226562 L 323.59375 150.269531 L 323.183594 149.804688 L 322.769531 149.339844 L 321.085938 147.503906 C 312.117188 137.726562 301.523438 129.613281 290.0625 123.121094 C 291.050781 123.609375 292.152344 124.191406 293.253906 124.773438 C 294.382812 125.394531 295.550781 125.992188 296.714844 126.757812 C 296.238281 126.445312 295.757812 126.136719 295.238281 125.855469 L 293.722656 124.976562 L 290.691406 123.222656 C 289.691406 122.628906 288.640625 122.128906 287.628906 121.601562 C 286.617188 121.074219 285.578125 120.503906 284.527344 120.003906 L 281.359375 118.558594 C 280.304688 118.058594 279.253906 117.554688 278.175781 117.183594 C 276.003906 116.335938 273.886719 115.394531 271.683594 114.675781 C 270.34375 114.25 269.003906 113.820312 267.621094 113.417969 L 263.558594 112.324219 C 264.535156 112.539062 266.894531 113.15625 268.574219 113.589844 C 254.917969 109.179688 240.597656 107.050781 226.414062 107.40625 C 212.246094 107.703125 198.316406 110.644531 185.472656 115.527344 C 187.527344 114.714844 188.542969 114.285156 189.453125 113.871094 C 188.78125 114.132812 188.042969 114.382812 187.371094 114.644531 C 186.699219 114.910156 185.960938 115.15625 185.25 115.445312 C 183.402344 116.238281 181.53125 116.992188 179.710938 117.824219 C 177.917969 118.699219 176.121094 119.570312 174.367188 120.417969 C 176.097656 119.53125 177.890625 118.660156 179.6875 117.785156 C 181.507812 116.953125 183.378906 116.199219 185.183594 115.433594 C 185.910156 115.078125 186.714844 114.84375 187.464844 114.527344 C 188.242188 114.253906 188.992188 113.941406 189.769531 113.664062 C 190.195312 113.449219 190.679688 113.25 191.273438 113.035156 C 191.867188 112.824219 192.628906 112.613281 193.640625 112.355469 C 200.800781 110.058594 207.710938 108.59375 212.855469 108.039062 C 215.320312 107.6875 217.769531 107.574219 220.167969 107.378906 C 221.386719 107.269531 222.621094 107.265625 223.796875 107.179688 C 225.003906 107.136719 226.207031 107.089844 227.414062 107.046875 C 228.605469 107.066406 229.796875 107.085938 231 107.042969 C 232.191406 107.0625 233.355469 107.042969 234.535156 107.128906 C 236.902344 107.234375 239.242188 107.300781 241.542969 107.5625 C 250.78125 108.414062 259.613281 110.203125 267.746094 113 C 271.519531 114.332031 270.503906 114.144531 268.550781 113.550781 C 269.566406 113.90625 270.644531 114.28125 271.660156 114.636719 L 273.988281 115.382812 L 276.292969 116.261719 C 277.800781 116.863281 279.363281 117.375 280.882812 118.082031 C 282.375 118.75 283.910156 119.390625 285.390625 120.121094 C 286.867188 120.855469 288.335938 121.652344 289.8125 122.382812 C 296.335938 125.992188 302.496094 130.167969 308.175781 134.820312 C 308.730469 135.25 309.3125 135.714844 309.867188 136.144531 C 310.421875 136.574219 310.964844 137.066406 311.503906 137.5625 C 310.949219 137.132812 310.449219 136.613281 309.867188 136.144531 C 324.238281 148.394531 335.589844 163.707031 343.207031 180.464844 C 343.828125 181.691406 344.304688 182.957031 344.84375 184.234375 L 345.664062 186.121094 C 345.941406 186.730469 346.203125 187.402344 346.441406 188.035156 C 347.378906 190.628906 348.394531 193.171875 349.148438 195.828125 C 350.839844 201.082031 352.054688 206.46875 353.039062 211.839844 L 352.894531 210.921875 L 352.714844 210.027344 L 352.367188 208.175781 C 352.125 206.929688 351.910156 205.71875 351.605469 204.457031 C 351.324219 203.234375 350.980469 202 350.699219 200.777344 L 350.246094 198.9375 L 349.691406 197.109375 L 348.601562 193.488281 C 348.214844 192.277344 347.75 191.117188 347.367188 189.90625 L 346.726562 188.128906 L 346.417969 187.207031 L 346.066406 186.3125 L 344.605469 182.816406 C 344.144531 181.660156 343.613281 180.484375 343.042969 179.335938 L 341.441406 175.878906 C 340.832031 174.753906 340.246094 173.671875 339.679688 172.523438 C 339.070312 171.398438 338.527344 170.292969 337.835938 169.21875 C 337.1875 168.121094 336.566406 167.0625 335.917969 165.964844 C 335.585938 165.449219 335.265625 164.867188 334.9375 164.351562 L 333.875 162.789062 C 333.1875 161.71875 332.484375 160.710938 331.796875 159.636719 C 331.070312 158.589844 330.324219 157.609375 329.582031 156.628906 C 337.941406 167.023438 345.074219 180.050781 349.6875 194.136719 C 346.835938 184.976562 342.785156 176.136719 337.835938 167.820312 C 337.363281 167 336.921875 166.21875 336.433594 165.464844 C 336.179688 165.066406 335.992188 164.683594 335.734375 164.289062 C 335.480469 163.890625 335.25 163.53125 334.996094 163.136719 C 334.027344 161.628906 333.019531 160.144531 332.101562 158.714844 C 331.101562 157.335938 330.132812 155.996094 329.277344 154.75 C 328.417969 153.507812 327.496094 152.417969 326.769531 151.371094 C 332.78125 158.726562 337.066406 165.398438 340.777344 171.875 C 333.035156 157.550781 322.476562 144.425781 309.503906 133.742188 C 308.871094 133.195312 308.226562 132.714844 307.59375 132.164062 C 307.269531 131.925781 306.960938 131.617188 306.636719 131.378906 C 306.3125 131.136719 305.992188 130.894531 305.667969 130.652344 C 305.992188 130.894531 306.3125 131.136719 306.636719 131.378906 L 307.59375 132.164062 C 308.199219 132.671875 308.871094 133.195312 309.476562 133.703125 C 316.578125 139.519531 323.324219 146.179688 329.214844 153.613281 C 335.109375 161.042969 340.101562 169.167969 343.886719 177.503906 L 343.140625 176.078125 C 342.898438 175.617188 342.632812 175.113281 342.390625 174.652344 C 341.84375 173.710938 341.296875 172.773438 340.789062 171.808594 C 342.582031 175.035156 344.109375 178.371094 345.632812 181.710938 C 346.324219 183.398438 347.015625 185.085938 347.707031 186.773438 C 348.320312 188.511719 348.90625 190.210938 349.554688 191.921875 C 351.871094 198.847656 353.570312 205.945312 354.679688 213.085938 C 355.785156 220.226562 356.265625 227.433594 356.128906 234.644531 C 355.964844 241.8125 355.1875 248.988281 353.890625 256.046875 C 354.128906 255.109375 354.339844 254.128906 354.554688 253.152344 C 354.765625 252.175781 354.929688 251.117188 355.089844 250.058594 C 355.253906 249 355.457031 247.917969 355.59375 246.820312 C 355.703125 245.683594 355.839844 244.585938 355.925781 243.410156 C 356.382812 238.796875 356.46875 233.863281 356.359375 228.886719 C 356.003906 218.90625 354.359375 208.746094 352.375 200.152344 C 356.550781 215.304688 357.800781 231.660156 355.785156 247.820312 C 353.832031 263.992188 348.609375 279.964844 340.535156 294.289062 C 332.488281 308.65625 321.539062 321.296875 308.800781 331.328125 C 302.441406 336.363281 295.652344 340.722656 288.585938 344.476562 C 281.53125 348.164062 274.148438 351.167969 266.6875 353.433594 L 270.675781 352.21875 C 271.992188 351.824219 273.296875 351.324219 274.625 350.863281 C 277.273438 350.003906 279.804688 348.882812 282.386719 347.839844 C 287.453125 345.597656 292.429688 343.128906 297.167969 340.199219 C 301.980469 337.390625 306.511719 334.140625 310.941406 330.734375 C 312.019531 329.878906 313.105469 328.953125 314.183594 328.09375 C 314.726562 327.632812 315.296875 327.210938 315.777344 326.734375 L 317.34375 325.335938 C 318.367188 324.398438 319.457031 323.472656 320.457031 322.496094 C 321.457031 321.519531 322.429688 320.5 323.425781 319.523438 C 322.679688 320.28125 321.894531 321.066406 321.109375 321.851562 C 320.710938 322.277344 320.347656 322.675781 319.921875 323.0625 C 319.496094 323.449219 319.097656 323.871094 318.671875 324.257812 C 317.808594 325.09375 316.957031 325.863281 316.089844 326.699219 C 315.996094 326.816406 315.839844 326.917969 315.746094 327.035156 C 320.703125 322.617188 325.234375 317.96875 329.378906 312.894531 C 330.554688 311.410156 331.734375 309.925781 332.910156 308.441406 C 333.902344 307.019531 334.921875 305.632812 335.914062 304.210938 C 332.449219 309.296875 328.703125 314.113281 324.542969 318.636719 C 317.683594 326.125 309.953125 332.773438 301.671875 338.484375 C 300.453125 339.378906 299.277344 340.078125 298.203125 340.765625 C 297.171875 341.429688 296.21875 342.042969 295.425781 342.550781 C 293.769531 343.558594 292.515625 344.308594 291.679688 344.84375 C 289.972656 345.941406 289.8125 346.214844 290.574219 346.003906 C 291.335938 345.792969 293.078125 345.011719 295.136719 344.027344 C 296.167969 343.535156 297.265625 342.886719 298.363281 342.234375 C 299.460938 341.585938 300.621094 340.953125 301.628906 340.25 C 304.199219 338.488281 306.820312 336.804688 309.261719 334.84375 C 309.871094 334.394531 310.496094 333.882812 311.105469 333.4375 C 311.398438 333.191406 311.714844 332.988281 312.007812 332.746094 L 312.882812 332.011719 C 314.054688 331.039062 315.261719 330.039062 316.429688 329.0625 C 317.574219 328.046875 318.691406 326.996094 319.808594 325.941406 C 320.367188 325.414062 320.925781 324.886719 321.484375 324.359375 C 322.042969 323.832031 322.539062 323.289062 323.070312 322.722656 C 324.125 321.65625 325.214844 320.5625 326.242188 319.453125 C 327.242188 318.304688 328.269531 317.195312 329.230469 316.074219 C 333.132812 311.496094 336.800781 306.726562 339.953125 301.675781 L 341.175781 299.824219 C 341.550781 299.191406 341.929688 298.554688 342.304688 297.921875 C 343.0625 296.648438 343.816406 295.378906 344.546875 294.070312 C 345.875 291.421875 347.316406 288.867188 348.492188 286.152344 C 358.332031 264.800781 362.144531 241.042969 359.191406 217.757812 C 359.101562 217.089844 359.046875 216.394531 358.925781 215.683594 L 358.582031 213.664062 C 358.332031 212.308594 358.117188 210.933594 357.867188 209.578125 C 357.574219 208.253906 357.257812 206.886719 356.96875 205.558594 C 356.808594 204.875 356.675781 204.230469 356.515625 203.546875 L 355.960938 201.546875 L 354.894531 197.523438 L 353.503906 193.703125 L 352.871094 191.757812 L 352.132812 189.820312 L 350.695312 185.921875 C 346.574219 175.664062 341.152344 165.910156 334.671875 156.953125 C 332.789062 154.457031 330.808594 151.636719 328.523438 148.953125 C 327.984375 148.289062 327.421875 147.585938 326.816406 146.90625 C 326.214844 146.230469 325.636719 145.589844 325.058594 144.953125 C 324.480469 144.316406 323.875 143.636719 323.257812 143.023438 C 322.949219 142.71875 322.679688 142.386719 322.371094 142.078125 C 322.0625 141.773438 321.753906 141.46875 321.445312 141.160156 C 320.234375 139.976562 319.023438 138.789062 317.90625 137.65625 C 316.707031 136.578125 315.558594 135.574219 314.5 134.628906 C 313.960938 134.132812 313.445312 133.679688 312.953125 133.265625 C 312.425781 132.878906 311.933594 132.460938 311.46875 132.089844 C 310.539062 131.339844 309.6875 130.710938 308.964844 130.109375 C 301.195312 124.386719 292.652344 119.550781 283.566406 115.625 C 279.019531 113.613281 274.347656 112.011719 269.558594 110.492188 C 268.371094 110.128906 267.109375 109.820312 265.921875 109.460938 C 264.699219 109.125 263.511719 108.765625 262.234375 108.519531 C 259.757812 107.980469 257.292969 107.375 254.785156 106.964844 C 253.535156 106.761719 252.292969 106.492188 251.003906 106.3125 C 249.734375 106.171875 248.441406 105.992188 247.214844 105.828125 C 246.585938 105.726562 245.921875 105.648438 245.320312 105.585938 L 243.371094 105.433594 C 242.066406 105.320312 240.824219 105.21875 239.515625 105.105469 C 234.335938 104.898438 229.140625 104.757812 223.886719 105.21875 C 221.265625 105.332031 218.628906 105.675781 216.003906 105.960938 C 215.375 106.027344 214.707031 106.121094 214.035156 106.214844 L 212.054688 106.535156 L 210.074219 106.851562 L 209.089844 106.980469 L 208.089844 107.171875 C 206.804688 107.4375 205.476562 107.730469 204.1875 107.996094 L 203.191406 108.1875 C 202.863281 108.285156 202.574219 108.359375 202.21875 108.421875 L 200.257812 108.949219 L 198.300781 109.480469 C 197.617188 109.636719 196.996094 109.808594 196.339844 110.007812 C 195.023438 110.402344 193.773438 110.816406 192.457031 111.210938 C 183.21875 114.117188 174.179688 118.292969 165.699219 123.515625 C 164.667969 124.179688 163.542969 124.789062 162.535156 125.488281 C 161.53125 126.191406 160.484375 126.921875 159.449219 127.582031 L 157.886719 128.644531 C 157.371094 128.976562 156.90625 129.386719 156.375 129.78125 C 155.394531 130.523438 154.375 131.292969 153.378906 132.101562 L 152.636719 132.691406 C 152.382812 132.910156 152.167969 133.101562 151.917969 133.320312 L 150.457031 134.539062 C 149.527344 135.359375 148.53125 136.167969 147.601562 136.988281 L 144.847656 139.597656 L 143.476562 140.871094 C 143.011719 141.28125 142.597656 141.773438 142.15625 142.222656 L 139.542969 144.964844 L 138.878906 145.675781 L 138.277344 146.398438 L 137.007812 147.828125 C 136.179688 148.808594 135.300781 149.710938 134.535156 150.707031 L 132.183594 153.675781 L 131.003906 155.160156 L 127.746094 159.777344 C 127.03125 160.851562 126.359375 161.902344 125.6875 162.949219 C 125.015625 164 124.300781 165.074219 123.71875 166.175781 C 122.492188 168.367188 121.199219 170.542969 120.058594 172.789062 C 119.503906 173.933594 118.894531 174.996094 118.367188 176.175781 C 117.847656 177.292969 117.316406 178.476562 116.800781 179.59375 L 116.050781 181.308594 L 115.367188 183.039062 C 114.875 184.195312 114.449219 185.363281 114 186.496094 C 113.574219 187.667969 113.171875 188.878906 112.789062 190.023438 C 112.425781 191.207031 111.9375 192.363281 111.640625 193.5625 C 108.78125 203.082031 106.976562 212.765625 106.277344 222.414062 C 105.613281 232.035156 106.066406 241.5625 107.386719 250.695312 C 108.710938 259.828125 110.996094 268.625 113.996094 276.792969 C 116.957031 284.984375 120.625 292.613281 124.667969 299.609375 C 123.890625 298.3125 123.039062 296.726562 122.089844 294.980469 Z M 353.339844 194.933594 C 353.863281 196.445312 354.335938 197.882812 354.703125 199.328125 C 355.074219 200.773438 355.390625 202.140625 355.71875 203.441406 C 356.011719 204.769531 356.199219 206.109375 356.4375 207.355469 C 357.308594 212.460938 357.570312 217.0625 358.035156 221.980469 C 358.585938 228.691406 358.679688 235.472656 358.171875 242.191406 C 358.011719 243.863281 357.851562 245.539062 357.757812 247.226562 C 357.535156 248.882812 357.308594 250.542969 357.082031 252.199219 C 357.003906 253.035156 356.859375 253.859375 356.648438 254.667969 L 356.214844 257.132812 C 356.070312 257.957031 355.925781 258.777344 355.714844 259.585938 C 355.503906 260.394531 355.332031 261.175781 355.148438 262.023438 C 354.765625 263.613281 354.414062 265.246094 353.925781 266.847656 C 353.480469 268.421875 353.035156 270 352.550781 271.601562 C 352.039062 273.164062 351.5 274.683594 350.992188 276.246094 C 350.753906 277.015625 350.414062 277.796875 350.152344 278.523438 C 349.851562 279.277344 349.550781 280.03125 349.25 280.785156 C 348.949219 281.539062 348.6875 282.269531 348.347656 283.046875 C 348.019531 283.761719 347.71875 284.515625 347.355469 285.257812 C 346.660156 286.710938 346.097656 288.195312 345.355469 289.570312 C 344.636719 290.984375 343.917969 292.398438 343.214844 293.746094 C 342.445312 295.082031 341.664062 296.480469 340.894531 297.816406 C 344.964844 290.882812 348.363281 283.597656 351.03125 276.050781 C 349.21875 281.085938 347.148438 285.722656 344.859375 290.28125 C 344.453125 291.046875 344.046875 291.8125 343.679688 292.550781 L 343.085938 293.71875 L 342.4375 294.808594 C 341.535156 296.285156 340.699219 297.773438 339.78125 299.316406 C 338.816406 300.78125 337.808594 302.265625 336.824219 303.796875 C 335.820312 305.285156 334.679688 306.742188 333.570312 308.242188 C 334.1875 307.285156 334.992188 306.09375 335.890625 304.789062 C 336.375 304.140625 336.765625 303.441406 337.222656 302.753906 C 337.679688 302.070312 338.113281 301.34375 338.566406 300.65625 C 339 299.929688 339.441406 299.3125 339.832031 298.609375 C 340.1875 297.9375 340.5625 297.300781 340.859375 296.71875 C 341.484375 295.589844 341.972656 294.601562 342.1875 294.070312 C 341.296875 295.652344 340.40625 297.234375 339.425781 298.761719 C 340.355469 297.152344 341.285156 295.546875 342.230469 293.875 C 342.21875 293.9375 342.179688 293.964844 342.164062 294.03125 C 350.785156 278.285156 356.085938 260.691406 357.6875 242.839844 C 358.46875 233.925781 358.414062 224.929688 357.363281 216.128906 C 356.28125 207.289062 354.351562 198.601562 351.5625 190.242188 C 352.308594 191.839844 352.816406 193.417969 353.339844 194.933594 Z M 336.414062 303.328125 C 337.25 302.007812 338.121094 300.664062 338.996094 299.316406 C 338.164062 300.636719 337.289062 301.984375 336.414062 303.328125 Z M 351.0625 275.75 C 351.324219 275.023438 351.585938 274.292969 351.824219 273.527344 C 351.585938 274.292969 351.324219 275.023438 351.0625 275.75 Z M 338.3125 280.351562 C 337.488281 281.945312 336.699219 283.6875 335.675781 285.410156 L 336.570312 283.65625 L 337.398438 281.890625 C 337.929688 280.710938 338.460938 279.527344 338.988281 278.347656 C 339.921875 275.953125 340.957031 273.550781 341.773438 271.0625 C 343.519531 266.183594 344.820312 261.140625 345.90625 256.015625 L 346.636719 252.179688 C 346.78125 251.527344 346.816406 250.886719 346.917969 250.257812 L 347.203125 248.339844 L 347.484375 246.421875 C 347.585938 245.792969 347.597656 245.113281 347.675781 244.445312 C 347.789062 243.140625 347.902344 241.832031 348.015625 240.527344 C 348.066406 239.203125 348.140625 237.921875 348.1875 236.601562 C 348.226562 235.960938 348.238281 235.28125 348.273438 234.640625 L 348.253906 232.6875 C 348.238281 231.351562 348.246094 230.058594 348.230469 228.722656 C 348.175781 227.414062 348.09375 226.0625 348.039062 224.753906 L 348.078125 224.726562 C 348.691406 233.195312 348.238281 243.578125 346.53125 252.976562 C 346.316406 254.125 346.085938 255.335938 345.886719 256.421875 C 345.796875 256.980469 345.667969 257.566406 345.515625 258.117188 C 345.363281 258.664062 345.273438 259.222656 345.121094 259.769531 C 344.851562 260.839844 344.652344 261.921875 344.382812 262.992188 C 344.09375 264.019531 343.839844 265.023438 343.5625 265.988281 C 343.421875 266.46875 343.28125 266.953125 343.183594 267.410156 C 343.101562 267.628906 343.042969 267.890625 343 268.085938 C 342.917969 268.308594 342.835938 268.527344 342.78125 268.789062 C 342.515625 269.6875 342.226562 270.546875 341.976562 271.378906 C 341.726562 272.214844 341.492188 272.980469 341.292969 273.726562 C 341.035156 274.453125 340.851562 275.132812 340.644531 275.769531 C 339.859375 277.167969 339.179688 278.730469 338.3125 280.351562 Z M 223 353.785156 C 229.078125 354.257812 235.21875 354.296875 241.3125 353.917969 L 245.875 353.511719 C 246.632812 353.472656 247.382812 353.328125 248.15625 353.222656 L 250.4375 352.933594 C 251.214844 352.828125 251.949219 352.75 252.695312 352.605469 L 254.941406 352.171875 L 257.1875 351.742188 L 258.332031 351.511719 L 259.449219 351.242188 C 260.960938 350.890625 262.445312 350.496094 263.917969 350.167969 C 265.378906 349.734375 266.902344 349.316406 268.363281 348.882812 C 269.847656 348.488281 271.296875 347.949219 272.773438 347.453125 C 274.246094 346.953125 275.722656 346.457031 277.121094 345.839844 C 276.488281 346.078125 275.839844 346.378906 275.210938 346.617188 L 273.285156 347.292969 C 271.996094 347.726562 270.757812 348.242188 269.441406 348.640625 C 266.847656 349.40625 264.230469 350.304688 261.574219 350.886719 C 256.3125 352.300781 250.890625 353.203125 245.488281 353.871094 C 238.5 354.601562 231.519531 354.652344 224.695312 354.15625 C 217.871094 353.660156 211.253906 352.523438 204.90625 350.9375 C 210.890625 352.308594 216.9375 353.25 223 353.785156 Z M 319.511719 309.753906 C 318.789062 310.554688 318.070312 311.355469 317.324219 312.113281 C 316.578125 312.871094 315.765625 313.617188 314.980469 314.402344 C 313.449219 315.949219 311.773438 317.359375 310.164062 318.785156 C 311.789062 317.292969 313.398438 315.867188 314.902344 314.285156 C 315.648438 313.523438 316.433594 312.738281 317.179688 311.980469 C 317.902344 311.179688 318.621094 310.382812 319.34375 309.582031 C 318.835938 310.1875 319.40625 309.765625 319.511719 309.753906 Z M 286.25 335.601562 C 285.761719 335.800781 285.207031 335.988281 284.601562 336.265625 C 283.996094 336.542969 283.296875 336.769531 282.609375 337.097656 L 283.707031 336.617188 L 284.273438 336.367188 L 284.816406 336.074219 C 285.515625 335.679688 286.242188 335.328125 286.902344 334.957031 C 287.601562 334.5625 288.328125 334.210938 288.988281 333.839844 C 289.332031 333.675781 289.691406 333.449219 290.007812 333.242188 L 291.027344 332.644531 C 289.488281 333.746094 287.863281 334.621094 286.25 335.601562 Z M 225.210938 348.496094 C 224.703125 348.488281 224.164062 348.4375 223.65625 348.429688 C 223.144531 348.421875 222.621094 348.308594 222.152344 348.273438 C 223.417969 348.414062 224.675781 348.449219 225.957031 348.523438 C 226.597656 348.558594 227.238281 348.597656 227.855469 348.59375 C 228.496094 348.628906 229.136719 348.667969 229.789062 348.640625 L 233.652344 348.628906 L 234.609375 348.628906 L 235.578125 348.570312 C 236.234375 348.539062 236.824219 348.5 237.476562 348.46875 C 236.324219 348.59375 235.40625 348.734375 234.855469 348.753906 C 233.753906 348.785156 232.667969 348.753906 231.582031 348.722656 C 231.03125 348.738281 230.523438 348.730469 229.945312 348.707031 C 229.398438 348.722656 228.886719 348.714844 228.351562 348.667969 C 227.304688 348.609375 226.257812 348.554688 225.210938 348.496094 Z M 225.210938 348.496094 " fill-opacity="1" fill-rule="nonzero"/></g></g></g></svg>